<svg width="19" height="19" viewBox="0 0 19 19" fill="none" xmlns="http://www.w3.org/2000/svg">
<path d="M18.1625 0.851485C17.6262 0.315235 16.76 0.315235 16.2237 0.851485L9.49999 7.56148L2.77624 0.837734C2.23999 0.301484 1.37374 0.301484 0.83749 0.837734C0.30124 1.37398 0.30124 2.24023 0.83749 2.77648L7.56124 9.50023L0.83749 16.224C0.30124 16.7602 0.30124 17.6265 0.83749 18.1627C1.37374 18.699 2.23999 18.699 2.77624 18.1627L9.49999 11.439L16.2237 18.1627C16.76 18.699 17.6262 18.699 18.1625 18.1627C18.6987 17.6265 18.6987 16.7602 18.1625 16.224L11.4387 9.50023L18.1625 2.77648C18.685 2.25398 18.685 1.37398 18.1625 0.851485Z" fill="black"/>
</svg>
