<svg width="34" height="31" viewBox="0 0 34 31" fill="none" xmlns="http://www.w3.org/2000/svg">
<path d="M29.7664 2.64914C25.3664 -0.350863 19.933 1.04914 16.9997 4.48247C14.0664 1.04914 8.63304 -0.36753 4.23304 2.64914C1.8997 4.24914 0.433038 6.94914 0.333038 9.79914C0.0997043 16.2658 5.83304 21.4491 14.583 29.3991L14.7497 29.5491C16.0164 30.6991 17.9664 30.6991 19.233 29.5325L19.4164 29.3658C28.1664 21.4325 33.883 16.2491 33.6664 9.78247C33.5664 6.94914 32.0997 4.24914 29.7664 2.64914ZM17.1664 26.9158L16.9997 27.0825L16.833 26.9158C8.8997 19.7325 3.66637 14.9825 3.66637 10.1658C3.66637 6.83247 6.16637 4.33247 9.4997 4.33247C12.0664 4.33247 14.5664 5.98247 15.4497 8.2658H18.5664C19.433 5.98247 21.933 4.33247 24.4997 4.33247C27.833 4.33247 30.333 6.83247 30.333 10.1658C30.333 14.9825 25.0997 19.7325 17.1664 26.9158Z" fill="white"/>
</svg>
