<svg width="42" height="40" viewBox="0 0 42 40" fill="none" xmlns="http://www.w3.org/2000/svg">
<path d="M20.4285 1V8.55732" stroke="black" stroke-width="2" stroke-linecap="round" stroke-linejoin="round"/>
<path d="M1 19.3535H8.99999" stroke="black" stroke-width="2" stroke-linecap="round" stroke-linejoin="round"/>
<path d="M20.4285 38.7858V31.2285" stroke="black" stroke-width="2" stroke-linecap="round" stroke-linejoin="round"/>
<path d="M41 19.3535H33" stroke="black" stroke-width="2" stroke-linecap="round" stroke-linejoin="round"/>
<path d="M18.1429 22.2901C18.1429 23.6504 19.4 24.73 21 24.73C22.6 24.73 23.8572 23.6288 23.8572 22.2901C23.8572 20.9513 22.6 19.8933 21 19.8933C19.4 19.8933 18.1429 18.7921 18.1429 17.4966C18.1429 16.201 19.4 15.0566 21 15.0566C22.6 15.0566 23.8572 16.1578 23.8572 17.4966" stroke="black" stroke-width="2" stroke-linecap="round" stroke-linejoin="round"/>
<path d="M21.0686 12.877V26.912" stroke="black" stroke-width="2" stroke-linecap="round" stroke-linejoin="round"/>
<path d="M35.2628 19.8957C35.2628 27.3235 28.8628 33.3693 20.9771 33.3693C13.0914 33.3693 6.69141 27.3235 6.69141 19.8957C6.69141 12.4679 13.0914 6.37891 20.9771 6.37891C28.8628 6.37891 35.2628 12.4248 35.2628 19.8957Z" stroke="black" stroke-width="2" stroke-linecap="round" stroke-linejoin="round"/>
</svg>
