<svg width="37" height="41" viewBox="0 0 37 41" fill="none" xmlns="http://www.w3.org/2000/svg">
<path d="M20.1936 15.4424C20.1936 10.4509 15.9032 6.33398 10.5742 6.33398C5.24517 6.33398 1 10.4509 1 15.4424C1 19.602 3.93549 23.0789 7.95484 24.1882V26.172L6.23871 27.8145L7.95484 29.4996V31.1208L6.23871 32.806L7.95484 34.4485V36.9229L10.5742 39.3973L13.1936 36.9229V24.1882C17.2581 23.0789 20.1936 19.602 20.1936 15.4424Z" stroke="black" stroke-width="2" stroke-linecap="round" stroke-linejoin="round"/>
<path d="M13.3967 12.1996C13.3967 13.6714 12.1322 14.866 10.5742 14.866C9.0161 14.866 7.75159 13.6714 7.75159 12.1996C7.75159 10.7277 9.0161 9.5332 10.5742 9.5332C12.1322 9.5332 13.3967 10.7277 13.3967 12.1996Z" stroke="black" stroke-width="2" stroke-linecap="round" stroke-linejoin="round"/>
<path d="M13.4194 25.8512C16.3549 27.4723 19.9226 27.4724 22.8581 25.8938L24.7097 27.5363V30.0748H27.3065L28.1871 30.928V33.4664H30.4678L32.3194 35.1516H36V31.5679L26.5162 22.3315C28.571 18.7906 28.0516 14.2257 24.9355 11.1753C22.7452 9.04222 19.8323 8.18898 16.9871 8.55161" stroke="black" stroke-width="2" stroke-linecap="round" stroke-linejoin="round"/>
<path d="M11.1613 11.6656V4.285C11.1613 2.49318 12.6967 1 14.5484 1C16.4 1 17.9354 2.49318 17.9354 4.285V7.97529" stroke="black" stroke-width="2" stroke-linecap="round" stroke-linejoin="round"/>
</svg>
