<svg width="157" height="157" viewBox="0 0 157 157" fill="none" xmlns="http://www.w3.org/2000/svg">
<g opacity="0.3">
<path d="M117.937 52.8477H111.437V39.8477C111.437 21.9077 96.8775 7.34766 78.9375 7.34766C60.9975 7.34766 46.4375 21.9077 46.4375 39.8477V52.8477H39.9375C32.7875 52.8477 26.9375 58.6977 26.9375 65.8477V130.848C26.9375 137.998 32.7875 143.848 39.9375 143.848H117.937C125.087 143.848 130.937 137.998 130.937 130.848V65.8477C130.937 58.6977 125.087 52.8477 117.937 52.8477ZM78.9375 111.348C71.7875 111.348 65.9375 105.498 65.9375 98.3477C65.9375 91.1977 71.7875 85.3477 78.9375 85.3477C86.0875 85.3477 91.9375 91.1977 91.9375 98.3477C91.9375 105.498 86.0875 111.348 78.9375 111.348ZM59.4375 52.8477V39.8477C59.4375 29.0577 68.1475 20.3477 78.9375 20.3477C89.7275 20.3477 98.4375 29.0577 98.4375 39.8477V52.8477H59.4375Z" fill="#8C9592"/>
</g>
</svg>
