<svg width="16" height="21" viewBox="0 0 16 21" fill="none" xmlns="http://www.w3.org/2000/svg">
<path d="M13.4998 7.33268H12.5832V5.49935C12.5832 2.96935 10.5298 0.916016 7.99984 0.916016C5.46984 0.916016 3.4165 2.96935 3.4165 5.49935V7.33268H2.49984C1.4915 7.33268 0.666504 8.15768 0.666504 9.16602V18.3327C0.666504 19.341 1.4915 20.166 2.49984 20.166H13.4998C14.5082 20.166 15.3332 19.341 15.3332 18.3327V9.16602C15.3332 8.15768 14.5082 7.33268 13.4998 7.33268ZM7.99984 15.5827C6.9915 15.5827 6.1665 14.7577 6.1665 13.7493C6.1665 12.741 6.9915 11.916 7.99984 11.916C9.00817 11.916 9.83317 12.741 9.83317 13.7493C9.83317 14.7577 9.00817 15.5827 7.99984 15.5827ZM5.24984 7.33268V5.49935C5.24984 3.97768 6.47817 2.74935 7.99984 2.74935C9.5215 2.74935 10.7498 3.97768 10.7498 5.49935V7.33268H5.24984Z" fill="#A1AEB7"/>
</svg>
