<svg fill="none" height="42" viewBox="0 0 42 42" width="42" xmlns="http://www.w3.org/2000/svg" xmlns:xlink="http://www.w3.org/1999/xlink"><mask id="a" height="19" maskUnits="userSpaceOnUse" width="13" x="16" y="11"><path clip-rule="evenodd" d="m19.3073 29.0937c-.3905.3905-1.0236.3905-1.4142 0l-.8425-.8426c-.3902-.3902-.3906-1.0228-.0008-1.4134l6.6224-6.6369-6.6224-6.6369c-.3898-.3907-.3894-1.0232.0008-1.4135l.8425-.8425c.3906-.3905 1.0237-.3905 1.4142 0l8.8929 8.8929z" fill="#fff" fill-rule="evenodd"/></mask><path clip-rule="evenodd" d="m21 .999998c-11.04569-.000001-20 8.954302-20 20.000002s8.9543 20 20 20 20-8.9543 20-20-8.9543-20.000001-20-20.000002z" fill-rule="evenodd" stroke="#fff"/><path clip-rule="evenodd" d="m19.3073 29.0937c-.3905.3905-1.0236.3905-1.4142 0l-.8425-.8426c-.3902-.3902-.3906-1.0228-.0008-1.4134l6.6224-6.6369-6.6224-6.6369c-.3898-.3907-.3894-1.0232.0008-1.4135l.8425-.8425c.3906-.3905 1.0237-.3905 1.4142 0l8.8929 8.8929z" fill="#fff" fill-rule="evenodd"/><g mask="url(#a)"><path d="m41 39.4004h38.4v38.4h-38.4z" fill="#fff" transform="matrix(-1 0 0 -1 82 78.8008)"/></g></svg>