<svg width="42" height="42" viewBox="0 0 42 42" fill="none" xmlns="http://www.w3.org/2000/svg">
<path fill-rule="evenodd" clip-rule="evenodd" d="M21 41C32.0457 41 41 32.0457 41 21C41 9.95431 32.0457 1 21 1C9.95431 1 1 9.95431 1 21C1 32.0457 9.95431 41 21 41Z" stroke="black"/>
<path fill-rule="evenodd" clip-rule="evenodd" d="M22.6927 12.9063C23.0832 12.5158 23.7163 12.5158 24.1069 12.9063L24.9494 13.7489C25.3396 14.1391 25.34 14.7717 24.9502 15.1623L18.3278 21.7992L24.9502 28.4361C25.34 28.8268 25.3396 29.4593 24.9494 29.8496L24.1069 30.6921C23.7163 31.0826 23.0832 31.0826 22.6927 30.6921L13.7998 21.7992L22.6927 12.9063Z" fill="black"/>
<mask id="mask0_511_12118" style="mask-type:luminance" maskUnits="userSpaceOnUse" x="13" y="12" width="13" height="19">
<path fill-rule="evenodd" clip-rule="evenodd" d="M22.6927 12.9063C23.0832 12.5158 23.7163 12.5158 24.1069 12.9063L24.9494 13.7489C25.3396 14.1391 25.34 14.7717 24.9502 15.1623L18.3278 21.7992L24.9502 28.4361C25.34 28.8268 25.3396 29.4593 24.9494 29.8496L24.1069 30.6921C23.7163 31.0826 23.0832 31.0826 22.6927 30.6921L13.7998 21.7992L22.6927 12.9063Z" fill="white"/>
</mask>
<g mask="url(#mask0_511_12118)">
<rect x="1" y="2.59961" width="38.4" height="38.4" fill="black"/>
</g>
</svg>
