<svg width="42" height="42" viewBox="0 0 42 42" fill="none" xmlns="http://www.w3.org/2000/svg">
<path fill-rule="evenodd" clip-rule="evenodd" d="M21.2813 0.519529C10.2356 0.519528 1.28125 9.47383 1.28125 20.5195C1.28125 31.5652 10.2356 40.5195 21.2812 40.5195C32.3269 40.5195 41.2813 31.5652 41.2813 20.5195C41.2813 9.47384 32.3269 0.51953 21.2813 0.519529Z" stroke="black"/>
<path fill-rule="evenodd" clip-rule="evenodd" d="M19.5881 28.6132C19.1976 29.0037 18.5644 29.0037 18.1739 28.6132L17.3313 27.7706C16.9411 27.3804 16.9408 26.7479 17.3306 26.3572L23.953 19.7203L17.3306 13.0834C16.9408 12.6928 16.9411 12.0602 17.3313 11.67L18.1739 10.8274C18.5644 10.4369 19.1976 10.4369 19.5881 10.8274L28.481 19.7203L19.5881 28.6132Z" fill="black"/>
<mask id="mask0_1689_12590" style="mask-type:luminance" maskUnits="userSpaceOnUse" x="17" y="10" width="12" height="19">
<path fill-rule="evenodd" clip-rule="evenodd" d="M19.5881 28.6132C19.1976 29.0037 18.5644 29.0037 18.1739 28.6132L17.3313 27.7706C16.9411 27.3804 16.9408 26.7479 17.3306 26.3572L23.953 19.7203L17.3306 13.0834C16.9408 12.6928 16.9411 12.0602 17.3313 11.67L18.1739 10.8274C18.5644 10.4369 19.1976 10.4369 19.5881 10.8274L28.481 19.7203L19.5881 28.6132Z" fill="white"/>
</mask>
<g mask="url(#mask0_1689_12590)">
<rect x="41.2812" y="38.9199" width="38.4" height="38.4" transform="rotate(-180 41.2812 38.9199)" fill="black"/>
</g>
</svg>
