<svg width="42" height="42" viewBox="0 0 42 42" fill="none" xmlns="http://www.w3.org/2000/svg">
<path fill-rule="evenodd" clip-rule="evenodd" d="M21 0.999998C9.95431 0.999997 1 9.9543 1 21C1 32.0457 9.9543 41 21 41C32.0457 41 41 32.0457 41 21C41 9.9543 32.0457 0.999999 21 0.999998Z" stroke="white"/>
<path fill-rule="evenodd" clip-rule="evenodd" d="M19.3073 29.0937C18.9168 29.4842 18.2837 29.4842 17.8931 29.0937L17.0506 28.2511C16.6604 27.8609 16.66 27.2283 17.0498 26.8377L23.6722 20.2008L17.0498 13.5639C16.66 13.1732 16.6604 12.5407 17.0506 12.1504L17.8931 11.3079C18.2837 10.9174 18.9168 10.9174 19.3073 11.3079L28.2002 20.2008L19.3073 29.0937Z" fill="white"/>
<mask id="mask0_511_12122" style="mask-type:luminance" maskUnits="userSpaceOnUse" x="16" y="11" width="13" height="19">
<path fill-rule="evenodd" clip-rule="evenodd" d="M19.3073 29.0937C18.9168 29.4842 18.2837 29.4842 17.8931 29.0937L17.0506 28.2511C16.6604 27.8609 16.66 27.2283 17.0498 26.8377L23.6722 20.2008L17.0498 13.5639C16.66 13.1732 16.6604 12.5407 17.0506 12.1504L17.8931 11.3079C18.2837 10.9174 18.9168 10.9174 19.3073 11.3079L28.2002 20.2008L19.3073 29.0937Z" fill="white"/>
</mask>
<g mask="url(#mask0_511_12122)">
<rect x="41" y="39.4004" width="38.4" height="38.4" transform="rotate(-180 41 39.4004)" fill="white"/>
</g>
</svg>
