<svg width="20" height="20" viewBox="0 0 20 20" fill="none" xmlns="http://www.w3.org/2000/svg">
<path d="M8.91665 6.47768V10.4643C8.91665 10.8435 9.12249 11.201 9.44749 11.396L12.8275 13.4002C13.2175 13.6277 13.7158 13.4977 13.9433 13.1185C14.1708 12.7285 14.0517 12.2302 13.6617 12.0027L10.5525 10.1502V6.46685C10.5417 6.03351 10.1733 5.66518 9.72915 5.66518C9.28499 5.66518 8.91665 6.03351 8.91665 6.47768ZM19.75 7.29018V1.55935C19.75 1.07185 19.165 0.833513 18.8292 1.18018L16.9008 3.10851C14.94 1.14768 12.145 0.0210133 9.08999 0.291847C4.55082 0.703513 0.813321 4.35435 0.314987 8.89351C-0.335013 14.7652 4.24749 19.7485 9.99999 19.7485C14.9725 19.7485 19.0783 16.0218 19.6742 11.2118C19.75 10.5618 19.2408 9.99851 18.5908 9.99851C18.0492 9.99851 17.5942 10.3993 17.5292 10.9302C17.0633 14.711 13.8025 17.636 9.89165 17.5818C5.87249 17.5277 2.48165 14.1368 2.41665 10.1068C2.35165 5.88185 5.78582 2.41518 9.99999 2.41518C12.0908 2.41518 13.9867 3.27101 15.3625 4.63601L13.0983 6.90018C12.7517 7.24685 12.99 7.83185 13.4775 7.83185H19.2083C19.5117 7.83185 19.75 7.59351 19.75 7.29018Z" fill="black"/>
</svg>
