<?xml version="1.0" encoding="utf-8"?>
<svg viewBox="0 0 42.8402 42.837" xmlns="http://www.w3.org/2000/svg">
  <path d="M21.4113 15.5184L15.5146 21.415L21.4113 27.3117L27.3079 21.4151L21.4113 15.5184Z" fill="black"/>
  <path d="M42.8306 21.468V21.3658C42.8178 20.4992 42.4757 19.6902 41.8618 19.0763L40.0584 17.2729L41.5644 15.7669C42.1911 15.1402 42.5365 14.3088 42.5365 13.4263C42.5365 12.5438 42.1911 11.7093 41.5676 11.0857L31.7481 1.2662C31.1214 0.639489 30.29 0.297346 29.4075 0.297346C28.525 0.297346 27.6904 0.642687 27.0669 1.2662L25.5609 2.77221L23.7575 0.968854C23.1308 0.342143 22.2994 0 21.4169 0C20.5312 0 19.6999 0.34534 19.0763 0.968854L17.2729 2.77221L15.7669 1.2662C15.1402 0.639489 14.3088 0.297346 13.4263 0.297346C12.5438 0.297346 11.7093 0.642687 11.0858 1.2662L1.2662 11.0857C0.639489 11.7124 0.297346 12.5438 0.297346 13.4263C0.297346 14.3088 0.642687 15.1434 1.2662 15.7669L2.77225 17.2729L0.968854 19.0763C0.348538 19.6966 0.00319751 20.5216 0 21.4009V21.4361C0.00639502 22.3154 0.348538 23.1404 0.968854 23.7607L2.77225 25.5673L1.2694 27.0701C0.64269 27.6968 0.300547 28.5282 0.300547 29.4107C0.300547 30.2932 0.645887 31.1278 1.2694 31.7513L11.0889 41.5708C11.7156 42.1975 12.547 42.5397 13.4295 42.5397C14.3152 42.5397 15.1466 42.1943 15.7701 41.5676L17.2729 40.0648L19.0763 41.8682C19.7158 42.5077 20.5536 42.8306 21.3945 42.837H21.4425C22.2834 42.8306 23.1212 42.5077 23.7607 41.8682L25.5673 40.0648L27.0701 41.5708C27.716 42.2167 28.5633 42.5397 29.4107 42.5397C30.258 42.5397 31.1085 42.2167 31.7512 41.5708L41.5708 31.7513C42.1975 31.1246 42.5397 30.2932 42.5397 29.4107C42.5397 28.5282 42.1943 27.6936 41.5708 27.0701L40.068 25.5641L41.8714 23.7607C42.4853 23.1468 42.8274 22.3346 42.8402 21.4712M28.1093 2.29899C28.4578 1.95046 28.9215 1.75863 29.4139 1.75863C29.9063 1.75863 30.3731 1.95046 30.7216 2.29899L40.5412 12.1185C40.8898 12.4671 41.0816 12.9307 41.0816 13.4263C41.0816 13.9219 40.8898 14.3824 40.5412 14.7341L39.0352 16.2402L26.6033 3.8082L28.1093 2.30219V2.29899ZM37.996 17.2729L34.888 20.3809L22.4561 7.94896L25.5641 4.84099L37.996 17.2729ZM33.852 21.4169L21.4201 33.8488L8.98819 21.4169L21.4201 8.98503L33.852 21.4169ZM20.1123 2.00164C20.4609 1.65312 20.9245 1.46128 21.4169 1.46128C21.9093 1.46128 22.3729 1.65312 22.7215 2.00164L24.5249 3.805L21.4169 6.91297L18.3057 3.8018L20.1091 1.99844L20.1123 2.00164ZM17.2729 4.84099L20.3841 7.95216L7.9522 20.3841L4.84103 17.2729L17.2729 4.84099ZM2.29899 14.7309C1.95046 14.3824 1.75863 13.9187 1.75863 13.4231C1.75863 12.9275 1.95046 12.4671 2.29899 12.1153L12.1186 2.29579C12.4671 1.94726 12.9307 1.75543 13.4231 1.75543C13.9156 1.75543 14.3792 1.94726 14.7277 2.29579L16.2338 3.8018L3.80184 16.2338L2.29579 14.7277L2.29899 14.7309ZM1.99844 22.7247C1.64991 22.3762 1.45804 21.9125 1.45804 21.4201C1.45804 20.9277 1.64991 20.464 1.99844 20.1123L3.80184 18.3089L6.91301 21.4201L3.80184 24.5313L1.99844 22.7279V22.7247ZM14.7309 40.5348C14.3824 40.8834 13.9187 41.0752 13.4231 41.0752C12.9275 41.0752 12.4671 40.8834 12.1186 40.5348L2.29899 30.7153C1.95046 30.3668 1.75863 29.9031 1.75863 29.4075C1.75863 28.9119 1.95046 28.4514 2.29899 28.1029L3.80184 26.6001L16.2338 39.032L14.7309 40.5348ZM17.2697 37.996L4.83783 25.5641L7.949 22.4529L20.3809 34.8848L17.2697 37.996ZM22.7215 40.8354C22.002 41.5548 20.8286 41.5548 20.1091 40.8354L18.3057 39.032L21.4169 35.9208L24.5281 39.032L22.7215 40.8386V40.8354ZM22.4529 34.8848L34.8848 22.4529L37.996 25.5641L25.5641 37.996L22.4529 34.8848ZM40.5348 28.1029C40.8834 28.4514 41.0752 28.9151 41.0752 29.4107C41.0752 29.9063 40.8834 30.3668 40.5348 30.7153L30.7152 40.5348C29.9958 41.2543 28.8223 41.2543 28.1029 40.5348L26.5969 39.0288L39.0288 26.5969L40.5348 28.1029ZM40.8322 22.7247L39.0288 24.5281L35.9176 21.4169L39.0256 18.3089L40.829 20.1123C41.1775 20.4608 41.3694 20.9245 41.3694 21.4201C41.3694 21.9157 41.1775 22.3762 40.829 22.7247" fill="black"/>
</svg>