<?xml version="1.0" standalone="no"?>
<!DOCTYPE svg PUBLIC "-//W3C//DTD SVG 20010904//EN"
 "http://www.w3.org/TR/2001/REC-SVG-20010904/DTD/svg10.dtd">
<svg version="1.0" xmlns="http://www.w3.org/2000/svg"
 width="1080.000000pt" height="1076.000000pt" viewBox="0 0 1080.000000 1076.000000"
 preserveAspectRatio="xMidYMid meet">

<g transform="translate(0.000000,1076.000000) scale(0.100000,-0.100000)"
fill="#000000" stroke="none">
<path d="M5315 10750 c25 -8 21 -9 -22 -5 -94 7 -245 -47 -373 -136 -30 -20
-167 -150 -305 -288 l-249 -251 -221 219 c-292 290 -376 343 -603 387 -76 15
-243 19 -208 5 18 -7 18 -8 2 -14 -10 -4 -30 -7 -44 -7 -21 0 -24 2 -12 10 24
16 -6 13 -92 -9 -88 -23 -187 -66 -255 -111 -55 -37 -2626 -2601 -2678 -2670
-88 -119 -143 -275 -152 -431 -7 -128 -1 -168 33 -204 20 -22 27 -25 39 -15
12 10 15 8 16 -11 0 -13 8 -55 18 -92 15 -57 15 -67 3 -62 -10 3 -12 0 -8 -10
8 -22 0 -19 -29 13 l-26 27 19 -45 c42 -100 100 -170 323 -395 l229 -230 -255
-255 c-264 -263 -324 -337 -376 -459 -30 -69 -36 -101 -19 -101 6 0 10 -7 10
-16 0 -13 -3 -14 -14 -5 -12 10 -17 6 -25 -26 -18 -62 -25 -204 -12 -250 7
-26 25 -53 47 -72 26 -23 39 -46 50 -89 9 -35 11 -58 5 -60 -5 -2 -7 -10 -4
-18 12 -31 -17 -11 -42 29 -39 63 -23 10 32 -103 45 -93 51 -99 321 -373 l275
-279 -147 -147 c-81 -81 -143 -151 -139 -156 4 -4 3 -5 -3 -2 -16 9 -123 -106
-181 -195 -89 -135 -133 -269 -140 -420 -6 -120 3 -156 44 -184 21 -13 27 -14
34 -3 7 11 9 9 9 -6 0 -21 23 -115 35 -148 6 -13 3 -16 -9 -11 -12 5 -15 2
-10 -12 6 -20 -40 25 -63 62 -29 45 40 -124 74 -180 42 -70 64 -93 1585 -1614
585 -584 1086 -1078 1113 -1098 65 -47 193 -108 275 -130 80 -22 297 -25 383
-5 32 7 57 15 54 17 -2 3 -26 -1 -53 -7 -82 -20 -286 -14 -379 10 -91 23 -263
107 -315 152 l-35 31 45 -27 c65 -38 148 -75 184 -82 22 -4 12 5 -38 32 -38
20 -75 42 -81 48 -7 7 -33 28 -58 47 -39 30 -76 73 -48 55 15 -8 25 15 12 28
-6 6 -11 17 -11 24 0 9 13 5 38 -12 75 -51 90 -55 172 -40 41 7 120 21 175 31
66 11 93 20 80 24 -20 7 37 17 150 25 28 2 70 11 95 20 53 20 93 30 174 44 74
13 169 57 255 118 128 92 352 326 336 353 -3 5 4 14 16 20 17 10 20 9 13 -2
-5 -8 2 -6 19 5 24 16 30 16 55 3 16 -8 44 -32 64 -54 53 -59 63 -59 101 -2
21 33 37 48 46 44 20 -7 761 733 761 760 0 18 -2 18 -25 -4 -14 -13 -25 -29
-25 -35 0 -6 -148 -157 -330 -335 -181 -177 -330 -329 -330 -336 0 -13 -30
-19 -74 -15 -11 1 -23 -4 -28 -11 -6 -10 -8 -9 -8 4 0 9 5 20 10 23 16 10 12
21 -19 54 -27 28 -28 33 -14 47 14 14 18 13 43 -13 14 -15 25 -31 23 -35 -12
-24 20 3 77 65 36 39 59 67 53 63 -16 -9 -17 6 -1 22 15 15 32 16 23 1 -14
-21 30 13 50 39 15 21 15 24 2 13 -26 -20 -20 2 6 27 28 26 45 29 26 5 -11
-15 -10 -15 8 1 13 10 21 22 18 26 -2 4 7 18 20 30 30 29 31 37 4 66 -12 13
-23 35 -24 48 -3 22 4 29 39 44 57 26 143 97 260 216 109 112 189 214 182 233
-5 12 8 25 29 30 6 1 20 5 33 9 26 7 57 -23 200 -189 45 -53 122 -131 170
-173 48 -42 95 -88 104 -103 23 -36 14 -65 -26 -79 -18 -7 -48 -25 -66 -42
-18 -16 -37 -30 -41 -30 -4 0 -85 76 -181 169 -116 114 -174 165 -177 154 -2
-10 133 -152 368 -387 l371 -371 -232 -231 c-128 -128 -251 -244 -273 -259
-22 -15 -31 -25 -20 -22 11 3 38 8 60 12 22 4 45 11 52 16 7 7 13 6 17 0 13
-21 -121 -65 -181 -60 -40 3 -112 -10 -152 -28 -38 -17 -133 -19 -159 -3 -10
5 -12 10 -7 11 30 4 41 3 47 -6 4 -6 8 -2 8 8 0 11 -8 17 -21 17 -11 0 -50 14
-87 32 -58 27 -98 62 -302 264 -229 226 -236 232 -255 216 -12 -9 -31 -36 -44
-58 l-23 -42 25 -28 c14 -16 36 -41 49 -55 41 -47 132 -114 280 -207 91 -58
149 -101 156 -117 7 -14 20 -25 31 -25 11 0 22 -4 26 -9 25 -42 280 -61 404
-30 101 25 144 41 165 62 10 9 27 17 39 17 52 0 166 53 264 122 140 99 383
351 383 399 0 17 11 24 34 20 4 -1 14 3 22 10 18 15 90 -26 122 -70 30 -40 60
-41 68 -1 4 16 10 28 14 27 5 -1 15 7 23 18 13 17 17 17 32 5 15 -12 171 141
1541 1511 1203 1203 1526 1531 1534 1558 5 19 7 37 5 39 -7 7 -36 -20 -44 -40
-3 -10 -678 -690 -1500 -1512 -877 -878 -1491 -1500 -1489 -1508 4 -10 -8 -13
-47 -11 -45 1 -54 -2 -63 -20 -7 -15 -11 -17 -11 -6 -1 8 5 24 13 34 12 17 12
23 0 47 -8 15 -22 32 -31 37 -17 10 -17 12 2 26 19 15 22 14 42 -11 l22 -28
71 72 c40 40 77 69 83 65 5 -3 7 -1 4 4 -8 12 26 54 46 57 15 2 74 46 62 46
-5 0 -17 -7 -27 -17 -10 -9 -18 -12 -18 -6 0 17 38 45 51 37 7 -4 10 -3 6 3
-3 5 39 54 94 109 109 107 151 158 125 148 -12 -5 -15 -2 -10 10 3 9 1 16 -5
16 -27 0 -10 60 30 107 23 26 466 473 985 993 794 795 972 969 1128 1098 260
216 436 403 441 471 2 24 15 42 26 35 5 -3 16 -1 24 6 10 8 19 8 33 1 23 -12
98 -102 157 -187 22 -31 60 -80 84 -108 24 -28 53 -62 65 -76 109 -128 156
-210 180 -317 20 -89 20 -102 1 -77 -19 26 -19 18 5 -44 11 -29 21 -69 22 -90
l1 -37 4 35 5 34 18 -54 c31 -91 43 -186 37 -294 -6 -109 -23 -214 -38 -232
-9 -11 -2 -24 13 -24 5 0 7 4 4 9 -5 8 19 19 36 17 20 -3 116 164 132 230 7
25 6 26 -11 14 -10 -8 -37 -31 -60 -52 -49 -44 -68 -49 -57 -15 13 42 33 74
58 90 13 9 39 47 58 84 29 60 33 77 33 148 -1 70 -5 88 -33 143 -18 34 -42 68
-53 75 -22 13 -74 105 -65 114 8 8 42 -17 111 -79 33 -30 70 -60 82 -66 29
-16 43 -86 43 -212 0 -82 -5 -114 -29 -187 -28 -88 -64 -182 -83 -217 -9 -17
-8 -17 11 -4 49 35 94 117 117 215 23 98 15 312 -16 408 -57 179 -130 281
-380 530 l-201 200 -32 -36 c-18 -19 -37 -44 -43 -55 -10 -16 -13 -17 -28 -5
-15 13 -15 15 4 33 11 10 20 23 20 29 0 5 11 22 24 36 21 23 27 25 41 13 14
-12 42 12 236 206 208 206 301 310 345 379 10 17 -12 -1 -51 -40 -39 -38 -163
-162 -277 -273 -115 -112 -208 -210 -208 -218 0 -10 -7 -13 -24 -8 -13 3 -27
1 -31 -6 -5 -8 -11 -8 -21 1 -12 10 -18 8 -29 -7 -12 -15 -14 -16 -15 -3 0 8
5 20 11 26 14 14 3 48 -22 72 -18 17 -18 19 -3 32 15 12 18 11 28 -4 6 -10 19
-28 28 -39 17 -20 19 -19 104 66 47 48 84 90 81 93 -3 2 -42 -32 -86 -78 -45
-45 -83 -80 -86 -78 -2 3 44 52 102 110 59 57 99 95 90 83 -19 -23 -22 -34 -8
-34 5 0 65 55 133 122 119 117 184 200 220 278 26 56 58 140 58 151 0 6 -29
-15 -65 -47 -36 -31 -68 -54 -71 -51 -9 9 22 59 64 104 59 63 94 145 94 221 0
50 -6 75 -32 128 -18 37 -50 83 -71 104 -39 38 -67 90 -49 90 9 0 37 -24 170
-149 l45 -43 5 -121 c6 -134 -4 -176 -46 -196 -23 -10 -36 -43 -49 -126 l-6
-40 21 25 c12 14 20 21 17 15 -55 -117 -56 -145 -5 -85 114 132 140 396 62
630 -53 159 -86 202 -379 498 -245 247 -268 274 -257 292 6 11 12 22 12 25 0
10 -39 5 -45 -5 -5 -8 -12 -7 -22 2 -12 10 -18 9 -29 -7 -11 -15 -14 -16 -14
-3 0 8 6 21 14 27 13 11 12 17 -6 47 -11 19 -24 34 -29 34 -4 0 -6 7 -3 15 9
23 26 18 54 -15 l25 -29 25 21 c16 14 19 19 8 15 -23 -8 -23 5 0 26 24 22 33
21 25 0 -3 -10 -4 -16 -2 -13 2 3 15 18 29 35 22 26 22 28 2 11 -35 -30 -26
-4 12 33 19 18 38 31 43 28 13 -8 87 58 80 70 -8 12 109 129 124 125 21 -5 98
104 136 193 49 117 50 113 -7 64 -63 -54 -90 -73 -94 -68 -10 13 20 74 52 106
45 45 62 72 86 137 38 100 3 240 -81 323 -35 35 -69 100 -59 110 8 8 42 -17
111 -79 33 -30 70 -60 81 -66 30 -16 43 -77 45 -207 1 -76 -4 -123 -14 -150
-8 -22 -20 -60 -28 -85 -7 -25 -21 -63 -32 -85 -26 -53 -38 -95 -26 -95 20 0
71 88 95 164 50 160 48 345 -7 511 -62 187 14 104 -1418 1538 -967 969 -1325
1321 -1378 1357 -89 60 -204 105 -318 125 -94 16 -239 20 -217 6 17 -10 -6
-21 -46 -21 -21 0 -24 2 -12 10 49 32 -159 -29 -244 -72 -107 -54 -146 -87
-371 -309 l-221 -219 -249 251 c-251 251 -308 300 -420 356 -112 57 -187 74
-340 78 -95 3 -130 1 -110 -5z m158 -17 c-7 -2 -21 -2 -30 0 -10 3 -4 5 12 5
17 0 24 -2 18 -5z m-1988 -73 l20 -9 -20 0 c-11 0 -29 4 -40 9 l-20 9 20 0
c11 0 29 -4 40 -9z m1875 -5 c20 -24 -3 -41 -71 -54 -34 -7 -62 -11 -64 -9 -5
5 98 76 111 77 6 1 17 -6 24 -14z m2115 5 c25 -11 -1 -11 -35 0 -20 6 -21 8
-5 8 11 0 29 -3 40 -8z m-4117 -72 c29 -29 13 -45 -60 -61 -40 -9 -74 -14 -76
-12 -3 3 108 82 119 84 3 1 10 -4 17 -11z m3993 -9 c6 -12 7 -25 2 -29 -9 -8
-135 -41 -140 -37 -3 4 109 85 119 86 4 1 12 -8 19 -20z m-2432 -62 c-2 -2
-33 -30 -69 -62 l-65 -59 60 62 c33 34 64 62 69 62 5 0 7 -1 5 -3z m460 -38
c-25 -16 -32 -9 -13 12 12 13 20 16 22 9 3 -7 -2 -16 -9 -21z m-74 -19 c-11
-5 -27 -9 -35 -9 -9 0 -8 4 5 9 11 5 27 9 35 9 9 0 8 -4 -5 -9z m218 -16 c72
-17 166 -57 179 -78 15 -22 9 -38 -12 -31 -13 4 -22 1 -25 -7 -6 -15 270 -295
286 -290 5 1 8 -4 7 -10 -2 -7 3 -12 10 -10 8 1 11 -1 8 -6 -3 -5 35 -48 84
-97 68 -67 93 -87 108 -83 13 4 23 0 26 -8 3 -8 0 -14 -6 -14 -6 0 -185 -172
-399 -381 l-389 -381 -385 377 c-278 273 -382 381 -375 390 7 9 1 11 -25 10
-30 -1 -33 1 -21 14 13 12 12 17 -2 40 -8 14 -22 31 -29 37 -11 9 -11 13 1 23
12 10 20 5 42 -28 15 -23 29 -41 33 -41 15 0 410 407 416 429 5 16 4 21 -4 17
-6 -4 -11 -2 -11 3 0 18 102 80 160 97 152 46 216 52 323 28z m-288 -4 c-27
-12 -43 -12 -25 0 8 5 22 9 30 9 10 0 8 -3 -5 -9z m-1798 -17 c4 -9 1 -19 -5
-21 -28 -9 -8 -21 46 -28 31 -3 80 -15 107 -25 28 -11 60 -19 72 -19 13 0 34
-16 55 -42 18 -23 28 -39 21 -35 -6 4 -13 3 -15 -3 -2 -6 -19 3 -39 19 -22 18
-45 29 -62 28 -38 -3 -33 -18 16 -47 23 -14 112 -94 199 -178 86 -85 158 -152
160 -150 5 5 98 -65 98 -74 0 -16 -15 -7 -60 35 l-45 42 45 -48 c34 -36 51
-47 67 -44 13 2 28 -3 35 -11 11 -13 9 -15 -14 -10 -16 3 -28 2 -28 -2 0 -12
-3074 -3090 -3086 -3090 -5 0 -103 94 -216 208 -185 185 -211 216 -242 282
-20 41 -36 84 -36 95 -1 19 -1 19 -13 -3 -7 -12 -16 -19 -20 -16 -4 4 -7 -1
-8 -12 0 -18 -1 -18 -9 1 -4 11 -8 78 -9 148 -1 128 -1 128 35 195 20 36 60
95 91 130 30 34 53 66 50 69 -4 3 -1 15 5 27 7 11 11 31 9 43 -3 28 10 51 72
133 124 161 210 253 632 678 508 514 1181 1170 1339 1306 77 67 153 133 168
147 15 15 30 24 33 21 3 -3 5 0 5 6 0 19 83 69 178 106 50 20 96 36 102 36 5
0 10 4 10 10 0 5 15 7 33 5 25 -4 28 -3 12 4 -19 9 -19 10 4 10 16 1 21 5 17
16 -3 8 -1 15 4 15 6 0 10 -4 10 -10 0 -5 10 -10 23 -9 21 0 21 1 2 9 -19 7
-18 9 8 19 16 6 32 9 36 6 5 -2 23 7 41 20 40 29 58 31 67 8z m3453 3 c0 -2
-8 -10 -17 -17 -16 -13 -17 -12 -4 4 13 16 21 21 21 13z m587 -47 c179 -24
363 -105 445 -195 104 -113 122 -137 95 -119 -15 10 -45 21 -66 25 -34 6 -38
5 -33 -12 4 -16 1 -18 -22 -12 -21 5 -26 3 -26 -11 0 -15 -2 -16 -17 -4 -10 8
516 -519 1168 -1171 653 -652 1195 -1200 1205 -1218 10 -17 26 -35 36 -38 10
-3 26 -20 35 -37 19 -38 28 -22 18 31 -4 22 -20 48 -40 68 -47 44 -97 129 -65
109 17 -11 11 9 -16 48 -39 58 -23 67 29 15 100 -100 149 -313 112 -485 -38
-177 -49 -206 -92 -250 -33 -33 -61 -45 -47 -20 4 6 -85 -79 -197 -191 l-205
-202 -1542 1546 c-849 851 -1541 1553 -1538 1559 2 7 -8 11 -29 10 -26 0 -31
2 -24 12 13 15 5 43 -22 72 -18 19 -19 25 -8 32 9 6 17 4 24 -7 6 -9 20 -28
33 -42 l22 -27 163 161 c89 89 183 182 210 207 26 25 47 48 47 52 0 4 -21 -5
-47 -19 -55 -32 -67 -28 -21 7 55 41 98 60 203 88 120 32 114 32 212 18z
m-1687 -91 c0 -3 3 -15 6 -25 5 -17 5 -17 -10 1 -9 11 -27 32 -40 47 -16 18
-21 29 -13 32 11 4 57 -40 57 -55z m410 -83 c19 -19 32 -35 29 -35 -3 0 -20
16 -39 35 -19 19 -32 35 -29 35 3 0 20 -16 39 -35z m-305 -102 l48 -58 -42 40
c-37 35 -68 75 -58 75 2 0 25 -26 52 -57z m366 40 c13 -16 12 -17 -3 -4 -10 7
-18 15 -18 17 0 8 8 3 21 -13z m40 -40 c13 -16 12 -17 -3 -4 -10 7 -18 15 -18
17 0 8 8 3 21 -13z m1889 -162 c36 -30 168 -157 293 -281 125 -124 236 -229
245 -233 17 -8 963 -953 1103 -1102 124 -133 169 -186 169 -202 0 -9 -39 27
-87 78 -192 205 -1206 1229 -1218 1229 -7 0 -75 64 -150 143 -76 78 -179 180
-229 227 -233 216 -259 242 -226 220 19 -13 64 -48 100 -79z m-2038 -90 c-8
-1 -49 31 -91 74 l-76 78 91 -74 c55 -45 85 -75 76 -78z m-1713 -80 c15 -11
64 -71 109 -134 87 -123 148 -184 216 -216 23 -12 59 -38 80 -60 44 -45 43
-69 -5 -90 -18 -8 -40 -21 -49 -30 -9 -9 -27 -22 -40 -29 -22 -13 -28 -8 -139
100 -64 62 -141 136 -171 163 -30 27 107 -113 305 -313 198 -199 364 -362 370
-362 5 0 -44 54 -109 119 -89 90 -117 123 -112 136 4 10 -1 29 -9 42 -36 54
-4 44 51 -17 33 -35 101 -104 152 -154 74 -72 90 -92 80 -103 -8 -10 -8 -17 0
-25 20 -20 13 -28 -14 -18 -32 13 -37 12 -29 0 4 -6 -70 -87 -164 -180 -94
-93 -171 -174 -171 -180 0 -5 -4 -10 -9 -10 -16 0 -2346 -2341 -2343 -2354 2
-6 0 -7 -4 -3 -5 4 -95 -79 -201 -185 l-193 -193 -368 368 -368 368 -20 -23
c-12 -13 -31 -37 -43 -55 -13 -20 -27 -30 -36 -26 -8 3 -15 1 -15 -5 0 -11
168 -184 250 -256 70 -62 93 -95 78 -113 -6 -7 -7 -13 -2 -13 5 0 -10 -9 -34
-20 -23 -10 -45 -26 -48 -35 -3 -8 -12 -15 -19 -15 -7 0 -18 -7 -26 -16 -11
-13 -35 7 -183 155 -94 94 -175 171 -179 171 -33 0 41 -83 358 -400 l365 -365
-373 -373 -372 -372 -251 252 c-211 213 -256 263 -282 317 -18 35 -32 72 -32
82 0 10 -5 21 -10 24 -18 11 -24 -26 -14 -87 11 -62 9 -68 -13 -40 -11 14 -11
10 1 -20 23 -59 8 -45 -22 20 -22 49 -26 69 -25 141 1 51 6 87 13 91 7 4 12
34 13 68 l2 60 22 -24 c26 -29 33 -30 33 -6 0 9 9 36 19 59 l20 42 -27 -10
c-15 -6 -30 -16 -34 -22 -14 -23 -9 13 7 42 8 16 18 48 21 72 4 24 17 55 29
69 13 14 49 54 82 90 32 36 103 119 158 185 55 66 122 144 148 173 59 66 114
150 119 183 2 14 10 24 20 24 9 0 20 4 24 8 4 4 13 7 20 7 14 0 103 -90 121
-123 8 -14 12 -17 13 -7 0 8 9 21 20 28 12 7 20 23 20 40 0 15 4 22 8 16 4 -7
18 4 36 30 16 22 22 35 13 27 -11 -9 -17 -10 -17 -2 0 15 -27 14 -33 -1 -4 -9
-6 -8 -6 2 -1 9 4 21 10 27 9 9 6 19 -10 42 -13 17 -27 31 -33 31 -6 0 -6 6 2
15 18 22 38 18 53 -10 13 -25 15 -23 271 235 257 258 259 260 241 281 -40 43
-32 62 74 176 55 60 477 486 940 947 462 462 838 842 837 845 -5 9 66 72 254
223 96 78 217 184 268 236 104 107 202 232 202 257 0 11 5 15 15 12 8 -4 17
-2 20 3 10 16 45 11 74 -9z m210 5 c9 -10 6 -17 -12 -29 -13 -8 -30 -29 -37
-46 -12 -31 -33 -40 -45 -21 -3 6 0 12 7 15 8 3 25 26 38 50 27 49 32 52 49
31z m1859 -2 c13 -9 68 -76 123 -149 54 -74 118 -150 142 -169 23 -19 96 -80
162 -134 131 -107 250 -232 260 -274 4 -14 26 -39 50 -57 44 -32 1717 -1712
1723 -1731 2 -5 -1 -10 -6 -10 -6 0 -408 400 -894 889 -934 940 -879 890 -992
917 -27 7 -29 5 -22 -20 7 -28 4 -31 -22 -17 -11 6 -23 5 -35 -4 -16 -12 107
-138 1245 -1277 695 -695 1194 -1194 1109 -1107 -114 116 -152 161 -147 174 3
10 -2 27 -14 42 -22 28 -26 53 -10 53 6 0 27 -19 48 -42 20 -24 107 -114 192
-201 123 -125 152 -160 140 -167 -12 -7 -12 -12 -2 -22 17 -17 15 -29 -4 -21
-12 4 -124 -102 -406 -383 l-389 -389 -1537 1540 c-845 847 -1533 1534 -1528
1527 4 -7 2 -12 -4 -12 -6 0 -25 -20 -42 -46 -27 -37 -37 -44 -56 -39 -20 5
-14 -7 37 -68 63 -76 70 -83 260 -257 138 -126 267 -272 274 -309 4 -17 21
-39 44 -56 35 -26 1272 -1260 1586 -1583 76 -79 136 -146 133 -150 -4 -3 -408
395 -899 885 l-892 891 -53 11 c-72 15 -75 14 -63 -8 13 -24 3 -33 -22 -19
-16 8 -22 8 -25 -1 -2 -6 -9 -11 -15 -11 -6 0 -133 120 -282 267 -148 147 418
-422 1260 -1265 1425 -1426 1532 -1532 1565 -1533 30 -2 31 -3 7 -6 -15 -2
-25 -8 -23 -12 3 -4 -690 -704 -1540 -1557 l-1544 -1549 -1533 1537 -1532
1538 -33 -37 c-17 -20 -32 -42 -32 -48 0 -16 -27 -27 -35 -15 -6 10 69 121 79
115 3 -3 4 -2 1 2 -3 3 1 13 7 20 9 12 9 14 -3 13 -31 -5 -48 0 -43 13 2 7 -6
30 -20 50 -17 24 -21 39 -14 43 6 4 17 -2 24 -12 8 -10 22 -29 31 -42 l17 -23
262 262 c145 145 261 265 259 267 -2 3 0 13 6 24 10 18 9 19 -13 7 -23 -12
-23 -12 2 15 14 15 21 27 15 25 -5 -1 -22 1 -37 5 -47 13 -37 47 38 129 37 40
461 468 943 952 482 484 881 889 887 900 6 11 20 25 32 31 12 6 40 26 64 46
24 20 86 71 138 114 191 157 451 434 455 484 2 25 14 40 29 34 8 -3 17 -1 21
5 13 22 39 9 95 -49 l58 -60 26 21 c20 16 26 28 23 48 -2 14 -2 20 0 14 5 -15
23 -17 23 -3 0 5 12 20 26 33 l26 25 -28 -2 c-16 -1 -35 -5 -41 -9 -16 -10
-16 -2 -3 24 13 23 -15 79 -39 79 -11 0 -11 4 3 19 19 21 46 18 46 -4 0 -36
28 -21 105 55 47 47 84 77 87 70 6 -18 72 26 133 90 48 49 49 52 31 66 -11 8
-16 14 -12 14 4 0 -6 16 -24 36 -18 21 -29 43 -26 51 3 8 6 18 6 22 0 4 15 13
34 19 81 29 212 142 334 287 81 95 107 135 103 154 -1 8 3 12 12 8 7 -3 20 -1
28 4 21 13 42 11 67 -7z m193 -33 c-15 -14 -31 -36 -35 -49 -8 -22 -40 -30
-51 -12 -3 6 -1 10 4 10 6 0 27 23 47 50 29 40 39 48 50 39 11 -9 9 -16 -15
-38z m-911 -405 c0 -2 -8 -10 -17 -17 -16 -13 -17 -12 -4 4 13 16 21 21 21 13z
m-4031 -180 c-2 -3 -162 -164 -354 -358 -394 -397 -512 -519 -604 -628 -35
-41 -84 -99 -109 -128 -25 -29 -54 -65 -66 -80 -11 -15 -25 -32 -31 -38 -34
-36 -97 -149 -119 -214 -25 -78 -45 -212 -47 -315 l0 -60 -16 49 c-11 38 -12
59 -4 90 5 23 12 66 15 97 6 57 47 183 84 255 16 32 139 195 162 214 3 3 44
50 92 105 122 142 118 138 571 597 227 230 416 417 421 418 5 0 7 -2 5 -4z
m3605 -151 c21 -14 40 -93 32 -135 -3 -19 -15 -50 -26 -68 -17 -27 -22 -31
-34 -20 -12 11 -11 16 6 35 29 31 19 83 -30 153 -51 73 -58 85 -44 76 16 -10
15 7 0 24 -7 7 8 -2 33 -21 26 -19 54 -38 63 -44z m-1796 46 c-9 -26 -1844
-1854 -1900 -1893 -61 -44 -153 -85 -193 -89 -11 -1 -38 -1 -60 0 l-40 1 42
42 c42 42 42 42 120 43 66 0 86 5 133 30 44 23 242 216 975 952 505 508 921
923 923 923 2 0 2 -4 0 -9z m1122 -946 c0 -16 -1930 -1955 -1946 -1955 -5 0
411 421 926 936 514 515 953 958 975 985 46 54 45 54 45 34z m-4090 -315 c-32
-28 -38 -25 -10 5 13 14 26 23 28 20 3 -3 -5 -14 -18 -25z m-443 -215 c-4 -27
-2 -37 12 -45 10 -5 20 -7 23 -5 2 3 20 -8 39 -24 l34 -29 -27 3 c-15 2 -31 6
-36 9 -12 7 -25 -93 -21 -155 2 -27 -1 -44 -9 -47 -9 -3 -11 16 -6 75 3 43 7
91 9 107 4 24 2 28 -15 23 -18 -5 -20 0 -20 52 0 52 5 71 18 71 3 0 2 -16 -1
-35z m10220 -273 c4 -27 -18 -90 -34 -96 -10 -4 -13 -1 -9 12 3 9 8 31 11 47
15 69 25 81 32 37z m-9897 -123 c8 -12 53 -47 100 -79 105 -72 382 -347 405
-403 36 -86 29 -202 -14 -241 -17 -16 -19 -16 -25 0 -4 11 -1 21 9 26 10 6 15
24 15 57 0 53 -30 108 -109 201 -26 30 -67 82 -91 115 -58 80 -183 205 -244
244 -35 21 -53 41 -62 66 -13 39 -6 46 16 14z m8734 -79 c69 -33 132 -60 140
-60 8 0 17 -4 20 -9 3 -4 28 -11 56 -15 50 -7 56 -11 195 -150 103 -101 145
-151 149 -172 21 -114 16 -181 -20 -228 -22 -30 -42 -5 -20 25 41 60 -7 160
-144 300 -65 66 -125 112 -284 216 -134 88 -176 108 -176 81 0 -15 -59 44 -60
60 0 20 13 15 144 -48z m-8764 -247 c30 -26 49 -40 41 -30 -7 9 -9 17 -3 17 5
0 14 -13 20 -28 5 -16 72 -93 148 -171 120 -124 136 -144 120 -153 -17 -9 -17
-11 0 -29 9 -10 13 -19 8 -18 -16 1 -79 27 -68 28 6 1 -63 74 -152 164 -119
119 -160 165 -152 174 7 9 4 23 -11 46 -39 63 -24 63 49 0z m9820 -100 c0 -5
-17 -21 -37 -37 -37 -30 -37 -20 0 22 20 22 37 29 37 15z m-418 -323 c14 -11
61 -66 104 -122 43 -57 139 -175 212 -263 131 -156 160 -199 187 -276 10 -29
11 -39 2 -42 -9 -3 -8 -8 2 -20 12 -15 11 -17 -6 -17 -10 0 -26 9 -36 20 -9
11 -28 20 -41 20 -24 0 -23 -1 17 -64 42 -65 57 -78 57 -51 0 8 4 15 10 15 18
0 42 -64 46 -124 4 -51 3 -57 -7 -38 -19 36 -32 26 -25 -20 9 -62 -9 -154 -45
-228 -27 -55 -69 -102 -283 -318 l-251 -252 -372 372 -373 373 369 370 c366
368 426 435 350 395 -10 -6 -19 -18 -19 -26 0 -9 -109 -125 -242 -259 -134
-133 -285 -286 -336 -338 -92 -95 -104 -102 -165 -98 -10 1 -16 5 -12 11 3 5
-6 27 -19 49 -18 29 -22 42 -14 47 7 4 14 2 16 -5 2 -6 15 -25 30 -42 l25 -31
159 159 c97 97 158 165 158 177 0 11 -16 37 -36 57 -28 29 -34 41 -29 62 4 15
16 28 30 31 101 25 470 407 441 455 -3 5 1 14 9 21 8 7 15 9 15 6 0 -4 8 -2
18 3 23 14 26 14 54 -9z m218 -42 c-12 -10 -20 -24 -17 -32 4 -9 1 -13 -7 -10
-7 3 -18 -7 -24 -21 -10 -22 -15 -24 -32 -15 -25 13 -25 15 1 41 12 12 19 29
16 40 -3 11 -1 16 5 13 5 -3 16 4 25 16 14 21 16 21 35 3 19 -17 19 -18 -2
-35z m-7350 -252 c0 -8 -7 -16 -15 -20 -12 -4 -13 -2 -2 14 14 24 17 25 17 6z
m-40 -20 c0 -8 -7 -17 -16 -20 -10 -4 -13 -2 -9 7 4 6 -1 3 -9 -7 -10 -13 -16
-15 -16 -7 0 11 -3 11 -15 1 -10 -9 -15 -9 -15 -1 0 6 -4 11 -10 11 -5 0 -9
-6 -7 -12 1 -7 -6 -12 -15 -10 -12 2 -18 -4 -19 -15 0 -10 -3 -13 -6 -6 -3 8
-13 4 -30 -13 -14 -14 -28 -23 -31 -20 -3 3 5 14 17 25 12 11 18 22 13 25 -5
3 -12 14 -15 25 -4 16 -1 18 22 12 35 -9 101 -5 131 7 14 6 26 11 28 11 1 1 2
-5 2 -13z m-195 -26 c-3 -5 -12 -10 -18 -10 -7 0 -6 4 3 10 19 12 23 12 15 0z
m-2055 -53 c0 -2 -10 -12 -22 -23 l-23 -19 19 23 c18 21 26 27 26 19z m8720
-71 c0 -2 -8 -10 -17 -17 -16 -13 -17 -12 -4 4 13 16 21 21 21 13z m-7497 -47
c20 -5 37 -15 37 -21 0 -6 -3 -8 -7 -5 -3 4 -12 2 -20 -5 -7 -6 -16 -8 -20 -4
-3 3 -1 6 5 6 7 0 12 4 12 10 0 5 -7 7 -15 4 -9 -4 -15 0 -15 7 0 9 -3 10 -8
4 -4 -6 -27 -11 -52 -11 l-45 -1 30 13 c37 16 50 17 98 3z m106 -60 l36 -44
-47 40 c-45 39 -60 61 -36 53 6 -2 27 -24 47 -49z m6505 -119 c80 -92 102
-126 53 -82 -19 16 -20 16 -9 -3 6 -11 43 -51 83 -90 54 -53 67 -62 53 -37
-10 17 -21 32 -25 32 -4 0 -9 7 -13 15 -3 8 -4 15 -3 15 1 0 32 -30 67 -66 36
-37 57 -64 46 -60 -10 3 -25 1 -33 -6 -12 -9 -38 12 -148 122 -94 94 -134 140
-133 155 1 11 -12 42 -30 67 -68 100 -18 66 92 -62z m-6676 -44 c41 -50 54
-72 41 -69 -10 3 -19 4 -19 1 0 -2 34 -37 76 -78 67 -66 91 -80 46 -27 -8 9
-13 19 -10 22 2 2 24 -16 49 -42 25 -26 36 -43 25 -39 -10 3 -25 1 -33 -6 -12
-9 -33 7 -119 93 -75 75 -103 109 -100 122 2 11 -4 33 -15 50 -10 18 -19 35
-19 40 0 20 22 0 78 -67z m-1218 -141 c-6 -30 -16 -53 -21 -50 -13 8 -11 24 8
86 20 66 29 42 13 -36z m-263 -142 c-3 -10 -5 -2 -5 17 0 19 2 27 5 18 2 -10
2 -26 0 -35z m1691 20 c-10 -2 -28 -2 -40 0 -13 2 -5 4 17 4 22 1 32 -1 23 -4z
m417 -168 c100 -133 150 -185 260 -274 167 -134 319 -292 328 -340 4 -17 21
-38 45 -55 41 -28 1724 -1718 1731 -1737 2 -8 -2 -8 -16 -1 -10 6 -415 408
-898 894 -927 931 -903 908 -988 908 -20 0 -24 -4 -20 -20 6 -22 -3 -25 -26
-11 -10 7 -18 5 -26 -5 -8 -12 -59 34 -265 241 -140 141 -263 261 -272 266
-15 8 -18 6 -18 -13 0 -17 393 -416 1532 -1555 843 -843 1530 -1534 1528
-1537 -85 -91 -738 -736 -745 -736 -6 0 -697 686 -1534 1525 -1327 1329 -1525
1523 -1542 1515 -10 -6 -29 -28 -41 -50 -24 -42 -36 -48 -56 -28 -10 10 -8 16
7 28 11 8 21 21 23 29 2 8 14 26 28 41 14 14 32 34 40 45 14 19 14 19 -3 6
-16 -12 -20 -13 -27 -1 -7 11 -11 11 -24 1 -13 -11 -16 -11 -16 2 0 8 5 17 11
19 14 5 -16 68 -31 68 -14 0 -12 27 2 36 6 4 21 -5 34 -22 l24 -29 102 100
103 100 -88 -91 c-48 -49 -84 -94 -80 -99 4 -4 3 -5 -3 -2 -7 4 -17 0 -24 -8
-26 -31 16 -15 47 18 17 17 85 86 152 152 133 132 137 141 84 196 -34 37 -28
69 17 90 123 57 425 367 441 453 3 12 13 20 26 21 13 1 26 5 29 8 14 14 65
-38 149 -148z m6622 117 c21 -20 73 -84 117 -141 61 -80 103 -122 191 -192 62
-49 116 -96 119 -105 14 -36 5 -52 -39 -74 -25 -12 -45 -25 -45 -30 0 -4 -12
-15 -26 -25 l-26 -17 -174 173 c-96 95 -176 170 -179 168 -2 -3 161 -170 362
-372 202 -201 369 -364 371 -362 2 2 -49 56 -113 121 -90 92 -115 122 -111
138 3 12 -2 30 -10 40 -18 25 -18 36 0 36 7 0 42 -34 77 -76 35 -42 100 -110
144 -150 64 -60 77 -76 65 -84 -12 -7 -12 -12 -2 -22 18 -18 15 -30 -6 -24
-14 5 -50 -25 -145 -121 -175 -177 -236 -246 -230 -257 4 -5 2 -6 -4 -3 -5 3
-621 -606 -1369 -1353 -747 -748 -1363 -1360 -1369 -1360 -6 0 -33 23 -60 50
-27 28 -53 50 -57 50 -4 0 6 -14 22 -30 58 -59 90 -139 90 -226 0 -54 -3 -63
-29 -88 -36 -35 -51 -18 -20 23 l22 30 -26 53 c-84 168 -390 415 -432 348 -3
-5 -14 -10 -23 -10 -15 0 -15 2 1 18 14 14 34 17 97 15 65 -1 90 -6 147 -33
75 -36 105 -58 97 -71 -3 -5 2 -6 10 -3 9 3 16 7 16 8 0 0 -136 136 -302 301
-166 165 -299 296 -295 291 3 -5 -5 -17 -19 -28 -13 -11 -31 -33 -39 -49 -9
-17 -24 -29 -35 -29 -11 0 -20 2 -20 4 0 2 -3 11 -6 20 -4 10 -1 16 10 16 20
0 36 31 30 61 -4 20 -3 21 4 5 8 -19 9 -19 24 3 9 12 21 19 30 16 8 -3 22 3
32 13 16 18 16 20 0 26 -9 3 -23 1 -31 -6 -11 -9 -16 -9 -23 3 -8 11 -12 11
-24 -6 -14 -18 -15 -18 -16 -2 0 10 6 20 14 23 12 5 11 12 -6 40 -11 19 -24
34 -29 34 -16 0 -9 28 8 34 16 7 36 -9 46 -38 3 -6 22 6 44 27 22 20 43 34 48
30 4 -5 5 -3 2 3 -8 14 140 161 157 156 6 -2 7 0 3 4 -9 10 123 145 135 138 5
-3 7 0 6 8 -2 7 3 12 10 10 8 -1 11 2 8 7 -7 11 72 87 86 83 5 -1 7 2 3 8 -4
6 -1 18 6 26 10 12 8 19 -7 37 -46 52 -75 19 902 997 503 504 914 920 915 925
1 17 119 123 264 237 207 164 489 458 499 521 3 23 17 36 30 31 8 -3 17 -1 21
5 10 18 22 13 62 -27z m205 -9 c-7 -3 -26 -25 -43 -50 -22 -32 -34 -42 -42
-34 -7 7 -6 16 6 29 9 10 17 22 17 26 0 4 10 20 23 36 20 25 24 26 37 13 12
-12 12 -16 2 -20z m1423 -60 c7 -76 -11 -151 -48 -190 -30 -34 -41 -29 -32 15
4 20 8 51 9 69 2 17 8 38 14 45 6 8 8 25 5 38 -4 15 -2 21 5 17 6 -5 13 8 17
33 10 60 22 49 30 -27z m-10358 0 c-3 -10 -5 -2 -5 17 0 19 2 27 5 18 2 -10 2
-26 0 -35z m10244 -140 c-22 -42 -27 -29 -10 31 9 33 13 37 20 23 7 -12 4 -28
-10 -54z m-8961 -248 c-7 -8 -17 -15 -23 -15 -5 0 -2 9 8 20 21 23 35 19 15
-5z m7960 -37 c0 -4 -4 -8 -9 -8 -6 0 -12 4 -15 8 -3 5 1 9 9 9 8 0 15 -4 15
-9z m34 -3 c-4 -8 -9 -15 -13 -15 -4 0 -8 7 -8 15 0 8 6 15 13 15 8 0 11 -6 8
-15z m-74 1 c0 -2 -8 -10 -17 -17 -16 -13 -17 -12 -4 4 13 16 21 21 21 13z
m206 -52 c30 -29 54 -49 54 -47 0 3 9 -6 21 -21 11 -14 25 -24 30 -21 5 4 9 0
9 -7 0 -13 32 -47 58 -62 7 -4 20 -2 29 6 14 10 15 10 9 0 -6 -9 -3 -12 9 -10
10 2 20 -3 23 -11 3 -9 -1 -11 -17 -6 -17 5 -20 3 -14 -11 4 -12 3 -15 -6 -10
-7 5 -10 15 -6 25 5 12 4 13 -6 4 -10 -10 -9 -15 1 -27 7 -9 16 -14 20 -11 5
3 10 2 13 -2 2 -5 2 -2 0 5 -1 8 2 12 9 10 6 -2 13 -15 15 -28 2 -14 8 -29 13
-34 18 -18 11 -104 -11 -151 -12 -25 -25 -45 -30 -45 -17 0 -20 21 -5 36 37
36 3 147 -68 227 -19 21 -36 41 -38 45 -2 4 -23 25 -48 47 -25 22 -44 42 -42
45 1 3 -4 5 -10 5 -7 1 -12 6 -10 13 1 7 -6 12 -16 12 -9 0 -35 12 -56 26 -29
20 -35 28 -25 35 8 5 9 9 4 9 -6 0 -16 -5 -23 -12 -7 -7 -12 -8 -12 -2 0 18
11 23 42 21 21 -1 47 -18 84 -53z m-9012 -102 c39 -42 120 -126 181 -186 80
-81 105 -112 92 -114 -19 -4 -23 -17 -7 -27 21 -13 9 -21 -24 -17 -21 2 -33 9
-30 16 2 6 -61 76 -141 156 -134 134 -163 170 -134 170 6 0 -3 18 -20 39 -17
21 -31 44 -31 50 0 22 41 -9 114 -87z m9896 94 c0 -2 -8 -10 -17 -17 -16 -13
-17 -12 -4 4 13 16 21 21 21 13z m-9530 -138 c36 -38 71 -68 78 -68 6 0 12 -5
12 -11 0 -5 6 -7 13 -3 9 5 9 4 0 -6 -10 -11 -15 -11 -29 1 -16 13 -16 12 -6
-8 7 -12 22 -23 34 -25 42 -6 46 -118 7 -169 -16 -20 -20 -22 -28 -9 -7 10 -6
17 4 23 32 17 2 164 -38 189 -9 6 -9 8 1 8 10 0 10 3 0 14 -7 8 -16 12 -19 10
-4 -2 -14 7 -22 20 -9 13 -22 30 -29 38 -7 8 -31 34 -53 58 -57 63 -3 18 75
-62z m9470 78 c0 -2 -8 -10 -17 -17 -16 -13 -17 -12 -4 4 13 16 21 21 21 13z
m-679 -23 c13 -16 12 -17 -3 -4 -10 7 -18 15 -18 17 0 8 8 3 21 -13z m-1612
-7 c-816 -823 -1918 -1923 -1958 -1955 -88 -68 -173 -103 -311 -126 l-35 -5
52 52 52 52 78 1 c66 1 88 6 133 30 44 23 247 221 1016 992 529 530 965 963
969 963 5 0 6 -2 4 -4z m1646 -16 c3 -5 -1 -10 -10 -10 -9 0 -13 5 -10 10 3 6
8 10 10 10 2 0 7 -4 10 -10z m605 6 c0 -2 -8 -10 -17 -17 -16 -13 -17 -12 -4
4 13 16 21 21 21 13z m-9220 -372 c17 -15 57 -61 89 -103 68 -89 181 -206 266
-277 133 -109 335 -328 335 -362 0 -13 15 -32 38 -48 61 -45 1732 -1727 1732
-1743 0 -9 -402 386 -892 876 -837 837 -896 894 -943 908 -70 21 -84 20 -78
-6 5 -19 3 -21 -19 -16 -19 5 -28 2 -32 -10 -5 -13 -70 46 -277 253 -148 148
-273 270 -278 272 -5 1 -6 -10 -4 -25 4 -21 389 -412 1532 -1556 l1526 -1528
-200 -198 c-164 -162 -213 -205 -270 -235 -38 -21 -61 -34 -50 -30 11 3 36 10
56 14 19 3 41 10 47 14 7 4 12 1 12 -7 0 -15 -37 -27 -145 -48 -33 -6 -79 -18
-103 -27 -49 -17 -225 -12 -290 9 -102 33 -192 89 -192 119 0 13 3 12 75 -5
33 -8 76 -14 95 -15 34 0 -22 57 -1246 1283 -1263 1263 -1282 1283 -1318 1358
-20 42 -36 87 -37 100 l-1 24 -8 -25 c-11 -37 14 -159 46 -222 8 -15 15 -31
15 -35 2 -14 41 -86 76 -141 19 -31 32 -61 28 -71 -3 -11 12 -35 47 -72 29
-30 128 -136 219 -235 192 -206 1328 -1345 1535 -1539 209 -195 323 -310 287
-289 -60 36 -231 199 -842 803 -654 645 -990 989 -1174 1204 -63 72 -127 143
-142 157 -56 52 -98 122 -127 213 -43 137 -52 227 -33 339 32 198 66 271 204
443 31 39 75 95 98 125 23 30 69 87 103 125 80 92 140 182 140 210 0 13 7 26
16 29 10 4 13 2 8 -7 -4 -6 2 -4 12 6 24 22 27 22 64 -9z m-665 -354 c-5 -28
-4 -30 15 -20 19 10 19 10 -1 -24 -11 -20 -18 -40 -15 -45 4 -5 2 -12 -4 -16
-5 -3 -10 1 -10 9 0 9 -5 16 -11 16 -5 0 -8 4 -5 9 4 5 1 22 -4 37 -8 21 -7
31 6 45 25 27 35 23 29 -11z m8659 -312 c-44 -50 -1865 -1869 -1922 -1921 -63
-55 -153 -106 -222 -126 -51 -14 -130 -23 -130 -15 0 4 19 26 43 49 42 42 43
43 113 42 82 -1 131 19 211 85 28 24 469 462 980 975 510 512 932 932 937 932
5 1 1 -9 -10 -21z m-8613 -42 c10 6 7 -16 -11 -81 -5 -16 -11 -43 -15 -60 -7
-29 -8 -29 -16 -8 -5 14 -2 57 9 115 12 65 18 83 20 60 2 -18 8 -30 13 -26z
m-297 -61 c-5 -29 -3 -35 10 -35 9 0 22 -5 29 -10 56 -47 61 -51 45 -46 -10 3
-20 0 -24 -6 -5 -7 -11 -6 -19 6 -11 14 -14 2 -18 -66 -4 -46 -5 -93 -4 -105
1 -12 -2 -21 -8 -20 -5 1 -9 13 -9 27 8 149 7 165 -7 165 -14 0 -26 83 -15
111 11 30 27 14 20 -21z m4664 -881 c64 -31 151 -72 192 -92 105 -50 174 -99
252 -179 71 -72 98 -121 119 -215 13 -62 5 -113 -25 -153 -11 -16 -17 -17 -27
-8 -9 9 -8 15 5 28 28 29 20 77 -26 145 -63 95 -239 266 -365 355 -153 108
-193 130 -214 117 -13 -8 -21 -5 -38 14 -25 29 -27 44 -5 44 8 0 68 -25 132
-56z m25 -261 c34 -38 122 -129 195 -204 84 -86 129 -139 120 -142 -10 -3 -11
-8 0 -26 15 -26 16 -39 0 -23 -7 7 -26 12 -42 12 -19 0 -26 3 -19 8 8 5 -39
59 -146 166 -117 117 -157 163 -154 177 3 10 -4 34 -16 52 -12 19 -21 37 -21
41 0 19 28 -1 83 -61z m-1027 -794 c283 -134 300 -144 395 -237 76 -75 92 -96
114 -155 31 -85 33 -157 4 -198 -11 -16 -27 -29 -35 -29 -18 0 -17 10 1 34 8
11 15 28 15 38 0 78 -185 284 -391 436 -153 113 -229 153 -229 120 0 -6 -13 1
-30 17 -71 68 -24 60 156 -26z m924 -69 c44 -22 100 -26 118 -8 9 9 12 8 12
-4 0 -29 -52 -40 -144 -33 -47 4 -86 10 -86 13 0 9 43 52 52 52 5 0 26 -9 48
-20z m-974 -128 c45 -44 151 -169 123 -146 -13 12 -32 24 -42 27 -16 6 -16 5
-1 -26 9 -17 26 -42 37 -54 11 -13 17 -23 12 -23 -17 0 -154 155 -145 164 5 4
0 22 -11 40 -33 54 -19 63 27 18z m2188 -119 c21 -27 82 -94 137 -149 98 -101
114 -122 83 -110 -12 4 -10 -1 5 -23 28 -39 27 -41 -14 -29 -19 6 -32 14 -30
18 2 3 -53 63 -122 133 -108 109 -124 129 -113 142 10 12 10 19 2 27 -7 7 -12
18 -12 25 0 27 29 11 64 -34z m-1154 -37 c0 -2 -7 -9 -15 -16 -13 -11 -14 -10
-9 4 5 14 24 23 24 12z m-859 -33 c13 -16 12 -17 -3 -4 -17 13 -22 21 -14 21
2 0 10 -8 17 -17z m739 -88 c-29 -30 -56 -52 -59 -49 -6 6 90 102 104 103 5 1
-15 -24 -45 -54z m-659 8 c13 -16 12 -17 -3 -4 -10 7 -18 15 -18 17 0 8 8 3
21 -13z m35 -90 c68 -50 91 -80 52 -69 -13 3 -32 6 -43 6 -13 0 -16 3 -8 8 8
5 -2 22 -32 55 -25 26 -42 47 -39 47 3 0 35 -21 70 -47z m43 4 c12 -15 12 -17
-3 -11 -9 3 -16 13 -16 22 0 8 1 13 3 11 1 -2 9 -12 16 -22z m478 -129 c-3 -8
-6 -5 -6 6 -1 11 2 17 5 13 3 -3 4 -12 1 -19z"/>
<path d="M3318 10373 c7 -3 16 -2 19 1 4 3 -2 6 -13 5 -11 0 -14 -3 -6 -6z"/>
<path d="M481 7564 c0 -11 3 -14 6 -6 3 7 2 16 -1 19 -3 4 -6 -2 -5 -13z"/>
<path d="M7154 10250 c-53 -31 -85 -60 -66 -60 5 0 16 7 23 16 7 9 36 29 64
45 27 16 46 29 40 29 -5 0 -33 -14 -61 -30z"/>
<path d="M10293 7496 c4 -10 7 -50 8 -89 l1 -72 12 55 c13 62 7 111 -13 118
-10 3 -12 0 -8 -12z"/>
<path d="M10264 7228 c-4 -13 -18 -41 -32 -63 l-25 -40 26 24 c26 23 54 87 44
97 -3 3 -8 -5 -13 -18z"/>
<path d="M1719 6983 c-13 -16 -12 -17 4 -4 9 7 17 15 17 17 0 8 -8 3 -21 -13z"/>
<path d="M1679 6943 c-13 -16 -12 -17 4 -4 9 7 17 15 17 17 0 8 -8 3 -21 -13z"/>
<path d="M1479 6743 c-13 -16 -12 -17 4 -4 16 13 21 21 13 21 -2 0 -10 -8 -17
-17z"/>
<path d="M1439 6703 c-13 -16 -12 -17 4 -4 9 7 17 15 17 17 0 8 -8 3 -21 -13z"/>
<path d="M1359 6623 c-13 -16 -12 -17 4 -4 9 7 17 15 17 17 0 8 -8 3 -21 -13z"/>
<path d="M985 6160 c3 -5 8 -10 11 -10 2 0 4 5 4 10 0 6 -5 10 -11 10 -5 0 -7
-4 -4 -10z"/>
<path d="M6735 9250 c99 -99 182 -180 185 -180 3 0 -76 81 -175 180 -99 99
-182 180 -185 180 -3 0 76 -81 175 -180z"/>
<path d="M5759 8962 c-50 -52 -41 -47 35 22 16 14 27 28 24 31 -2 2 -29 -21
-59 -53z"/>
<path d="M5374 8488 l-19 -23 23 19 c21 18 27 26 19 26 -2 0 -12 -10 -23 -22z"/>
<path d="M5330 6813 c-36 -37 -53 -57 -39 -45 l26 23 5 -24 c3 -13 6 -56 7
-96 l2 -71 -31 0 c-18 0 -29 -4 -25 -10 3 -5 1 -10 -4 -10 -6 0 -11 6 -11 13
-1 7 -6 5 -14 -5 -7 -10 -17 -18 -21 -18 -4 0 -2 7 5 15 25 30 -9 14 -52 -24
-41 -38 -64 -48 -38 -16 7 8 9 15 5 15 -4 0 -2 7 5 15 7 8 16 13 20 10 4 -2
15 4 24 14 16 18 16 19 -11 17 -15 -1 -35 -5 -43 -10 -9 -6 -7 -1 4 13 12 13
22 18 26 11 5 -7 11 -6 20 5 11 13 10 14 -6 8 -17 -6 -17 -5 -5 10 7 9 18 14
25 10 6 -3 8 -2 3 2 -4 5 7 25 25 44 18 20 -267 -261 -632 -624 -625 -620
-663 -660 -637 -665 17 -3 35 -16 43 -30 13 -21 14 -22 9 -3 -9 34 14 38 46 7
16 -15 29 -31 29 -36 0 -11 -37 -10 -44 1 -3 4 -17 6 -30 4 -17 -4 -28 1 -38
16 -13 21 -38 28 -52 14 -9 -9 1424 -1443 1442 -1443 8 0 12 4 10 9 -1 5 -115
123 -252 261 -136 138 -246 254 -242 257 3 3 12 0 21 -7 11 -9 15 -9 15 -1 0
7 -70 84 -155 173 -151 156 -216 231 -183 212 8 -5 109 -100 224 -211 115
-111 212 -199 217 -194 7 7 98 264 111 312 2 9 9 25 14 35 34 64 101 240 127
334 13 47 29 102 36 123 11 34 11 40 -4 48 -26 15 -20 34 19 64 42 32 51 28
29 -14 -22 -43 -5 -39 65 14 32 25 63 45 69 45 18 0 134 -57 156 -77 81 -72
104 -147 100 -329 -2 -96 3 -158 17 -235 11 -57 22 -117 24 -134 3 -16 10 -40
16 -52 6 -12 8 -33 6 -48 -4 -18 0 -29 13 -36 15 -8 17 -6 12 7 -4 10 -1 14
10 12 9 -2 63 43 127 106 87 84 115 105 122 95 8 -11 9 -11 5 2 -5 15 107 141
158 178 11 8 -18 -24 -65 -72 -46 -48 -80 -87 -75 -87 10 0 79 65 464 438 157
152 209 208 195 210 -57 9 -66 13 -55 26 6 7 8 16 4 19 -5 6 43 11 100 10 12
0 -262 280 -700 719 -395 395 -720 718 -723 718 -3 0 -35 -30 -70 -67z m-1230
-1328 c-24 -25 -46 -45 -49 -45 -3 0 15 20 39 45 24 25 46 45 49 45 3 0 -15
-20 -39 -45z m1150 -55 c0 -5 -5 -10 -11 -10 -5 0 -7 5 -4 10 3 6 8 10 11 10
2 0 4 -4 4 -10z"/>
<path d="M6856 5414 c-8 -20 -8 -24 2 -24 4 0 8 9 9 20 2 24 -3 26 -11 4z"/>
<path d="M6153 4678 c-387 -387 -703 -699 -703 -694 0 5 -9 1 -20 -9 -20 -18
-27 -45 -12 -45 4 0 333 326 732 725 399 399 721 725 715 725 -5 0 -326 -316
-712 -702z"/>
<path d="M6060 4695 c-11 -13 -10 -14 4 -9 9 3 16 10 16 15 0 13 -6 11 -20 -6z"/>
<path d="M9970 6005 c13 -14 26 -25 28 -25 3 0 -5 11 -18 25 -13 14 -26 25
-28 25 -3 0 5 -11 18 -25z"/>
<path d="M2515 6090 c3 -5 11 -10 16 -10 6 0 7 5 4 10 -3 6 -11 10 -16 10 -6
0 -7 -4 -4 -10z"/>
<path d="M2022 5143 c-7 -2 -17 -14 -24 -26 -10 -20 -10 -21 5 -9 9 8 21 11
27 7 6 -3 10 3 10 14 0 12 -1 21 -2 20 -2 0 -9 -3 -16 -6z"/>
<path d="M8731 5131 c-12 -12 -21 -26 -21 -33 0 -7 -632 -645 -1405 -1418
-772 -773 -1443 -1444 -1490 -1491 -47 -47 -85 -92 -85 -100 0 -20 3019 3001
3026 3029 9 32 -1 37 -25 13z"/>
<path d="M6120 2600 c-9 -6 -10 -10 -3 -10 6 0 15 5 18 10 8 12 4 12 -15 0z"/>
<path d="M6082 2564 c-7 -8 -8 -14 -3 -14 10 0 25 19 20 25 -2 1 -10 -3 -17
-11z"/>
<path d="M6009 2483 c-13 -16 -12 -17 4 -4 9 7 17 15 17 17 0 8 -8 3 -21 -13z"/>
<path d="M5921 2397 c-13 -21 -12 -21 5 -5 10 10 16 20 13 22 -3 3 -11 -5 -18
-17z"/>
<path d="M5842 2324 c-7 -8 -8 -14 -3 -14 10 0 25 19 20 25 -2 1 -10 -3 -17
-11z"/>
<path d="M5762 2244 c-7 -8 -8 -14 -3 -14 10 0 25 19 20 25 -2 1 -10 -3 -17
-11z"/>
<path d="M5685 2166 c-23 -25 -26 -40 -4 -19 12 12 21 24 18 27 -2 2 -9 -1
-14 -8z"/>
<path d="M9442 4871 c-10 -6 -10 -11 3 -21 12 -10 15 -10 15 0 0 8 3 10 8 6 4
-4 7 -13 7 -18 0 -6 6 -13 13 -16 11 -3 12 0 4 15 -16 29 -36 43 -50 34z"/>
<path d="M969 4083 c-13 -16 -18 -23 -10 -16 7 6 20 9 27 6 9 -3 14 2 14 16 0
27 -2 27 -31 -6z"/>
<path d="M3160 575 c0 -7 61 -37 66 -33 2 3 -12 12 -31 21 -19 9 -35 15 -35
12z"/>
<path d="M6000 1242 c17 -30 94 -108 125 -127 l30 -19 -19 22 c-11 12 -16 22
-12 22 14 0 -78 90 -106 104 -25 13 -27 13 -18 -2z"/>
<path d="M10595 7189 c-11 -16 -1 -19 13 -3 7 8 8 14 3 14 -5 0 -13 -5 -16
-11z"/>
<path d="M10382 6864 c-7 -8 -8 -14 -3 -14 10 0 25 19 20 25 -2 1 -10 -3 -17
-11z"/>
<path d="M10450 6814 c-83 -71 -308 -293 -321 -317 -6 -10 -9 -20 -7 -22 2 -3
94 86 203 195 110 110 198 200 195 199 -3 0 -34 -25 -70 -55z"/>
<path d="M10342 6824 c-7 -8 -8 -14 -3 -14 10 0 25 19 20 25 -2 1 -10 -3 -17
-11z"/>
<path d="M10290 6769 c0 -5 5 -7 10 -4 6 3 10 8 10 11 0 2 -4 4 -10 4 -5 0
-10 -5 -10 -11z"/>
<path d="M10180 6660 c-8 -5 -12 -12 -9 -15 4 -3 12 1 19 10 14 17 11 19 -10
5z"/>
<path d="M9810 4083 c0 -9 3 -13 7 -9 4 4 95 -80 203 -186 l195 -193 -200 203
c-110 111 -201 202 -202 202 -2 0 -3 -7 -3 -17z"/>
<path d="M10240 3651 c0 -5 7 -14 15 -21 12 -10 15 -10 15 3 0 8 -7 17 -15 21
-8 3 -15 2 -15 -3z"/>
<path d="M10299 3530 c-1 -8 0 -49 1 -90 2 -89 -12 -153 -52 -235 -26 -53
-180 -210 -1290 -1321 -693 -693 -1253 -1261 -1244 -1261 8 0 13 3 11 7 -11
18 37 42 90 45 82 5 179 68 380 248 151 136 740 716 1181 1164 505 512 631
650 741 806 30 42 59 77 64 77 11 0 -16 -50 -41 -78 -8 -9 -27 -33 -42 -54
-15 -20 -33 -42 -40 -50 -7 -7 -35 -40 -63 -73 -27 -33 -56 -67 -65 -75 -8 -8
-39 -42 -69 -75 -179 -199 -1335 -1354 -1631 -1630 -56 -52 -221 -191 -271
-228 -95 -71 -193 -117 -250 -117 -32 0 -40 3 -29 10 9 6 10 10 3 10 -6 0 -15
-5 -18 -10 -10 -16 -105 -62 -160 -76 -64 -18 -156 -17 -222 0 -106 28 -141
54 -349 259 l-201 197 -27 -27 c-15 -15 -35 -41 -43 -57 -15 -28 -15 -29 49
-93 61 -62 141 -120 242 -178 27 -15 45 -22 41 -15 -4 6 20 -7 53 -29 33 -23
63 -41 67 -41 5 0 30 -14 56 -31 52 -33 152 -64 171 -53 7 4 4 10 -8 17 -17
10 -17 11 1 18 29 11 84 11 66 0 -8 -5 -11 -16 -7 -26 6 -16 17 -17 102 -11
189 13 253 38 404 161 63 51 124 102 135 112 12 10 54 47 95 83 133 115 223
204 951 930 715 715 981 990 955 990 -3 0 12 16 34 36 22 20 40 40 40 45 0 5
7 17 16 27 33 37 158 239 175 282 42 111 52 371 16 407 -14 14 -17 15 -18 3z"/>
<path d="M10590 3185 c0 -8 2 -15 4 -15 2 0 6 7 10 15 3 8 1 15 -4 15 -6 0
-10 -7 -10 -15z"/>
<path d="M10563 2936 c-22 -29 -72 -78 -110 -109 -37 -30 -377 -365 -755 -743
-1209 -1213 -1720 -1716 -1797 -1772 -136 -97 -291 -158 -441 -173 -59 -6 -48
-7 55 -4 72 2 141 6 155 9 14 3 -2 -3 -34 -14 -75 -26 -215 -42 -308 -36 -62
4 -66 4 -28 -4 115 -22 292 0 417 51 171 72 138 41 1514 1417 1176 1176 1314
1319 1373 1420 16 26 -1 10 -41 -42z"/>
<path d="M7124 1528 l-19 -23 25 20 c14 11 27 21 29 22 2 2 0 3 -6 3 -5 0 -18
-10 -29 -22z"/>
<path d="M4914 1388 l-19 -23 23 19 c21 18 27 26 19 26 -2 0 -12 -10 -23 -22z"/>
<path d="M6989 1393 c-13 -16 -12 -17 4 -4 16 13 21 21 13 21 -2 0 -10 -8 -17
-17z"/>
<path d="M6770 1185 c-11 -13 -10 -14 4 -9 9 3 16 10 16 15 0 13 -6 11 -20 -6z"/>
<path d="M6722 1135 c-12 -14 -19 -25 -16 -25 4 0 17 11 30 25 13 14 20 25 15
25 -4 0 -17 -11 -29 -25z"/>
<path d="M4342 734 c-12 -8 -22 -21 -22 -27 0 -20 -310 -320 -399 -386 -46
-34 -114 -77 -151 -96 -90 -45 -233 -85 -317 -87 l-68 -2 75 -5 c41 -3 104 -2
140 3 36 5 75 9 88 10 12 0 22 4 22 9 0 4 7 7 16 7 9 0 48 17 88 37 60 31 106
72 304 267 204 201 263 268 249 282 -2 2 -13 -3 -25 -12z"/>
<path d="M4380 715 c0 -26 33 -63 233 -261 228 -227 277 -266 385 -313 58 -24
95 -24 47 0 -107 54 -138 81 -412 353 -231 229 -253 248 -253 221z"/>
<path d="M6394 713 c-33 -53 -369 -385 -459 -453 -100 -75 -175 -117 -280
-153 -61 -22 -95 -30 -215 -51 -14 -3 22 -3 80 -1 58 3 119 7 135 10 67 12
-16 -15 -97 -31 -114 -23 -283 -15 -398 19 -47 14 -86 24 -88 22 -2 -2 34 -16
80 -31 77 -26 94 -28 248 -28 153 0 171 2 247 27 45 15 88 33 95 40 8 7 20 13
28 15 24 5 91 47 156 96 32 24 159 145 282 268 179 181 222 229 222 251 0 35
-15 34 -36 0z"/>
<path d="M6447 711 c3 -10 100 -113 216 -228 190 -189 220 -214 287 -246 41
-20 91 -39 110 -42 29 -5 25 -2 -25 23 -88 42 -187 127 -390 331 -99 100 -185
181 -191 181 -7 0 -10 -8 -7 -19z"/>
<path d="M5151 385 c10 -10 37 -19 65 -21 l49 -4 -44 15 c-88 29 -88 29 -70
10z"/>
<path d="M5088 113 c7 -3 16 -2 19 1 4 3 -2 6 -13 5 -11 0 -14 -3 -6 -6z"/>
<path d="M7178 113 c7 -3 16 -2 19 1 4 3 -2 6 -13 5 -11 0 -14 -3 -6 -6z"/>
<path d="M7218 103 c6 -2 18 -2 25 0 6 3 1 5 -13 5 -14 0 -19 -2 -12 -5z"/>
<path d="M5037 89 c7 -7 15 -10 18 -7 3 3 -2 9 -12 12 -14 6 -15 5 -6 -5z"/>
</g>
</svg>
