<?xml version="1.0" standalone="no"?>
<!DOCTYPE svg PUBLIC "-//W3C//DTD SVG 20010904//EN"
 "http://www.w3.org/TR/2001/REC-SVG-20010904/DTD/svg10.dtd">
<svg version="1.0" xmlns="http://www.w3.org/2000/svg"
 width="1080.000000pt" height="1080.000000pt" viewBox="0 0 1080.000000 1080.000000"
 preserveAspectRatio="xMidYMid meet">

<g transform="translate(0.000000,1080.000000) scale(0.100000,-0.100000)"
fill="#000000" stroke="none">
<path d="M5225 10783 c-96 -20 -204 -67 -289 -124 -44 -30 -165 -142 -321
-298 -137 -138 -254 -251 -259 -251 -6 0 -114 103 -241 228 -253 251 -307 292
-460 343 -179 60 -360 60 -539 0 -186 -62 -104 14 -1557 -1440 -1454 -1453
-1378 -1371 -1440 -1557 -59 -175 -59 -363 0 -539 51 -153 92 -207 343 -460
125 -127 228 -235 228 -241 0 -5 -113 -122 -251 -259 -156 -156 -268 -277
-298 -321 -188 -279 -189 -644 -1 -927 32 -48 133 -157 299 -322 138 -137 251
-254 251 -259 0 -6 -103 -114 -228 -241 -253 -254 -288 -302 -341 -460 -61
-184 -61 -354 0 -539 63 -189 -17 -102 1423 -1544 924 -926 1331 -1326 1378
-1358 215 -144 485 -179 734 -95 152 51 207 92 459 343 127 125 235 228 241
228 5 0 122 -113 259 -251 264 -265 334 -322 467 -377 199 -83 437 -83 636 0
133 55 203 112 467 377 137 138 254 251 259 251 6 0 114 -103 241 -228 254
-253 302 -288 460 -341 187 -62 353 -62 539 0 189 63 102 -17 1544 1423 923
921 1326 1331 1358 1378 144 216 179 483 95 734 -51 152 -92 207 -343 459
-125 127 -228 235 -228 240 0 5 123 133 273 284 257 260 275 281 319 366 64
123 88 215 95 356 7 136 -11 242 -59 358 -54 130 -113 202 -377 466 -138 137
-251 254 -251 260 0 6 97 107 216 225 131 132 234 243 264 287 186 277 181
667 -14 936 -24 34 -633 650 -1353 1368 -1432 1430 -1354 1358 -1537 1420
-202 68 -398 60 -598 -22 -119 -49 -194 -108 -418 -333 -118 -119 -219 -216
-225 -216 -6 0 -123 113 -260 251 -264 264 -336 323 -466 377 -147 60 -340 78
-494 45z m267 -364 c126 -26 164 -55 438 -326 l255 -252 -392 -393 -393 -393
-392 393 -393 393 255 252 c202 200 267 258 313 281 105 52 205 67 309 45z
m-1992 -80 c102 -24 156 -65 380 -286 l215 -212 -1568 -1568 -1568 -1568 -213
215 c-192 194 -216 223 -252 295 -39 79 -39 79 -39 200 0 120 0 122 39 201 38
78 49 90 1325 1365 1254 1255 1288 1288 1361 1323 107 51 205 62 320 35z
m4030 0 c125 -29 79 13 1451 -1358 1276 -1276 1287 -1287 1325 -1365 39 -79
39 -81 39 -201 0 -121 0 -121 -39 -201 -36 -72 -59 -99 -252 -294 l-213 -215
-1568 1568 -1568 1568 215 212 c240 237 287 270 414 291 76 13 125 12 196 -5z
m-2783 -1151 c211 -211 383 -387 383 -393 0 -13 -3112 -3125 -3125 -3125 -13
0 -775 762 -775 775 0 13 3112 3125 3125 3125 5 0 182 -172 392 -382z m3265
-1175 c857 -857 1558 -1562 1558 -1568 0 -13 -762 -775 -775 -775 -13 0 -3125
3112 -3125 3125 0 13 762 775 775 775 5 0 711 -701 1567 -1557z m-1042 -1048
l1565 -1565 -1568 -1568 -1567 -1567 -1567 1567 -1568 1568 1565 1565 c861
861 1567 1565 1570 1565 3 0 709 -704 1570 -1565z m-5615 -1175 l390 -390
-393 -393 -393 -392 -253 255 c-216 218 -257 265 -284 320 -66 136 -66 283 0
419 28 56 69 103 282 319 137 138 252 252 255 252 3 0 182 -176 396 -390z
m8736 143 c165 -166 256 -266 276 -303 92 -162 79 -359 -32 -507 -23 -32 -145
-159 -269 -283 l-226 -225 -393 393 -392 392 390 390 c214 214 392 390 396
390 3 0 116 -111 250 -247z m-6519 -2360 c857 -857 1558 -1562 1558 -1568 0
-13 -762 -775 -775 -775 -13 0 -3125 3112 -3125 3125 0 13 762 775 775 775 5
0 711 -701 1567 -1557z m5615 1175 c211 -211 383 -387 383 -393 0 -13 -3112
-3125 -3125 -3125 -13 0 -775 762 -775 775 0 13 3112 3125 3125 3125 5 0 182
-172 392 -382z m-6657 -2223 l1565 -1566 -215 -213 c-191 -189 -223 -217 -290
-250 -132 -64 -275 -64 -410 0 -73 35 -106 67 -1352 1313 -768 768 -1289 1296
-1308 1326 -65 105 -87 253 -56 371 27 104 63 151 280 372 115 116 212 212
215 212 3 0 710 -704 1571 -1565z m7527 1353 c186 -189 214 -221 246 -288 66
-134 66 -276 2 -409 -36 -74 -68 -107 -1324 -1362 -1258 -1258 -1288 -1287
-1361 -1323 -136 -65 -278 -65 -410 0 -66 33 -100 62 -290 250 l-215 213 1565
1566 c861 861 1568 1565 1571 1565 3 0 100 -96 216 -212z m-4262 -2528 l390
-391 -255 -252 c-172 -170 -271 -261 -305 -279 -155 -82 -340 -74 -481 22 -33
21 -165 145 -294 274 l-235 236 390 390 c214 215 392 390 395 390 3 0 181
-176 395 -390z"/>
<path d="M4650 6145 l-745 -745 748 -748 747 -747 747 747 748 748 -745 745
c-410 410 -747 745 -750 745 -3 0 -340 -335 -750 -745z"/>
</g>
</svg>
