<?xml version="1.0" standalone="no"?>
<!DOCTYPE svg PUBLIC "-//W3C//DTD SVG 20010904//EN"
 "http://www.w3.org/TR/2001/REC-SVG-20010904/DTD/svg10.dtd">
<svg version="1.0" xmlns="http://www.w3.org/2000/svg"
 width="1080.000000pt" height="1076.000000pt" viewBox="0 0 1080.000000 1076.000000"
 preserveAspectRatio="xMidYMid meet">

<g transform="translate(0.000000,1076.000000) scale(0.100000,-0.100000)"
fill="#000000" stroke="none">
<path d="M5495 10735 c30 -15 30 -15 -20 -10 -27 2 -71 7 -98 11 l-48 7 11
-29 c6 -16 18 -37 27 -46 8 -10 13 -24 10 -32 -3 -7 3 -42 14 -77 12 -37 16
-66 11 -71 -5 -5 -31 -15 -58 -23 -27 -7 -40 -13 -29 -14 11 0 37 6 58 13 20
8 37 10 37 5 0 -5 14 -9 32 -9 81 0 219 -49 269 -97 26 -24 26 -24 32 -4 5 19
13 21 85 21 131 0 262 -34 355 -91 l49 -30 -63 71 c-35 39 -117 121 -182 181
-96 88 -136 118 -210 154 -51 25 -105 47 -122 48 -16 1 -33 6 -36 11 -8 10
-82 25 -124 25 l-30 0 30 -14z m131 -41 c19 -15 19 -15 -1 -6 -11 5 -27 12
-35 15 -13 5 -13 6 1 6 8 1 24 -6 35 -15z"/>
<path d="M3490 10667 c32 -10 33 -11 11 -15 -14 -2 -51 2 -82 8 -80 17 -100 0
-59 -53 11 -14 20 -35 20 -47 0 -24 50 -120 63 -120 4 0 7 -9 7 -20 0 -11 -5
-20 -11 -20 -5 0 -8 -4 -5 -9 3 -4 27 -11 53 -14 26 -3 70 -13 96 -22 40 -13
54 -14 84 -4 51 16 227 5 327 -20 43 -12 104 -34 135 -51 l56 -31 -100 101
c-108 109 -229 207 -304 244 -90 45 -237 87 -299 85 -25 -1 -25 -2 8 -12z"/>
<path d="M7468 10670 c84 -20 21 -28 -68 -9 -71 15 -82 3 -51 -55 13 -24 21
-47 18 -53 -3 -5 -2 -27 3 -49 15 -60 -2 -89 -64 -114 -50 -20 -51 -20 -11
-14 22 4 65 13 95 20 69 18 81 18 74 -1 -7 -18 -6 -18 133 -5 56 5 115 16 130
24 15 8 55 40 88 72 33 31 55 54 49 50 -7 -3 -14 0 -17 8 -15 39 -289 138
-376 135 l-36 -1 33 -8z m162 -50 c18 -12 2 -12 -25 0 -13 6 -15 9 -5 9 8 0
22 -4 30 -9z m-90 -185 c0 -9 -44 -23 -54 -18 -4 3 -2 9 5 14 15 10 49 12 49
4z"/>
<path d="M2984 10566 c-96 -56 -190 -144 -675 -637 -270 -274 -497 -499 -503
-499 -6 0 -69 -60 -141 -132 -71 -73 -405 -410 -741 -748 -624 -628 -659 -666
-724 -805 -31 -67 -34 -152 -5 -167 11 -6 53 -44 93 -85 40 -41 78 -73 84 -71
21 7 41 83 42 163 2 78 10 110 25 100 5 -2 14 15 21 38 32 109 86 185 324 457
115 130 781 810 1051 1071 99 96 302 293 450 439 502 493 664 616 901 685 134
39 135 43 3 111 -50 26 -105 61 -124 78 l-32 31 -49 -29z"/>
<path d="M5022 10548 c-39 -39 16 -108 86 -108 35 0 120 28 129 43 25 40 -178
102 -215 65z"/>
<path d="M5125 10409 c-47 -16 -88 -20 -189 -20 -72 0 -154 3 -183 7 l-53 6
-164 -168 -164 -169 -42 40 -42 40 31 -60 c55 -106 59 -219 10 -271 -25 -27
-28 -28 -47 -15 -11 6 -8 14 12 34 30 30 28 58 -9 117 -104 166 -360 346 -510
358 -36 2 -65 2 -65 -1 0 -3 66 -72 146 -153 294 -301 291 -297 264 -291 l-25
6 25 -20 c30 -25 36 -53 10 -46 -13 3 -64 -42 -188 -167 -155 -156 -171 -175
-177 -214 -4 -24 -13 -56 -21 -70 -14 -27 -14 -26 -14 21 0 26 -3 47 -8 47 -4
0 -509 -502 -1122 -1115 -796 -797 -1111 -1118 -1103 -1126 6 -6 36 -10 67
-10 106 0 102 -4 836 730 372 372 810 812 975 978 164 167 301 301 303 299 2
-3 0 -12 -6 -21 -15 -28 -1860 -1882 -1942 -1953 -100 -86 -198 -133 -293
-140 l-72 -5 -172 -169 -173 -169 -27 18 -28 18 20 -30 c16 -25 20 -47 20
-132 0 -98 -1 -104 -27 -129 -23 -23 -30 -25 -55 -16 -34 11 -96 3 -132 -19
-22 -13 -78 -61 -150 -129 -51 -49 -150 -180 -136 -180 4 0 -2 -11 -13 -25
-11 -13 -32 -63 -47 -109 l-28 -85 -22 47 c-13 26 -26 61 -30 77 l-7 30 -72
-76 c-119 -123 -210 -302 -199 -390 4 -31 11 -40 43 -54 21 -9 55 -34 75 -55
l37 -37 -31 -7 c-17 -3 -45 -9 -61 -12 -21 -4 -32 -14 -36 -31 -10 -38 3 -168
24 -250 10 -40 15 -78 11 -84 -14 -23 67 -142 167 -243 55 -56 58 -58 66 -36
7 18 -1 32 -45 80 -29 32 -62 76 -75 98 -19 34 -7 25 69 -51 l92 -92 11 60 12
60 7 -40 c3 -22 23 -73 42 -114 30 -62 58 -96 173 -213 144 -147 172 -168 222
-168 32 0 80 37 80 62 -1 68 -254 386 -413 519 -56 47 -107 65 -107 37 0 -20
-17 4 -24 35 -10 41 17 36 147 -29 l112 -56 -80 81 c-47 48 -88 81 -100 81
-11 0 -32 7 -48 14 -28 15 -36 9 -15 -12 8 -8 9 -12 1 -12 -21 0 -62 60 -78
117 -15 52 -16 71 -5 171 7 62 10 116 6 119 -3 4 -6 -5 -7 -18 0 -13 -6 -42
-13 -64 -12 -38 -13 -39 -24 -18 -9 16 -9 29 -1 50 6 15 18 53 25 83 25 103
72 226 79 208 4 -9 -4 -47 -18 -85 -13 -37 -27 -86 -30 -108 -5 -39 -5 -39 24
20 16 33 27 68 25 78 -3 10 0 14 6 11 6 -4 8 -1 6 7 -8 21 15 70 52 109 18 19
85 100 148 180 64 80 152 183 197 230 91 96 149 175 139 191 -3 6 3 20 14 32
33 37 69 124 76 187 6 49 87 201 131 245 43 43 150 105 182 105 24 0 152 61
210 101 25 16 49 27 54 23 5 -3 8 -2 7 3 -2 4 1 9 5 10 4 1 16 10 25 21 9 10
13 11 7 2 -5 -8 3 -4 18 9 15 14 26 26 24 27 -4 4 1958 1974 1966 1974 18 0
237 193 429 378 116 113 198 208 202 235 3 23 28 48 41 43 16 -6 48 29 105
114 67 100 175 224 233 267 79 60 137 90 265 139 63 24 118 48 121 52 3 5 27
19 54 30 26 11 47 23 47 26 0 3 -1 6 -2 5 -2 0 -30 -10 -63 -20z"/>
<path d="M6598 10233 l-168 -168 -47 45 c-26 25 -40 36 -31 25 9 -11 31 -52
49 -90 26 -54 33 -82 33 -129 0 -90 -39 -140 -87 -114 l-21 11 22 8 c12 5 27
19 33 33 18 39 -20 103 -134 222 -104 109 -184 172 -275 218 -61 31 -148 55
-174 48 -42 -11 -14 -48 195 -259 116 -118 212 -219 212 -226 0 -7 3 -14 7
-17 4 -3 5 -16 1 -28 -4 -18 -8 -20 -19 -11 -8 7 -15 10 -17 8 -1 -3 -60 -64
-131 -136 -127 -130 -130 -133 -132 -180 -1 -26 -3 -50 -4 -53 0 -3 -7 10 -16
29 l-15 35 -37 -37 c-21 -20 -42 -37 -48 -37 -11 0 -54 -42 -54 -52 0 -3 27
-17 60 -32 57 -26 100 -28 100 -5 0 5 5 9 10 9 6 0 10 -7 10 -15 0 -29 -40
-38 -149 -32 l-106 5 -137 -135 c-130 -129 -137 -134 -148 -113 -20 37 -20 18
0 -40 32 -93 22 -201 -22 -238 -12 -9 -27 -10 -57 -3 -46 10 -110 -1 -122 -21
-5 -7 -9 -9 -9 -5 0 15 -91 -55 -149 -116 -102 -106 -120 -132 -232 -341 l-37
-69 5 70 c3 39 1 73 -4 76 -5 3 -513 -498 -1128 -1113 l-1118 -1119 34 -9 c48
-13 104 -6 158 19 35 17 265 241 997 973 523 523 970 975 993 1004 22 30 41
51 41 48 0 -44 -95 -144 -963 -1014 -513 -514 -964 -962 -1004 -997 -40 -34
-98 -76 -130 -92 -57 -30 -176 -63 -229 -63 -21 0 -59 -33 -189 -167 l-163
-168 -66 65 c-36 35 -66 60 -66 54 0 -5 15 -25 34 -43 61 -59 99 -185 82 -273
-7 -39 -43 -65 -73 -53 -16 6 -16 8 4 16 60 22 31 104 -80 229 -149 169 -305
267 -343 216 -9 -13 -14 -14 -20 -5 -12 20 34 49 77 49 89 0 207 -40 264 -89
17 -14 -8 13 -54 60 -52 55 -89 85 -100 83 -9 -2 -43 -11 -75 -19 -83 -21 -81
-11 3 16 55 18 68 26 60 36 -9 10 -25 5 -79 -25 -37 -20 -66 -40 -64 -44 3 -4
-1 -6 -8 -3 -7 3 -18 -5 -23 -17 -6 -13 -14 -23 -20 -23 -5 -1 -25 -9 -44 -19
l-33 -18 47 -48 c27 -27 52 -47 56 -44 4 2 11 -5 14 -16 4 -12 69 -85 145
-164 109 -113 138 -148 133 -164 -3 -12 -11 -18 -18 -15 -17 6 -23 1 -147
-121 -103 -102 -127 -140 -129 -198 0 -18 -4 -42 -8 -53 -7 -16 -10 -12 -15
22 -4 24 -11 45 -15 47 -4 3 -38 -26 -76 -64 l-68 -68 51 -26 c58 -29 100 -33
108 -11 8 19 24 20 24 1 0 -42 -81 -57 -191 -36 l-53 10 -136 -135 -136 -136
-58 58 c-32 32 -54 49 -48 38 6 -11 22 -31 36 -45 38 -35 70 -145 64 -221 -3
-47 -10 -65 -30 -86 -24 -23 -28 -24 -60 -13 -39 14 -100 7 -121 -15 -8 -8
-17 -11 -21 -8 -11 11 -212 -200 -231 -242 -10 -22 -28 -63 -41 -90 -45 -94
-73 -312 -43 -331 7 -4 9 -26 5 -63 l-6 -56 18 55 c29 87 234 373 385 537 71
78 121 149 113 162 -3 4 7 26 23 47 16 21 39 73 51 114 12 41 31 91 41 111 11
20 19 44 19 53 0 8 33 48 73 88 67 67 79 75 151 96 42 13 79 22 81 20 2 -2
-22 -14 -53 -26 -112 -44 -187 -118 -251 -247 -32 -64 -91 -205 -86 -205 2 0
24 39 50 88 61 111 91 154 155 220 57 58 137 115 218 156 29 15 50 31 47 36
-3 5 0 8 7 5 7 -3 18 5 23 17 6 12 17 22 27 24 32 4 94 56 245 205 149 147
220 230 209 248 -3 4 6 19 21 32 14 13 23 18 18 11 -6 -11 -3 -12 13 -3 12 6
53 57 91 114 120 175 179 236 381 396 136 107 508 474 1730 1707 250 252 459
461 465 463 30 13 205 169 384 346 189 187 268 275 255 288 -3 3 10 28 30 57
19 28 43 77 52 108 23 79 27 88 73 149 54 72 43 33 -31 -113 -44 -85 -77 -154
-75 -154 3 0 32 46 65 103 77 133 212 266 349 345 51 30 91 59 90 65 -1 6 17
20 40 31 68 34 139 94 267 225 129 132 181 195 172 210 -8 12 20 34 47 35 16
1 36 22 72 77 152 231 274 335 461 393 49 15 107 36 129 46 22 10 57 26 78 34
50 20 47 26 -8 14 -34 -7 -82 -4 -214 16 -94 14 -176 26 -183 26 -7 0 -88 -75
-180 -167z m-988 -1076 c0 -2 -12 -14 -27 -28 l-28 -24 24 28 c23 25 31 32 31
24z"/>
<path d="M3175 10353 c-228 -50 -529 -311 -1598 -1387 -525 -528 -742 -754
-837 -871 -35 -44 -70 -84 -76 -90 -32 -29 -139 -184 -164 -238 -29 -64 -56
-174 -46 -184 3 -4 6 -1 6 5 0 6 5 23 11 39 7 15 12 38 13 51 1 13 6 26 11 30
6 4 10 13 11 20 2 29 5 33 15 27 6 -4 10 -1 8 6 -3 28 1 40 13 33 7 -5 8 -3 3
6 -5 8 1 20 16 32 13 11 17 17 9 13 -8 -4 -4 2 10 14 14 11 26 25 26 30 1 6 2
16 3 22 0 5 6 7 13 3 7 -4 8 -3 4 4 -3 6 3 16 14 22 11 6 18 15 15 20 -3 5 3
15 13 22 11 7 19 16 18 20 -2 14 197 241 359 408 300 310 1013 1020 1025 1020
9 0 137 126 261 257 53 56 199 194 199 189 0 -3 44 37 97 89 53 52 98 93 100
91 2 -1 20 13 41 33 82 78 248 191 281 191 5 0 42 15 83 34 40 18 80 36 88 39
18 7 -15 7 -45 0z"/>
<path d="M5667 10327 c-3 -8 28 -46 69 -87 61 -59 74 -69 74 -51 0 48 -47 104
-117 140 -16 8 -22 8 -26 -2z"/>
<path d="M3611 10277 c101 -79 132 -99 126 -81 -4 11 4 5 20 -14 15 -18 44
-52 65 -74 21 -22 35 -45 31 -51 -3 -5 -2 -7 4 -4 13 8 66 -47 56 -58 -5 -4
-3 -5 4 -1 6 3 27 -6 45 -22 87 -73 130 -104 120 -86 -19 35 -340 347 -350
340 -5 -3 -16 1 -23 10 -16 20 -63 44 -85 44 -10 0 -15 -1 -13 -3z"/>
<path d="M5852 10174 c39 -55 244 -254 261 -254 6 0 -56 68 -138 150 -82 83
-151 150 -153 150 -2 0 12 -21 30 -46z"/>
<path d="M7960 10163 c0 -12 84 -91 150 -141 69 -51 237 -207 450 -417 91 -89
273 -266 405 -393 282 -270 764 -756 920 -927 61 -66 176 -188 256 -270 137
-142 148 -156 177 -231 17 -43 31 -73 32 -66 0 7 -14 48 -32 90 -28 67 -46 92
-143 192 -60 63 -153 162 -205 220 -161 177 -253 273 -596 620 -182 184 -375
383 -428 442 -53 58 -111 118 -129 133 -17 15 -160 154 -317 309 -283 281
-353 345 -441 404 -48 32 -99 51 -99 35z"/>
<path d="M7930 10072 c0 -4 147 -153 328 -332 180 -179 691 -687 1135 -1130
445 -443 802 -791 793 -773 -18 35 -21 63 -7 63 13 0 87 -84 107 -121 33 -65
55 -155 60 -254 6 -90 3 -113 -25 -224 -36 -142 -58 -179 -129 -215 -30 -16
-111 -89 -224 -203 l-177 -178 -3 -102 c-2 -85 -6 -106 -24 -130 -15 -19 -29
-27 -45 -25 -80 11 -116 4 -173 -33 -117 -74 -217 -193 -259 -306 l-24 -64
-13 54 -12 53 -74 -73 -73 -73 42 -19 c77 -35 96 -38 117 -17 11 11 22 15 25
11 9 -16 -6 -39 -28 -45 -35 -9 -177 -7 -196 3 -14 8 -42 -15 -156 -129 l-139
-140 -21 20 c-21 20 -21 19 3 -52 32 -96 28 -171 -12 -205 -23 -19 -30 -21
-47 -10 -20 12 -20 12 1 15 12 2 26 15 31 29 21 55 -60 167 -256 356 -90 86
-307 237 -342 237 -7 0 -13 -8 -13 -17 0 -14 -6 -11 -25 12 -35 42 -46 63 -37
69 8 5 215 -88 394 -177 l87 -43 -59 66 c-32 36 -98 103 -147 150 l-88 85 -51
-3 c-62 -4 -127 19 -210 74 -37 24 -367 345 -887 864 -456 454 -842 833 -858
844 -16 10 298 -310 698 -712 401 -401 797 -800 881 -885 135 -139 172 -187
143 -187 -5 0 -409 400 -898 889 -488 488 -897 893 -908 898 -48 24 -127 21
-101 -4 4 -4 482 -484 1061 -1065 579 -582 1060 -1058 1068 -1058 8 0 26 -17
39 -37 14 -21 97 -113 185 -204 148 -152 160 -168 155 -195 -3 -16 -7 -23 -9
-16 -10 28 -19 22 -148 -108 -112 -114 -129 -137 -205 -293 l-60 -121 1 67 c1
38 -1 71 -5 74 -4 5 -931 -919 -2030 -2025 l-228 -230 90 2 c86 1 92 2 144 38
47 33 1505 1487 1856 1851 72 75 132 132 132 125 0 -7 -7 -21 -14 -31 -36 -47
-1918 -1935 -1966 -1972 -30 -23 -76 -54 -101 -68 -47 -28 -174 -65 -234 -69
-30 -2 -56 -24 -197 -165 l-162 -162 -24 25 c-26 25 -44 25 -23 0 7 -8 19 -39
27 -68 37 -141 -5 -257 -82 -228 l-27 11 34 17 c44 22 50 69 17 124 -64 102
-304 329 -457 431 -117 78 -134 83 -124 35 l6 -33 -35 46 c-41 53 -56 89 -37
89 13 0 218 -93 387 -176 l104 -51 -89 89 c-89 89 -90 90 -145 94 -58 4 -176
43 -266 89 -29 14 -60 24 -70 21 -13 -4 -243 220 -917 894 -924 925 -919 920
-992 920 -13 0 -23 -6 -23 -12 0 -7 475 -488 1056 -1068 985 -984 1056 -1052
1051 -1017 -6 35 -1 31 51 -52 70 -110 356 -407 411 -427 l35 -12 -35 -7 c-46
-10 -86 -31 -136 -72 -24 -19 -47 -31 -53 -28 -6 4 -7 -1 -3 -11 5 -13 3 -16
-10 -11 -12 4 -14 2 -10 -10 5 -12 2 -15 -10 -10 -11 4 -14 2 -11 -7 3 -7 -3
-19 -12 -26 -30 -26 -83 -118 -102 -179 l-18 -61 -14 52 c-8 29 -13 58 -11 63
1 6 -32 -24 -73 -65 l-76 -75 52 -27 c65 -33 92 -35 112 -6 14 20 16 20 22 3
5 -13 0 -24 -17 -38 -22 -18 -35 -19 -136 -14 l-113 5 -62 -67 c-35 -38 -89
-92 -121 -121 l-58 -53 -24 23 c-14 13 -28 21 -31 17 -3 -3 4 -32 16 -63 27
-72 30 -180 6 -216 -20 -31 -58 -49 -77 -37 -29 18 -149 1 -149 -22 0 -4 -12
-10 -27 -14 -33 -8 -375 -343 -366 -358 3 -6 2 -7 -3 -4 -6 3 -28 -9 -51 -26
-22 -18 -49 -37 -59 -44 -17 -10 -16 -11 6 -6 14 3 40 17 57 30 l33 24 -9 -23
c-14 -37 -51 -57 -151 -77 -52 -11 -106 -24 -120 -30 l-25 -10 28 0 c16 -1 74
11 130 25 56 15 120 28 142 29 96 7 213 76 393 230 117 100 222 210 222 233 0
8 15 31 34 52 33 37 76 132 76 170 0 10 4 20 8 22 5 2 23 30 41 64 38 71 125
152 192 177 61 23 183 57 188 52 2 -3 12 7 23 20 11 14 23 23 28 20 16 -10
127 85 276 237 141 143 192 207 177 222 -4 3 4 17 17 31 13 14 26 21 30 15 3
-5 30 32 60 83 107 185 204 288 405 431 71 51 130 98 130 106 0 7 6 15 14 18
9 3 11 0 6 -9 -5 -8 -4 -11 1 -6 5 5 9 14 9 20 1 7 7 11 14 9 7 -1 10 1 8 5
-3 5 7 17 21 27 14 11 23 15 20 10 -4 -5 179 178 405 406 1069 1077 1574 1582
1593 1593 53 29 183 145 362 322 199 195 262 268 262 302 0 22 36 60 41 44 7
-18 44 23 102 110 82 125 181 226 301 308 57 39 106 77 109 84 3 8 27 25 53
38 32 15 104 77 207 178 164 161 217 224 222 267 1 14 11 35 23 47 24 26 70
155 65 180 -3 9 0 17 5 17 6 0 15 14 21 31 18 52 121 197 170 241 25 22 79 62
118 89 40 27 82 63 94 79 12 16 26 27 30 24 5 -3 6 3 2 12 -5 13 -3 15 7 9 8
-5 11 -4 7 3 -9 14 3 43 14 36 5 -3 8 3 7 13 -3 25 23 143 31 143 4 0 5 16 3
36 -3 22 -1 34 5 31 13 -8 14 1 18 113 3 66 1 87 -5 70 -7 -19 -9 -11 -5 30 3
41 1 49 -6 30 -7 -19 -8 -15 -4 20 3 26 2 40 -3 32 -6 -9 -13 1 -21 30 -7 24
-25 65 -38 92 -29 58 -181 214 -235 242 -20 11 -87 75 -148 144 -132 147
-1449 1463 -1660 1658 -181 168 -253 222 -291 222 -16 0 -29 -3 -29 -8z
m-1930 -7396 c0 -3 -60 -42 -132 -88 -210 -131 -306 -234 -402 -427 -26 -51
-49 -91 -52 -89 -2 3 7 33 21 68 14 35 25 74 25 87 0 13 4 23 9 23 5 0 18 23
30 51 14 32 52 81 102 134 73 76 91 89 222 155 78 39 146 76 152 81 9 9 25 12
25 5z"/>
<path d="M7897 10019 c4 -23 75 -100 287 -312 155 -155 297 -296 316 -313 19
-17 52 -51 73 -74 20 -24 37 -40 37 -35 0 12 97 -83 780 -770 351 -352 664
-671 697 -710 33 -38 68 -77 78 -85 10 -8 31 -33 47 -54 15 -21 28 -35 28 -29
0 5 -3 13 -7 17 -4 4 -6 23 -4 41 2 34 -21 58 -709 752 -803 811 -1603 1603
-1619 1603 -6 0 -8 -12 -4 -31z"/>
<path d="M5951 10026 c28 -38 189 -200 193 -195 3 3 -43 52 -101 110 -59 57
-100 95 -92 85z"/>
<path d="M4948 9354 c-38 -24 -68 -51 -68 -59 0 -8 -8 -15 -17 -15 -10 0 -31
-11 -48 -25 l-30 -25 48 -45 c26 -26 52 -43 57 -40 6 3 10 1 10 -5 0 -6 69
-82 153 -168 162 -168 199 -192 255 -171 78 30 52 109 -89 264 -90 100 -136
140 -200 175 -63 33 -103 38 -117 14 -7 -13 -11 -14 -17 -4 -13 22 32 50 79
50 55 0 157 -25 209 -51 40 -20 37 -16 -43 65 -46 47 -91 86 -100 85 -8 0 -45
-20 -82 -45z"/>
<path d="M4750 9206 c-14 -18 -12 -23 58 -96 35 -37 44 -42 52 -30 16 25 12
34 -43 88 -47 47 -55 51 -67 38z"/>
<path d="M7070 9040 c-8 -5 -12 -11 -10 -14 61 -65 2115 -2114 2118 -2112 2 2
-1 20 -6 40 -6 20 -9 36 -7 36 1 0 24 -38 49 -83 39 -69 76 -113 214 -251 92
-92 174 -171 182 -176 23 -15 83 -12 108 6 29 20 29 71 1 126 -37 72 -212 242
-361 348 -193 139 -224 153 -216 100 3 -16 4 -29 2 -27 -29 32 -74 101 -74
112 0 24 20 18 141 -39 114 -54 204 -86 243 -86 17 0 11 9 -30 51 -45 45 -57
52 -100 55 -60 5 -159 37 -246 80 -39 20 -74 31 -84 27 -12 -4 -245 222 -918
895 -680 680 -908 903 -931 907 -16 4 -37 9 -45 11 -8 2 -22 -1 -30 -6z"/>
<path d="M7230 9037 c0 -1 388 -391 863 -867 523 -525 884 -880 917 -901 93
-61 173 -90 285 -106 l40 -5 -29 31 c-26 27 -35 30 -75 27 -57 -4 -152 28
-221 75 -28 19 -420 407 -873 862 -678 683 -908 908 -907 884z"/>
<path d="M7030 8978 c0 -15 208 -230 714 -737 392 -394 870 -875 1062 -1069
273 -277 350 -349 357 -337 4 9 7 22 5 30 -3 16 -2117 2135 -2130 2135 -4 0
-8 -10 -8 -22z"/>
<path d="M6000 7939 c0 -15 143 -165 463 -486 254 -255 738 -741 1075 -1080
336 -340 612 -612 612 -606 0 6 3 19 6 28 5 13 -255 279 -1067 1091 -591 591
-1077 1074 -1081 1074 -5 0 -8 -10 -8 -21z"/>
<path d="M10286 7633 c4 -16 11 -32 17 -38 6 -7 8 -2 3 15 -3 14 -6 31 -6 38
0 6 -5 12 -10 12 -6 0 -8 -11 -4 -27z"/>
<path d="M10296 7482 c-2 -4 -1 -23 4 -42 l8 -35 1 43 c1 41 -3 50 -13 34z"/>
<path d="M432 7393 c-1 -39 -6 -75 -12 -78 -5 -3 -10 1 -10 10 0 9 -7 29 -15
45 -22 43 -57 39 -138 -15 -61 -41 -67 -49 -67 -80 0 -59 30 -178 55 -221 30
-51 32 -65 5 -33 -18 22 -19 22 -20 5 0 -24 69 -132 109 -170 l30 -29 7 27 c4
18 1 33 -8 44 -9 9 -28 40 -43 67 -23 43 -24 46 -4 20 34 -44 76 -85 87 -85 5
0 19 33 31 73 21 72 27 151 14 197 -7 24 -8 23 -13 -10 -5 -32 -6 -33 -17 -15
-9 16 -8 41 3 105 8 46 13 114 11 150 l-3 65 -2 -72z"/>
<path d="M480 7249 c0 -5 -5 -7 -10 -4 -6 3 -13 -1 -16 -10 -9 -22 69 -101
137 -139 l52 -29 -33 41 c-18 23 -40 42 -48 42 -17 0 -82 63 -82 80 0 6 4 8
10 5 6 -3 7 1 4 9 -7 18 -14 21 -14 5z"/>
<path d="M10247 7192 l-17 -37 20 24 c11 13 20 29 20 37 0 21 -3 17 -23 -24z"/>
<path d="M504 7212 c8 -13 66 -56 66 -49 0 3 -17 17 -37 33 -20 15 -33 23 -29
16z"/>
<path d="M480 7095 c-28 -34 16 -244 68 -326 28 -44 264 -280 290 -290 63 -24
132 6 132 58 0 40 -68 146 -154 238 -10 11 -30 36 -44 55 -14 19 -51 64 -82
100 -30 36 -59 71 -65 78 -16 20 -116 102 -125 102 -4 0 -13 -7 -20 -15z"/>
<path d="M1570 7045 c-45 -34 -160 -103 -234 -140 -45 -23 -134 -109 -176
-170 -35 -51 -131 -253 -130 -274 1 -3 24 39 53 94 29 55 63 116 77 135 47 66
149 166 205 200 75 46 272 190 260 189 -6 0 -30 -16 -55 -34z"/>
<path d="M10180 6997 c-190 -183 -233 -238 -309 -391 -81 -162 -95 -206 -23
-71 86 162 163 267 288 395 84 86 141 150 132 150 -2 0 -41 -37 -88 -83z"/>
<path d="M5365 6850 l-28 -29 6 -228 c4 -125 19 -370 33 -543 23 -266 25 -327
16 -392 -17 -115 -59 -188 -138 -234 -43 -25 -46 -26 -78 -10 -19 9 -40 16
-48 16 -7 0 14 17 47 38 92 59 145 153 145 256 0 52 -32 202 -60 281 -11 33
-43 138 -71 232 -52 180 -98 304 -115 310 -5 2 -232 -220 -504 -494 l-495
-496 125 -13 c161 -17 530 -70 639 -92 l84 -17 -154 -28 c-122 -22 -207 -30
-409 -38 -140 -6 -257 -13 -260 -15 -4 -4 310 -319 622 -623 88 -85 98 -93
114 -80 10 8 15 9 11 3 -3 -6 0 -11 7 -11 7 0 11 8 9 16 -5 18 76 101 172 177
131 105 189 182 238 318 39 110 43 134 23 142 -28 11 -17 40 32 86 55 52 98
79 90 57 -18 -49 -20 -61 -7 -54 63 37 104 76 126 120 38 74 43 96 58 265 18
199 24 243 33 250 4 3 8 23 8 45 1 22 7 76 13 120 7 44 14 98 18 120 3 22 13
93 22 157 l17 118 -63 62 c-36 36 -63 56 -64 48 -2 -39 -12 -79 -30 -120 -27
-60 -38 -40 -39 66 0 103 1 114 14 114 6 0 -19 29 -54 65 -35 36 -67 65 -70
65 -4 0 -19 -13 -35 -30z"/>
<path d="M910 6806 c0 -2 8 -10 18 -17 15 -13 16 -12 3 4 -13 16 -21 21 -21
13z"/>
<path d="M9460 6506 c0 -2 8 -10 18 -17 15 -13 16 -12 3 4 -13 16 -21 21 -21
13z"/>
<path d="M5834 6443 c20 -24 10 -32 -14 -10 -12 10 -12 9 0 -6 7 -10 19 -16
26 -13 7 3 18 -2 25 -10 10 -12 9 -13 -5 -8 -9 3 -24 0 -33 -7 -9 -8 -14 -9
-10 -3 3 6 -6 22 -21 35 l-27 24 22 -25 c12 -14 21 -27 21 -30 -1 -3 11 -18
27 -35 15 -16 25 -24 20 -16 -5 10 -4 12 4 7 6 -4 9 -11 6 -16 -7 -11 20 -32
29 -22 4 4 6 2 4 -5 -5 -20 605 -628 622 -618 6 3 7 0 4 -9 -7 -17 11 -22 21
-6 3 6 12 10 18 10 7 0 6 -4 -3 -10 -8 -5 -10 -10 -5 -10 6 0 3 -5 -5 -10 -12
-7 -10 -9 8 -7 12 0 22 6 22 11 0 5 3 6 8 2 4 -4 7 -11 7 -15 0 -4 8 -15 18
-25 9 -10 17 -13 17 -7 0 5 -4 13 -10 16 -5 3 -10 11 -10 17 0 7 41 -29 90
-78 125 -123 125 -119 1 8 -58 59 -108 105 -113 102 -5 -3 -7 0 -6 8 2 7 -3
12 -10 10 -8 -1 -11 2 -8 6 7 12 -28 44 -39 35 -4 -5 -5 -3 -2 3 8 13 -596
617 -608 607 -4 -4 -5 -3 -2 3 3 6 -19 35 -51 65 -31 30 -48 44 -38 32z"/>
<path d="M5849 6293 c-13 -16 -12 -17 4 -4 9 7 17 15 17 17 0 8 -8 3 -21 -13z"/>
<path d="M5870 6288 c0 -10 121 -130 126 -126 3 3 -17 28 -43 54 -51 51 -83
79 -83 72z"/>
<path d="M5855 6230 c3 -5 8 -10 11 -10 2 0 4 5 4 10 0 6 -5 10 -11 10 -5 0
-7 -4 -4 -10z"/>
<path d="M5930 6162 c0 -12 19 -26 26 -19 2 2 -2 10 -11 17 -9 8 -15 8 -15 2z"/>
<path d="M6001 6156 c-8 -9 -11 -19 -7 -23 3 -3 6 -2 6 4 0 5 7 10 15 10 11 0
12 -3 3 -14 -7 -9 -7 -13 -1 -11 6 2 20 -8 31 -22 11 -14 24 -22 28 -17 4 4 0
15 -9 25 -10 9 -25 28 -35 41 -16 21 -19 22 -31 7z"/>
<path d="M5662 6140 c0 -14 2 -19 5 -12 2 6 2 18 0 25 -3 6 -5 1 -5 -13z"/>
<path d="M5660 6101 c0 -6 5 -13 10 -16 6 -3 10 1 10 9 0 9 -4 16 -10 16 -5 0
-10 -4 -10 -9z"/>
<path d="M6010 6082 c0 -12 19 -26 26 -19 2 2 -2 10 -11 17 -9 8 -15 8 -15 2z"/>
<path d="M6080 6075 c-7 -9 -11 -18 -8 -20 3 -3 11 1 18 10 7 9 11 18 8 20 -3
3 -11 -1 -18 -10z"/>
<path d="M6099 6053 c-8 -9 -9 -14 -2 -10 7 4 16 0 22 -10 5 -10 13 -15 16
-11 4 4 0 16 -8 28 -13 19 -15 19 -28 3z"/>
<path d="M5672 6020 c0 -14 2 -19 5 -12 2 6 2 18 0 25 -3 6 -5 1 -5 -13z"/>
<path d="M6150 6002 c0 -7 5 -12 11 -12 6 0 8 -7 5 -16 -3 -9 -2 -12 5 -9 6 4
17 -1 24 -11 8 -11 15 -14 15 -8 0 5 -13 23 -30 39 -16 16 -30 23 -30 17z"/>
<path d="M5628 5978 c-7 -16 7 -46 17 -37 3 4 2 16 -3 29 -7 18 -10 20 -14 8z"/>
<path d="M5651 5980 c0 -8 4 -22 9 -30 12 -18 12 -2 0 25 -6 13 -9 15 -9 5z"/>
<path d="M6236 5913 c41 -38 58 -46 30 -15 -17 18 -34 32 -40 32 -5 0 -1 -8
10 -17z"/>
<path d="M1392 5827 c-9 -10 3 -28 52 -76 58 -58 64 -61 69 -41 4 17 -6 35
-45 76 -55 58 -60 61 -76 41z"/>
<path d="M6326 5825 c4 -8 11 -15 16 -15 6 0 5 6 -2 15 -7 8 -14 15 -16 15 -2
0 -1 -7 2 -15z"/>
<path d="M10288 5670 c34 -46 62 -64 62 -40 0 18 19 10 31 -12 21 -39 38 -141
30 -183 l-7 -40 -7 36 c-4 21 -14 42 -22 49 -12 10 -12 6 -4 -25 6 -20 8 -54
4 -75 -4 -23 -2 -41 4 -45 7 -4 11 3 11 16 0 12 3 20 6 16 4 -3 3 -23 -1 -43
-5 -29 -9 -34 -17 -23 -7 10 -8 3 -4 -24 6 -42 -16 -126 -46 -175 -21 -35 -80
-73 -143 -92 -31 -9 -79 -51 -217 -188 l-178 -177 0 -91 c0 -131 -29 -192 -84
-178 -33 8 -33 15 3 35 69 40 34 131 -106 273 -119 122 -213 186 -273 186 -22
0 -33 -6 -39 -22 -6 -18 -9 -19 -14 -5 -11 28 3 46 40 53 36 7 166 -1 213 -12
20 -5 14 4 -35 55 -33 33 -62 61 -66 61 -4 0 -32 -15 -63 -34 -34 -21 -52 -36
-44 -40 7 -3 3 -3 -9 0 -18 4 -26 -1 -35 -20 -6 -14 -17 -26 -25 -26 -16 0
-63 -29 -63 -39 0 -12 71 -91 81 -91 5 0 9 10 9 23 1 16 4 12 14 -15 7 -20 27
-54 44 -75 58 -73 279 -283 298 -284 15 0 14 -2 -6 -11 -14 -6 -39 -17 -57
-24 -17 -8 -58 -34 -92 -60 -52 -39 -83 -71 -177 -187 -21 -25 -47 -73 -111
-197 -29 -58 -50 -94 -47 -80 4 14 7 54 6 90 l0 65 56 58 c31 31 53 57 49 57
-9 0 63 72 -1496 -1498 -684 -689 -1262 -1267 -1283 -1284 l-39 -31 -24 23
c-35 33 -38 22 -9 -37 31 -62 42 -159 24 -203 -7 -17 -24 -39 -37 -50 -20 -15
-29 -17 -54 -8 -30 10 -108 4 -119 -10 -3 -4 -30 -20 -60 -35 -39 -19 -95 -67
-194 -166 -77 -77 -141 -147 -142 -155 -3 -23 -34 -64 -34 -45 0 8 6 21 13 29
6 7 -22 -16 -64 -51 -92 -76 -100 -89 -58 -89 22 0 41 10 65 34 34 34 34 34
28 7 -4 -14 -13 -33 -21 -42 -17 -20 -107 -45 -193 -54 -78 -8 -170 -33 -170
-46 0 -5 35 -8 79 -6 45 1 74 6 68 10 -7 5 0 6 16 2 21 -4 27 -3 21 6 -5 9 0
10 16 6 13 -3 29 -2 34 2 20 16 139 60 148 55 16 -10 173 75 243 131 39 31
110 93 159 138 49 45 95 86 103 90 26 15 122 139 117 151 -6 15 39 58 56 54 7
-2 43 46 81 106 119 187 182 251 422 424 48 34 86 67 84 73 -1 6 4 14 12 17
10 3 11 0 5 -9 -7 -12 -5 -12 9 0 20 16 22 25 5 16 -7 -4 -2 2 12 13 13 11 28
18 32 15 5 -2 7 1 6 9 -2 7 3 12 9 11 7 -2 12 0 10 5 -1 4 0 8 3 9 3 1 127
124 275 274 945 952 1693 1696 1728 1720 23 15 53 37 67 50 14 13 97 90 185
171 256 234 380 370 358 391 -3 4 6 22 21 42 28 37 76 153 76 184 0 11 4 21 8
23 4 2 20 29 35 60 46 95 129 191 220 255 106 76 157 107 102 61 -96 -78 -211
-199 -260 -273 -51 -76 -160 -293 -152 -302 2 -2 27 40 56 94 28 54 81 138
118 187 68 90 101 125 261 281 91 88 130 146 137 203 2 15 13 64 24 109 12 45
21 94 22 110 0 25 1 26 10 8 7 -15 8 -8 5 24 -3 30 -2 40 5 30 7 -11 9 -8 10
11 0 14 2 36 3 50 7 62 -40 196 -78 222 -16 11 -20 0 -6 -17 20 -24 -15 -20
-40 5 -11 11 -33 20 -50 20 l-29 0 37 -50z m-862 -716 c-22 -8 -45 -13 -50
-10 -6 2 5 8 24 14 52 15 71 13 26 -4z m-316 -1220 c-16 -43 -1960 -1982
-2033 -2029 -68 -43 -170 -80 -248 -90 l-54 -7 63 64 63 65 77 -1 c67 -1 83 3
127 28 34 19 352 330 978 955 511 509 951 954 979 988 28 35 53 61 55 59 2 -2
-1 -16 -7 -32z m-2085 -2103 c-6 -5 -68 -47 -140 -93 -222 -144 -280 -210
-399 -446 -36 -71 -42 -62 -11 15 14 33 26 69 28 79 2 11 19 49 36 86 47 97
157 199 282 261 52 25 117 59 144 76 50 29 78 39 60 22z"/>
<path d="M10685 5681 c-3 -5 -2 -12 3 -15 5 -3 9 1 9 9 0 17 -3 19 -12 6z"/>
<path d="M10674 5644 c3 -19 34 -39 44 -29 4 4 1 10 -6 12 -6 3 -9 10 -5 16 3
7 3 9 -2 5 -4 -4 -14 -3 -21 3 -9 7 -12 6 -10 -7z"/>
<path d="M64 5338 c10 -88 22 -91 23 -8 1 57 -2 70 -14 70 -13 0 -14 -10 -9
-62z"/>
<path d="M2380 5335 c19 -19 36 -35 39 -35 3 0 -10 16 -29 35 -19 19 -36 35
-39 35 -3 0 10 -16 29 -35z"/>
<path d="M4010 5341 c0 -13 521 -523 528 -517 3 3 11 1 18 -5 8 -7 14 -7 19 1
4 7 -99 118 -251 271 -215 215 -263 259 -286 259 -15 0 -28 -4 -28 -9z"/>
<path d="M2450 5265 c13 -14 26 -25 28 -25 3 0 -5 11 -18 25 -13 14 -26 25
-28 25 -3 0 5 -11 18 -25z"/>
<path d="M10312 5189 c-12 -21 -36 -55 -53 -74 -24 -27 -27 -35 -14 -35 27 0
72 53 85 99 6 24 10 45 8 46 -2 2 -14 -14 -26 -36z"/>
<path d="M2510 5206 c0 -2 8 -10 18 -17 15 -13 16 -12 3 4 -13 16 -21 21 -21
13z"/>
<path d="M9147 4813 c-15 -14 -5 -33 43 -84 41 -44 52 -51 60 -39 14 21 14 20
-36 78 -45 52 -55 58 -67 45z"/>
<path d="M2880 4589 c30 -27 54 -54 53 -59 -2 -6 3 -9 10 -7 6 1 11 -4 10 -10
-2 -7 3 -12 10 -10 6 1 11 -4 10 -10 -2 -7 3 -12 10 -10 6 1 11 -4 10 -10 -2
-7 3 -12 10 -10 6 1 11 -4 10 -10 -2 -7 3 -12 10 -10 6 1 11 -4 10 -10 -2 -7
3 -12 10 -10 6 1 11 -4 10 -10 -2 -7 1 -12 7 -10 5 1 339 -329 742 -734 403
-404 758 -754 788 -776 94 -71 192 -112 307 -128 21 -3 45 -8 53 -11 8 -3 2 8
-15 24 -22 22 -43 31 -77 35 -29 3 -48 0 -48 -5 0 -7 -4 -7 -12 -1 -7 6 -36
18 -64 27 -28 9 -73 30 -100 47 -29 18 -392 375 -889 875 -462 464 -854 853
-870 864 -54 36 -51 20 5 -31z"/>
<path d="M2636 4594 c-4 -11 2 -27 16 -43 13 -14 494 -498 1069 -1075 920
-923 1047 -1046 1052 -1026 5 20 -129 159 -1055 1089 -583 586 -1064 1067
-1068 1069 -4 2 -10 -5 -14 -14z"/>
<path d="M286 3903 c-44 -60 -109 -190 -101 -202 3 -5 1 -21 -5 -35 -6 -17 -6
-26 0 -26 6 0 10 -6 10 -12 0 -7 15 -24 32 -38 18 -14 51 -44 74 -67 23 -24
52 -43 63 -43 30 0 53 53 57 130 1 36 8 79 15 96 11 29 10 37 -16 85 -15 30
-39 78 -53 107 -15 28 -30 52 -34 52 -4 0 -23 -21 -42 -47z"/>
<path d="M1640 3599 c0 -16 2096 -2116 2104 -2108 3 3 2 20 -4 37 -5 20 -5 30
1 27 5 -4 9 -10 9 -15 0 -5 16 -37 36 -72 24 -41 92 -119 194 -223 86 -88 160
-168 163 -177 11 -31 118 -36 154 -7 37 31 3 103 -101 216 -133 145 -301 288
-418 357 -59 34 -71 34 -66 -4 3 -16 4 -29 2 -27 -29 32 -74 101 -74 112 0 23
20 18 121 -31 52 -26 146 -69 209 -96 63 -27 120 -54 127 -60 8 -6 16 -9 18
-6 3 2 -30 39 -73 80 -63 62 -86 78 -118 82 -93 15 -145 31 -243 77 -105 50
-127 57 -116 39 3 -5 2 -10 -2 -10 -5 0 -409 401 -899 891 -489 490 -901 897
-915 904 -42 22 -109 31 -109 14z"/>
<path d="M2670 2731 c568 -570 876 -872 915 -896 97 -62 217 -107 297 -109 22
-1 25 2 17 16 -14 27 -38 35 -115 40 -56 4 -85 13 -145 43 -69 36 -125 89
-899 864 -762 762 -904 901 -921 901 -4 0 379 -387 851 -859z"/>
<path d="M1605 3557 c-4 -9 -5 -21 -3 -27 4 -13 2110 -2120 2119 -2120 4 0 10
8 13 17 5 13 -246 270 -1058 1082 -810 810 -1067 1061 -1071 1048z"/>
<path d="M10300 3417 c0 -100 -12 -140 -69 -226 -11 -18 -15 -43 -12 -96 3
-86 -8 -111 -96 -226 -164 -214 -423 -487 -1109 -1169 -568 -563 -776 -764
-924 -891 -165 -142 -296 -218 -389 -226 -31 -2 -76 -14 -99 -25 -49 -23 -142
-49 -152 -43 -4 2 -7 -2 -7 -10 0 -9 10 -15 23 -15 40 0 186 31 240 51 30 11
59 17 65 13 8 -5 9 -3 4 6 -6 10 -4 12 9 7 11 -5 15 -3 10 5 -5 8 -2 9 9 5 10
-4 16 -2 14 5 -1 6 4 13 12 16 9 3 11 0 6 -8 -5 -9 -4 -11 4 -6 6 4 8 12 5 18
-5 8 -1 9 10 5 9 -4 15 -3 12 2 -6 8 5 16 29 20 6 2 14 9 18 17 5 8 12 12 17
9 4 -3 11 2 14 11 3 9 11 12 18 8 7 -4 10 -4 6 0 -4 5 36 44 88 88 183 154
353 318 949 914 899 900 944 948 1130 1188 99 128 159 232 180 311 8 33 18
112 21 175 6 107 5 117 -14 140 l-21 25 -1 -98z"/>
<path d="M419 3455 c-12 -32 -14 -33 -21 -15 -4 11 -11 20 -15 20 -11 0 -48
-25 -127 -85 -61 -46 -66 -53 -66 -88 0 -59 30 -178 56 -223 27 -46 32 -70 8
-36 -8 12 -19 20 -24 17 -11 -7 20 -62 76 -135 23 -30 582 -594 1243 -1253
1126 -1124 1254 -1247 1277 -1224 2 2 -547 554 -1219 1228 -673 673 -1237
1244 -1254 1269 -47 70 -59 100 -23 55 18 -22 605 -613 1304 -1312 l1271
-1273 132 0 c147 0 306 19 263 31 -22 6 -20 7 12 8 77 2 43 18 -50 24 -136 8
-235 42 -304 106 -32 28 -37 55 -10 47 37 -11 112 -26 158 -31 l48 -5 -53 47
c-48 42 -58 47 -97 44 -46 -3 -121 18 -186 51 -41 20 -48 12 -22 -27 23 -36
12 -31 -53 22 -123 99 -332 300 -991 957 -644 642 -902 908 -1037 1071 -32 39
-89 102 -127 142 -71 74 -106 136 -132 233 -8 30 -15 46 -16 35 -1 -20 -1 -20
-16 0 -10 13 -12 29 -8 50 4 16 6 57 6 89 -1 33 3 89 8 124 12 74 8 89 -11 37z"/>
<path d="M8930 1869 c-701 -704 -1274 -1279 -1272 -1279 2 0 28 23 58 52 51
48 58 52 101 49 32 -1 61 5 97 23 59 29 197 139 346 275 161 148 1474 1461
1596 1596 233 259 335 410 349 518 4 26 5 47 3 46 -2 -1 -577 -577 -1278
-1280z"/>
<path d="M758 2755 c45 -67 329 -359 1063 -1094 439 -440 703 -695 803 -775
150 -120 261 -176 348 -176 l42 0 -39 40 c-24 24 -43 36 -49 31 -20 -15 -80
-5 -136 24 -74 38 -185 123 -327 252 -120 110 -1209 1196 -1542 1539 -101 104
-174 176 -163 159z"/>
<path d="M5305 2410 c10 -11 20 -20 23 -20 3 0 -3 9 -13 20 -10 11 -20 20 -23
20 -3 0 3 -9 13 -20z"/>
<path d="M6070 1634 c0 -5 -20 -20 -45 -34 -24 -13 -43 -25 -41 -27 4 -4 99
28 109 37 4 4 1 13 -8 20 -8 7 -15 8 -15 4z"/>
<path d="M6109 1593 c-6 -12 -148 -45 -162 -36 -7 3 -9 3 -5 -2 10 -10 -15
-30 -69 -54 -24 -11 -43 -25 -43 -32 0 -6 19 -30 42 -53 l42 -41 7 30 c4 20 7
23 8 9 2 -36 57 -107 170 -219 61 -60 111 -115 111 -123 0 -27 100 -43 140
-22 58 31 40 91 -63 211 -158 182 -330 288 -353 217 -6 -20 -7 -20 -17 -3 -8
15 -5 22 14 38 35 28 161 19 243 -17 33 -14 61 -25 62 -23 2 2 -25 31 -60 66
-35 35 -65 59 -67 54z"/>
<path d="M4770 1476 c-155 -65 -232 -145 -339 -351 -55 -106 -45 -103 19 5
103 174 185 258 325 332 79 42 77 48 -5 14z"/>
<path d="M5792 1438 c-18 -18 -16 -22 35 -72 42 -39 50 -43 62 -31 13 12 8 21
-35 65 -39 39 -52 48 -62 38z"/>
<path d="M4260 1392 c0 -5 7 -15 15 -22 8 -7 15 -8 15 -2 0 5 -7 15 -15 22 -8
7 -15 8 -15 2z"/>
<path d="M6320 1392 c0 -4 10 -13 23 -21 22 -14 22 -14 3 8 -20 22 -26 25 -26
13z"/>
<path d="M3921 1253 c29 -40 56 -66 84 -86 17 -11 4 6 -30 41 -59 61 -80 78
-54 45z"/>
<path d="M3206 562 c-5 -9 43 -32 65 -32 16 0 9 18 -8 23 -10 2 -25 8 -34 12
-10 3 -20 2 -23 -3z"/>
<path d="M7182 540 c0 -20 6 -33 18 -40 25 -14 37 -13 22 2 -18 18 -15 41 4
34 32 -12 36 7 4 20 -44 19 -47 18 -48 -16z"/>
<path d="M7740 540 c-9 -6 -10 -10 -3 -10 6 0 15 5 18 10 8 12 4 12 -15 0z"/>
<path d="M7250 517 c0 -8 7 -18 16 -21 24 -9 64 -7 64 3 0 13 -8 17 -47 26
-26 5 -33 3 -33 -8z"/>
<path d="M7680 518 c-14 -5 -79 -20 -145 -33 -66 -13 -106 -24 -90 -24 40 -1
204 34 246 53 38 16 28 21 -11 4z"/>
<path d="M5107 497 c-8 -13 -12 -29 -8 -36 5 -8 11 -3 19 14 6 14 16 25 22 25
6 0 8 5 5 10 -10 16 -22 12 -38 -13z"/>
<path d="M5146 476 c-9 -11 -16 -23 -16 -26 0 -14 38 -40 79 -55 47 -16 141
-21 141 -6 0 12 -26 21 -63 21 -54 0 -79 29 -29 33 16 1 19 4 10 15 -32 38
-97 48 -122 18z"/>
<path d="M5165 382 c6 -5 24 -12 40 -16 34 -7 15 7 -25 19 -16 5 -22 4 -15 -3z"/>
</g>
</svg>
