<svg width="166" height="166" viewBox="0 0 166 166" fill="none" xmlns="http://www.w3.org/2000/svg">
<g opacity="0.2">
<path d="M97.1463 55.7649C89.0408 55.869 80.8817 56.6986 73.9635 57.3967C73.9444 57.4151 73.9256 57.4338 73.9073 57.453C63.4377 58.9175 51.178 66.4863 41.6089 72.308C39.6128 72.6045 37.5943 72.9208 35.4756 73.3208C26.8722 74.945 19.0653 77.1222 13.3619 79.3416C10.5102 80.4511 8.2288 81.5679 6.49714 82.7177C5.63131 83.2925 4.87557 83.8464 4.30265 84.5183C3.72973 85.1901 3.23354 86.0212 3.23354 87.0504V90.0327C2.64594 90.6329 2.2207 91.3292 2.2207 92.2272V106.407C2.2207 108.243 3.77997 109.783 5.59684 109.783H21.2396C21.5017 109.786 21.7613 109.732 22.0004 109.625C22.2394 109.517 22.4521 109.359 22.6236 109.16C22.795 108.962 22.9211 108.729 22.9931 108.477C23.0651 108.225 23.0811 107.96 23.0402 107.701C22.971 107.218 22.9317 106.726 22.9277 106.238C22.9277 103.353 24.161 100.466 26.2475 98.4168C28.3341 96.3673 31.33 95.0969 34.294 95.0969C37.2579 95.0969 40.2538 96.3673 42.3404 98.4168C44.427 100.466 45.6602 103.353 45.6603 106.238C45.6556 106.726 45.6175 107.218 45.5477 107.701C45.5068 107.96 45.5229 108.225 45.5948 108.477C45.6668 108.729 45.7929 108.962 45.9644 109.16C46.1358 109.359 46.3485 109.517 46.5876 109.625C46.8266 109.732 47.0862 109.786 47.3483 109.783H116.84C117.103 109.786 117.362 109.732 117.601 109.625C117.84 109.517 118.053 109.359 118.224 109.16C118.396 108.962 118.522 108.729 118.594 108.477C118.666 108.225 118.682 107.96 118.641 107.701C118.572 107.218 118.533 106.726 118.528 106.238C118.529 103.353 119.762 100.466 121.848 98.4168C123.935 96.3673 126.931 95.0969 129.895 95.0969C132.803 95.0969 135.752 96.3178 137.829 98.3042C139.905 100.29 141.181 103.125 141.261 105.957C141.268 106.203 141.325 106.446 141.429 106.67C141.534 106.893 141.683 107.093 141.867 107.256C142.052 107.42 142.268 107.544 142.503 107.62C142.737 107.697 142.985 107.724 143.231 107.701L160.336 105.844C162.559 105.602 164.275 103.76 164.275 101.512V88.4572C164.275 86.9175 163.242 85.8361 161.968 85.1373V74.8401C161.968 71.9553 159.563 69.6071 156.679 69.6071H139.461L125.45 61.3356C117.922 56.6734 107.567 55.6309 97.1463 55.7649ZM97.2026 59.3662C107.332 59.2358 117.086 60.3793 123.536 64.3741C123.555 64.3933 123.574 64.412 123.593 64.4304L138.11 72.9832C138.385 73.1356 138.696 73.2132 139.01 73.2083H156.679C157.664 73.2083 158.367 73.9246 158.367 74.8401V86.2064C158.367 86.6839 158.557 87.1419 158.894 87.4796C159.232 87.8172 159.69 88.007 160.167 88.007C160.508 88.007 160.674 88.1709 160.674 88.4572V101.512C160.674 101.805 160.292 102.205 159.942 102.243L144.412 103.931C143.891 100.835 142.599 97.854 140.305 95.6596C137.529 93.0053 133.759 91.4957 129.895 91.4957C125.96 91.4957 122.108 93.0864 119.316 95.8284C116.538 98.5572 114.943 102.31 114.927 106.182H49.2615C49.246 102.31 47.6507 98.557 44.8725 95.8284C42.081 93.0864 38.2288 91.4957 34.294 91.4957C30.3592 91.4957 26.5069 93.0864 23.7154 95.8284C20.9372 98.557 19.3419 102.31 19.3264 106.182H5.82191V92.4523C6.12751 92.3036 6.3848 92.0714 6.56403 91.7827C6.74326 91.4939 6.83712 91.1603 6.83475 90.8205V87.163C6.86063 87.1344 6.93828 87.0248 7.05983 86.8816C7.30292 86.5966 7.78151 86.1548 8.46655 85.7C9.83663 84.7903 12.0098 83.713 14.7124 82.6615C20.1175 80.5582 27.7311 78.4553 36.1508 76.8658C38.3534 76.4499 40.4412 76.0988 42.5092 75.7967C42.747 75.7673 42.9766 75.6908 43.1844 75.5716C52.779 69.7373 65.1773 62.3021 74.3574 60.9979C74.3743 60.9962 74.3967 60.9997 74.4137 60.9979C81.3348 60.2994 89.3439 59.4671 97.2026 59.3662ZM82.5727 62.8548C77.6086 62.8548 71.5133 64.7633 66.4235 66.9625C63.8786 68.062 61.5919 69.2307 59.84 70.3386C58.9641 70.8925 58.252 71.4288 57.6456 71.9704C57.0391 72.512 56.5145 72.9856 56.2388 73.9961C56.1821 74.1406 56.1442 74.2919 56.1263 74.4462V77.4847C56.1263 79.3167 57.6378 80.8609 59.5024 80.8609H86.7928C87.2157 80.8528 87.6223 80.6961 87.9412 80.4183C88.2601 80.1406 88.4711 79.7594 88.5372 79.3416L90.7317 64.9368C90.7726 64.6779 90.7565 64.4131 90.6846 64.1611C90.6126 63.909 90.4865 63.6757 90.315 63.4775C90.1436 63.2792 89.9309 63.1208 89.6918 63.0132C89.4528 62.9057 89.1932 62.8516 88.9311 62.8548H82.5727ZM96.7524 62.8548C96.3336 62.907 95.9464 63.1046 95.6585 63.4131C95.3705 63.7216 95.2001 64.1215 95.1769 64.5429L94.1078 78.9477C94.0924 79.1935 94.1276 79.4398 94.2112 79.6714C94.2948 79.903 94.425 80.115 94.5937 80.2943C94.7625 80.4736 94.9662 80.6164 95.1923 80.7138C95.4185 80.8113 95.6622 80.8613 95.9084 80.8609H117.628C119.493 80.8609 121.004 79.3165 121.004 77.4847V73.152C121.004 71.3702 120.875 68.6755 118.979 66.456C117.082 64.2366 113.665 62.8548 108.119 62.8548H96.9775C96.9025 62.8501 96.8274 62.8501 96.7524 62.8548ZM82.5727 66.456H86.8491L85.2173 77.2597H59.7275V75.0089C59.7431 75.0324 59.8274 74.8836 60.0651 74.6713C60.4434 74.3334 61.0457 73.8601 61.8094 73.3771C63.337 72.4111 65.4843 71.3203 67.8865 70.2823C72.6909 68.2064 78.587 66.456 82.5727 66.456ZM98.6093 66.456H108.119C113.081 66.456 115.212 67.6376 116.221 68.8193C117.231 70.0011 117.403 71.5696 117.403 73.152V77.2597H97.8215L98.6093 66.456Z" fill="#8C9592"/>
</g>
</svg>
