<svg xmlns="http://www.w3.org/2000/svg" width="167" height="166" viewBox="0 0 167 166" fill="none">
  <path fill-rule="evenodd" clip-rule="evenodd" d="M34.152 129.91L34.3955 135.023C34.6389 137.214 32.9347 138.918 30.7436 138.918H8.10207C5.42404 138.918 3.23292 136.727 3.23292 134.293C2.50255 119.198 -5.04463 73.9152 10.5366 67.8288C-5.53154 63.2031 0.798349 52.491 19.3011 53.9517L22.4661 58.3339C25.631 44.4569 34.6389 30.3363 40.7254 29.3625C66.7753 21.5719 99.6421 21.5719 125.692 29.3625C131.778 30.3363 140.786 44.4569 143.951 58.3339L147.116 53.9517C165.619 52.491 171.949 63.2031 155.881 67.8288C171.462 73.9152 163.915 119.198 163.184 134.293C163.184 136.727 160.993 138.918 158.559 138.918H135.674C133.483 138.918 132.022 137.214 132.022 135.023L132.265 129.91H34.152Z" fill="url(#paint0_linear_1689_9793)"/>
  <path fill-rule="evenodd" clip-rule="evenodd" d="M42.1853 35.9349C37.0727 42.9952 33.1774 50.7858 30.2559 59.0634C65.5572 55.655 100.859 55.655 136.403 59.0634C133.238 50.7858 129.343 42.9952 124.23 35.9349C96.9632 29.605 69.4526 29.605 42.1853 35.9349ZM145.898 109.946H126.909C123.5 109.946 123.5 115.059 126.909 115.059H145.898C149.307 115.059 149.307 109.946 145.898 109.946ZM129.587 103.616H148.333C156.61 99.7208 159.775 88.5217 151.741 89.4956L133.238 91.9301C126.422 92.6605 124.961 98.26 129.587 103.616ZM20.5176 109.946H39.5073C42.9157 109.946 42.9157 115.059 39.5073 115.059H20.5176C17.1092 115.059 17.1092 109.946 20.5176 109.946ZM36.8293 103.616H18.083C9.80549 99.7208 6.64054 88.5217 14.6746 89.4956L33.1774 91.9301C39.9942 92.6605 41.455 98.26 36.8293 103.616Z" fill="white"/>
  <defs>
    <linearGradient id="paint0_linear_1689_9793" x1="137.971" y1="23.5195" x2="0.767576" y2="148.818" gradientUnits="userSpaceOnUse">
      <stop stop-color="#C3A279"/>
      <stop offset="0.397025" stop-color="#EAC392"/>
      <stop offset="1" stop-color="#9C7D57"/>
    </linearGradient>
  </defs>
</svg>