<svg width="166" height="166" viewBox="0 0 166 166" fill="none" xmlns="http://www.w3.org/2000/svg">
<g opacity="0.2">
<path d="M65.4154 145.649C57.265 145.649 50.6367 139.021 50.6367 130.871C50.6367 122.72 57.265 116.092 65.4154 116.092C66.7775 116.092 67.8786 117.193 67.8786 118.555C67.8786 119.917 66.7775 121.018 65.4154 121.018C59.9818 121.018 55.563 125.437 55.563 130.871C55.563 136.304 59.9818 140.723 65.4154 140.723C66.7775 140.723 67.8786 141.824 67.8786 143.186C67.8786 144.548 66.7775 145.649 65.4154 145.649Z" fill="#8C9592"/>
<path d="M102.366 145.4C101.221 145.4 100.193 144.597 99.9545 143.43C99.6811 142.097 100.541 140.797 101.873 140.523C106.43 139.592 109.736 135.533 109.736 130.871C109.736 125.437 105.317 121.018 99.883 121.018C98.5209 121.018 97.4199 119.917 97.4199 118.555C97.4199 117.193 98.5209 116.092 99.883 116.092C108.034 116.092 114.662 122.72 114.662 130.871C114.662 137.863 109.696 143.952 102.858 145.349C102.696 145.383 102.528 145.4 102.366 145.4Z" fill="#8C9592"/>
<path d="M92.4958 145.653H65.4162C64.0541 145.653 62.9531 144.552 62.9531 143.19C62.9531 141.828 64.0541 140.727 65.4162 140.727H92.4958C93.8579 140.727 94.9589 141.828 94.9589 143.19C94.9589 144.552 93.8579 145.653 92.4958 145.653Z" fill="#8C9592"/>
<path d="M99.8851 121.018H65.4162C64.0541 121.018 62.9531 119.917 62.9531 118.555C62.9531 117.193 64.0541 116.092 65.4162 116.092H99.8851C101.247 116.092 102.348 117.193 102.348 118.555C102.348 119.917 101.247 121.018 99.8851 121.018Z" fill="#8C9592"/>
<path d="M53.0998 66.8532C51.7377 66.8532 50.6367 65.7521 50.6367 64.39C50.6367 56.2396 57.265 49.6113 65.4154 49.6113C66.7775 49.6113 67.8786 50.7123 67.8786 52.0744C67.8786 53.4366 66.7775 54.5376 65.4154 54.5376C59.9818 54.5376 55.563 58.9564 55.563 64.39C55.563 65.7497 54.4619 66.8532 53.0998 66.8532Z" fill="#8C9592"/>
<path d="M112.201 66.8532C110.838 66.8532 109.737 65.7521 109.737 64.39C109.737 58.9564 105.319 54.5376 99.885 54.5376C98.5229 54.5376 97.4219 53.4366 97.4219 52.0744C97.4219 50.7123 98.5229 49.6113 99.885 49.6113C108.035 49.6113 114.664 56.2396 114.664 64.39C114.664 65.7497 113.563 66.8532 112.201 66.8532Z" fill="#8C9592"/>
<path d="M99.8851 54.5317H65.4162C64.0541 54.5317 62.9531 53.4307 62.9531 52.0686C62.9531 50.7065 64.0541 49.6055 65.4162 49.6055H99.8851C101.247 49.6055 102.348 50.7065 102.348 52.0686C102.348 53.4307 101.247 54.5317 99.8851 54.5317Z" fill="#8C9592"/>
<path d="M112.203 133.333C110.841 133.333 109.74 132.232 109.74 130.87V64.383C109.74 63.0209 110.841 61.9199 112.203 61.9199C113.565 61.9199 114.666 63.0209 114.666 64.383V130.87C114.666 132.232 113.565 133.333 112.203 133.333Z" fill="#8C9592"/>
<path d="M53.0979 133.333C51.7358 133.333 50.6348 132.232 50.6348 130.87V64.383C50.6348 63.0209 51.7358 61.9199 53.0979 61.9199C54.46 61.9199 55.561 63.0209 55.561 64.383V130.87C55.561 132.232 54.46 133.333 53.0979 133.333Z" fill="#8C9592"/>
<path d="M102.349 133.331C100.987 133.331 99.8857 132.23 99.8857 130.868C99.8857 129.508 98.7822 128.405 97.4226 128.405C96.0629 128.405 94.9594 129.508 94.9594 130.868C94.9594 132.23 93.8584 133.331 92.4963 133.331C91.1342 133.331 90.0332 132.23 90.0332 130.868C90.0332 126.794 93.3486 123.479 97.4226 123.479C101.497 123.479 104.812 126.794 104.812 130.868C104.812 132.23 103.711 133.331 102.349 133.331Z" fill="#8C9592"/>
<path d="M97.4226 160.413C93.3486 160.413 90.0332 157.098 90.0332 153.024C90.0332 148.95 93.3486 145.635 97.4226 145.635C101.497 145.635 104.812 148.95 104.812 153.024C104.812 157.098 101.497 160.413 97.4226 160.413ZM97.4226 150.561C96.0629 150.561 94.9594 151.664 94.9594 153.024C94.9594 154.384 96.0629 155.487 97.4226 155.487C98.7822 155.487 99.8857 154.384 99.8857 153.024C99.8857 151.664 98.7822 150.561 97.4226 150.561Z" fill="#8C9592"/>
<path d="M102.348 155.486C100.986 155.486 99.8848 154.385 99.8848 153.023V130.869C99.8848 129.507 100.986 128.406 102.348 128.406C103.71 128.406 104.811 129.507 104.811 130.869V153.023C104.811 154.385 103.71 155.486 102.348 155.486Z" fill="#8C9592"/>
<path d="M92.4963 155.486C91.1342 155.486 90.0332 154.385 90.0332 153.023V130.869C90.0332 129.507 91.1342 128.406 92.4963 128.406C93.8584 128.406 94.9594 129.507 94.9594 130.869V153.023C94.9594 154.385 93.8584 155.486 92.4963 155.486Z" fill="#8C9592"/>
<path d="M77.7209 54.535C76.3588 54.535 75.2578 53.434 75.2578 52.0719V34.803C75.2578 33.4409 76.3588 32.3398 77.7209 32.3398C79.083 32.3398 80.1841 33.4409 80.1841 34.803V52.0719C80.1841 53.4315 79.083 54.535 77.7209 54.535Z" fill="#8C9592"/>
<path d="M87.5744 54.535C86.2123 54.535 85.1113 53.434 85.1113 52.0719V34.803C85.1113 33.4409 86.2123 32.3398 87.5744 32.3398C88.9366 32.3398 90.0376 33.4409 90.0376 34.803V52.0719C90.0376 53.4315 88.9366 54.535 87.5744 54.535Z" fill="#8C9592"/>
<path d="M87.5734 37.267C86.2113 37.267 85.1103 36.166 85.1103 34.8039C85.1103 30.7299 81.7949 27.4145 77.7209 27.4145C76.3588 27.4145 75.2578 26.3135 75.2578 24.9514C75.2578 23.5893 76.3588 22.4883 77.7209 22.4883C84.5118 22.4883 90.0365 28.0131 90.0365 34.8039C90.0365 36.166 88.9355 37.267 87.5734 37.267Z" fill="#8C9592"/>
<path d="M70.3293 37.267C63.5384 37.267 58.0137 31.7422 58.0137 24.9514C58.0137 23.5893 59.1147 22.4883 60.4768 22.4883C61.8389 22.4883 62.9399 23.5893 62.9399 24.9514C62.9399 29.0254 66.2553 32.3408 70.3293 32.3408C71.6914 32.3408 72.7924 33.4418 72.7924 34.8039C72.7924 36.166 71.6914 37.267 70.3293 37.267Z" fill="#8C9592"/>
<path d="M77.7221 37.2661H70.3303C68.9682 37.2661 67.8672 36.1651 67.8672 34.803C67.8672 33.4409 68.9682 32.3398 70.3303 32.3398H77.7221C79.0842 32.3398 80.1853 33.4409 80.1853 34.803C80.1853 36.1651 79.0842 37.2661 77.7221 37.2661Z" fill="#8C9592"/>
<path d="M77.7221 27.4145H70.3303C68.9682 27.4145 67.8672 26.3135 67.8672 24.9514C67.8672 23.5893 68.9682 22.4883 70.3303 22.4883H77.7221C79.0842 22.4883 80.1853 23.5893 80.1853 24.9514C80.1853 26.3135 79.0842 27.4145 77.7221 27.4145Z" fill="#8C9592"/>
<path d="M70.3303 27.4091C68.9682 27.4091 67.8672 26.3081 67.8672 24.946V10.1623C67.8672 8.80023 68.9682 7.69922 70.3303 7.69922C71.6924 7.69922 72.7934 8.80023 72.7934 10.1623V24.946C72.7934 26.3081 71.6924 27.4091 70.3303 27.4091Z" fill="#8C9592"/>
<path d="M60.4768 27.4091C59.1147 27.4091 58.0137 26.3081 58.0137 24.946V10.1623C58.0137 8.80023 59.1147 7.69922 60.4768 7.69922C61.8389 7.69922 62.9399 8.80023 62.9399 10.1623V24.946C62.9399 26.3081 61.8389 27.4091 60.4768 27.4091Z" fill="#8C9592"/>
<path d="M70.3293 12.6298C68.9672 12.6298 67.8661 11.5288 67.8661 10.1667C67.8661 8.80706 66.7627 7.70358 65.403 7.70358C64.0434 7.70358 62.9399 8.80706 62.9399 10.1667C62.9399 11.5288 61.8389 12.6298 60.4768 12.6298C59.1147 12.6298 58.0137 11.5288 58.0137 10.1667C58.0137 6.0927 61.329 2.77734 65.403 2.77734C69.477 2.77734 72.7924 6.0927 72.7924 10.1667C72.7924 11.5288 71.6914 12.6298 70.3293 12.6298Z" fill="#8C9592"/>
</g>
</svg>
