<svg width="167" height="166" viewBox="0 0 167 166" fill="none" xmlns="http://www.w3.org/2000/svg">
<g opacity="0.2">
<path d="M69.6556 32.3856C71.0572 32.3856 72.1745 31.248 72.1745 29.8667V26.84H78.7561V29.8667C78.7561 31.2684 79.8936 32.3856 81.275 32.3856C82.6766 32.3856 83.7938 31.248 83.7938 29.8667V26.84H90.3754V29.8667C90.3754 31.2684 91.513 32.3856 92.8943 32.3856C94.2959 32.3856 95.4132 31.248 95.4132 29.8667V18.7552C95.4132 17.3536 94.2756 16.2363 92.8943 16.2363C91.4927 16.2363 90.3754 17.3739 90.3754 18.7552V21.7819H83.7938V18.7552C83.7938 17.3536 82.6563 16.2363 81.275 16.2363C79.8733 16.2363 78.7561 17.3739 78.7561 18.7552V21.7819H72.1745V18.7552C72.1745 17.3536 71.0369 16.2363 69.6556 16.2363C68.254 16.2363 67.1367 17.3739 67.1367 18.7552V29.8667C67.1367 31.248 68.2743 32.3856 69.6556 32.3856Z" fill="#8C9592"/>
<path d="M81.2747 164.643C115.767 164.643 143.84 136.57 143.84 102.077C143.84 77.0105 128.626 54.3203 105.712 44.5495C108.129 40.3852 109.551 35.5506 109.551 30.4112C109.551 28.1767 109.267 26.0032 108.759 23.9109C108.759 23.8906 108.739 23.85 108.739 23.8296C105.773 11.4181 94.6004 2.13477 81.2747 2.13477C67.949 2.13477 56.7766 11.4181 53.8108 23.8296C53.8108 23.85 53.7905 23.8703 53.7905 23.9109C53.303 26.0032 52.9983 28.1767 52.9983 30.4112C52.9983 35.5709 54.3999 40.3852 56.8375 44.5495C33.9238 54.3203 18.709 77.0105 18.709 102.077C18.709 136.57 46.7823 164.643 81.2747 164.643ZM81.2747 7.19284C91.98 7.19284 100.918 14.5057 103.599 24.3781C100.837 34.4536 91.7972 41.4415 81.2747 41.4415C70.7523 41.4415 61.7128 34.4536 58.9501 24.3781C61.6315 14.5057 70.5695 7.19284 81.2747 7.19284ZM81.2747 46.4793C90.558 46.4793 98.8663 41.9697 104.046 34.8396C101.974 45.5245 92.5691 53.6296 81.2747 53.6296C69.9804 53.6296 60.5752 45.5245 58.5032 34.8396C63.6832 41.9493 71.9914 46.4793 81.2747 46.4793ZM103.091 107.765H92.1831L93.0972 96.4303H103.01C103.031 96.4303 103.071 96.4506 103.091 96.4506C104.493 96.4506 105.61 95.3131 105.61 93.9317V87.7767C105.61 84.6688 108.17 82.1296 111.298 82.1296C114.406 82.1296 116.925 84.6688 116.925 87.7767V116.419C116.925 119.547 114.386 122.107 111.298 122.107C108.17 122.107 105.61 119.547 105.61 116.419V110.304C105.61 108.883 104.493 107.765 103.091 107.765ZM86.9422 110.183C86.9422 110.223 86.9219 110.244 86.9219 110.284V116.399C86.9219 119.527 84.3827 122.086 81.2747 122.086C78.1668 122.086 75.6276 119.527 75.6276 116.399V110.284C75.6276 110.203 75.5869 110.142 75.5869 110.061L74.3072 93.8911L71.3617 56.8595C74.4494 58.0174 77.7808 58.6877 81.2747 58.6877C84.789 58.6877 88.1407 58.0174 91.2487 56.8392L86.9219 110.101C86.9219 110.122 86.9422 110.142 86.9422 110.183ZM59.458 96.4303C59.4986 96.4303 59.5189 96.41 59.5392 96.41H69.4319L70.346 107.765H59.458C58.0563 107.765 56.9391 108.903 56.9391 110.284V116.399C56.9391 119.527 54.3796 122.086 51.2513 122.086C48.1433 122.086 45.6244 119.527 45.6244 116.399V87.7564C45.6244 84.6484 48.1636 82.1092 51.2513 82.1092C54.3796 82.1092 56.9391 84.6484 56.9391 87.7564V93.9114C56.9391 95.3131 58.0563 96.4303 59.458 96.4303ZM59.8236 48.7747C61.6315 50.8873 63.7441 52.7155 66.1005 54.2187L69.046 91.3722H61.9769V87.7564C61.9769 81.8655 57.1625 77.0715 51.231 77.0715C45.3401 77.0715 40.5461 81.8655 40.5461 87.7564V116.399C40.5461 122.31 45.3401 127.144 51.231 127.144C57.1625 127.144 61.9769 122.33 61.9769 116.399V112.823H70.5695V116.399C70.5695 122.31 75.3635 127.144 81.2544 127.144C87.1454 127.144 91.9394 122.33 91.9394 116.399V112.823H100.532V116.399C100.532 122.31 105.346 127.144 111.278 127.144C117.169 127.144 121.963 122.33 121.963 116.399V87.7564C121.963 81.8655 117.169 77.0715 111.278 77.0715C105.346 77.0715 100.532 81.8655 100.532 87.7564V91.3722H93.4832L96.5099 54.1781C98.8256 52.6749 100.918 50.867 102.706 48.7747C124.339 57.5095 138.762 78.6763 138.762 102.077C138.762 133.787 112.964 159.605 81.2544 159.605C49.545 159.605 23.7671 133.787 23.7671 102.077C23.7671 78.6763 38.1897 57.5095 59.8236 48.7747Z" fill="#8C9592"/>
</g>
</svg>
