<svg width="166" height="166" viewBox="0 0 166 166" fill="none" xmlns="http://www.w3.org/2000/svg">
<g opacity="0.2">
<path d="M153.414 45.1391L108.641 32.928C106.475 32.3468 104.235 33.6151 103.642 35.7838C103.051 37.9525 104.329 40.1911 106.498 40.7822L151.272 52.9932C151.632 53.0909 151.99 53.1381 152.346 53.1381C154.136 53.1381 155.775 51.9479 156.27 50.1374C156.861 47.9688 155.583 45.7301 153.414 45.1391Z" fill="#8C9592"/>
<path d="M153.434 65.4928L116.801 55.317C114.626 54.7162 112.391 55.9862 111.79 58.15C111.189 60.3154 112.457 62.5589 114.623 63.1614L151.256 73.3372C151.62 73.4382 151.987 73.487 152.347 73.487C154.131 73.487 155.767 72.305 156.267 70.5042C156.868 68.3388 155.6 66.0953 153.434 65.4928Z" fill="#8C9592"/>
<path d="M114.623 103.866L151.256 114.042C151.62 114.143 151.987 114.192 152.347 114.192C154.131 114.192 155.767 113.01 156.267 111.209C156.868 109.044 155.6 106.8 153.434 106.198L116.801 96.0221C114.626 95.4213 112.391 96.6912 111.79 98.855C111.189 101.02 112.457 103.264 114.623 103.866Z" fill="#8C9592"/>
<path d="M103.642 117.187C103.051 119.356 104.329 121.595 106.498 122.186L151.272 134.397C151.632 134.494 151.99 134.542 152.346 134.542C154.136 134.542 155.775 133.351 156.27 131.541C156.861 129.372 155.583 127.134 153.414 126.543L108.641 114.331C106.475 113.747 104.235 115.019 103.642 117.187Z" fill="#8C9592"/>
<path d="M75.0083 122.331C94.3261 122.331 99.4303 93.0438 99.4303 77.5569C99.4303 62.0701 94.3261 32.7832 75.0083 32.7832C48.4534 32.7832 9.88281 50.2254 9.88281 77.5569C9.88281 104.888 48.4534 122.331 75.0083 122.331ZM75.0083 40.9239C86.1154 40.9239 91.2896 62.7832 91.2896 77.5569C91.2896 92.3307 86.1154 114.19 75.0083 114.19C52.0613 114.19 18.0235 98.8074 18.0235 77.5569C18.0235 56.3065 52.0613 40.9239 75.0083 40.9239Z" fill="#8C9592"/>
<path d="M114.623 83.5149L151.256 93.6907C151.62 93.7917 151.987 93.8405 152.347 93.8405C154.131 93.8405 155.767 92.6585 156.267 90.8578C156.868 88.6923 155.6 86.4488 153.434 85.8464L116.801 75.6705C114.626 75.0697 112.391 76.3397 111.79 78.5035C111.189 80.6689 112.457 82.9125 114.623 83.5149Z" fill="#8C9592"/>
</g>
</svg>
