<svg width="167" height="166" viewBox="0 0 167 166" fill="none" xmlns="http://www.w3.org/2000/svg">
<path d="M34.152 128.91H33.1033L33.1531 129.958L33.3966 135.071L33.3981 135.102L33.4016 135.133C33.572 136.667 32.4059 137.918 30.7436 137.918H8.10207C5.94296 137.918 4.23292 136.142 4.23292 134.293V134.268L4.23176 134.244C4.10626 131.651 3.78069 128.167 3.40737 124.173C3.23382 122.315 3.04995 120.348 2.87106 118.308C2.30494 111.853 1.78304 104.621 1.76791 97.6806C1.75277 90.7275 2.24719 84.1314 3.68338 78.9247C5.12842 73.686 7.45296 70.1069 10.9005 68.7602L13.6526 67.6852L10.8133 66.8678C6.88026 65.7356 4.48268 64.2726 3.28964 62.8587C2.70276 62.1632 2.42742 61.5052 2.36424 60.9138C2.30175 60.3288 2.43815 59.7319 2.80701 59.131C3.5662 57.8942 5.31725 56.6503 8.14993 55.8122C10.8571 55.0112 14.4375 54.618 18.7631 54.9147L21.6554 58.9194L22.9495 60.7113L23.441 58.5563C24.997 51.7339 27.9945 44.8395 31.3452 39.5442C33.0205 36.8967 34.7669 34.6762 36.4417 33.0705C38.1403 31.4421 39.6625 30.5453 40.8834 30.3499L40.9486 30.3395L41.0119 30.3206C66.8749 22.5858 99.5425 22.5858 125.405 30.3206L125.469 30.3395L125.534 30.3499C126.755 30.5453 128.277 31.4421 129.976 33.0705C131.651 34.6762 133.397 36.8967 135.072 39.5442C138.423 44.8395 141.42 51.7339 142.976 58.5563L143.468 60.7113L144.762 58.9194L147.654 54.9147C151.98 54.618 155.56 55.0112 158.267 55.8122C161.1 56.6503 162.851 57.8942 163.61 59.131C163.979 59.7319 164.116 60.3288 164.053 60.9138C163.99 61.5052 163.715 62.1632 163.128 62.8587C161.935 64.2726 159.537 65.7356 155.604 66.8678L152.765 67.6852L155.517 68.7602C158.964 70.1069 161.289 73.686 162.734 78.9247C164.17 84.1314 164.665 90.7275 164.649 97.6806C164.634 104.621 164.112 111.853 163.546 118.308C163.367 120.348 163.184 122.315 163.01 124.172C162.637 128.167 162.311 131.651 162.186 134.244L162.184 134.268V134.293C162.184 136.175 160.441 137.918 158.559 137.918H135.674C134.125 137.918 133.031 136.76 133.022 135.046L133.264 129.958L133.314 128.91H132.265H34.152Z" stroke="#C3A279" stroke-width="2"/>
<path fill-rule="evenodd" clip-rule="evenodd" d="M42.1853 35.9349C37.0727 42.9952 33.1774 50.7858 30.2559 59.0634C65.5572 55.655 100.859 55.655 136.403 59.0634C133.238 50.7858 129.343 42.9952 124.23 35.9349C96.9632 29.605 69.4526 29.605 42.1853 35.9349ZM145.898 109.946H126.909C123.5 109.946 123.5 115.059 126.909 115.059H145.898C149.307 115.059 149.307 109.946 145.898 109.946ZM129.587 103.616H148.333C156.61 99.7208 159.775 88.5217 151.741 89.4956L133.238 91.9301C126.422 92.6605 124.961 98.26 129.587 103.616ZM20.5176 109.946H39.5073C42.9157 109.946 42.9157 115.059 39.5073 115.059H20.5176C17.1092 115.059 17.1092 109.946 20.5176 109.946ZM36.8293 103.616H18.083C9.80549 99.7208 6.64054 88.5217 14.6746 89.4956L33.1774 91.9301C39.9942 92.6605 41.455 98.26 36.8293 103.616Z" fill="#C3A279"/>
</svg>
