<svg width="167" height="166" viewBox="0 0 167 166" fill="none" xmlns="http://www.w3.org/2000/svg">
<g opacity="0.2">
<path d="M154.634 53.0796H94.4897L98.9593 37.3966H107.585C108.683 37.3966 109.545 36.5341 109.545 35.4363V19.7533C109.545 18.6555 108.683 17.793 107.585 17.793H60.5362C59.4384 17.793 58.5758 18.6555 58.5758 19.7533V35.4363C58.5758 36.5341 59.4384 37.3966 60.5362 37.3966H69.1226L73.5922 53.0796H13.4874C8.07677 53.0796 3.68555 57.4708 3.68555 62.8814V109.93C3.68555 115.341 8.07677 119.732 13.4874 119.732H55.4L62.6926 134.317C63.0454 134.984 63.712 135.415 64.4569 135.415H103.664C104.409 135.415 105.076 134.984 105.429 134.317L112.721 119.732H154.634C160.044 119.732 164.436 115.341 164.436 109.93V62.8814C164.436 57.4708 160.044 53.0796 154.634 53.0796ZM62.4965 33.4759V21.7137H105.625V33.4759H100.096L101.625 28.1437C101.782 27.5556 101.665 26.9283 101.312 26.4186C100.92 25.9089 100.371 25.6344 99.7435 25.6344H68.3776C67.7503 25.6344 67.2014 25.9089 66.8093 26.4186C66.4565 26.9283 66.3388 27.5556 66.4957 28.1437L68.0248 33.4759H62.4965ZM70.9653 29.5552H97.1166L90.4121 53.0796H77.6698L70.9653 29.5552ZM160.515 109.93C160.515 113.184 157.888 115.811 154.634 115.811H111.506C111.388 115.811 111.31 115.85 111.192 115.89C111.074 115.929 110.957 115.929 110.8 115.968C110.682 116.007 110.565 116.086 110.447 116.164C110.369 116.243 110.251 116.282 110.173 116.36C110.055 116.478 109.977 116.595 109.898 116.713C109.859 116.791 109.781 116.831 109.741 116.909L102.449 131.494H65.6723L58.3798 116.909C58.3405 116.831 58.2621 116.752 58.2229 116.674C58.1445 116.556 58.0661 116.439 57.9485 116.36C57.8701 116.282 57.7524 116.203 57.6348 116.164C57.5172 116.086 57.4388 116.047 57.3212 115.968C57.1643 115.929 57.0467 115.89 56.8899 115.89C56.7723 115.85 56.6938 115.811 56.6154 115.811H13.4874C10.2332 115.811 7.60628 113.184 7.60628 109.93V62.8814C7.60628 59.6272 10.2332 57.0003 13.4874 57.0003H76.2191H91.902H154.634C157.888 57.0003 160.515 59.6272 160.515 62.8814V109.93Z" fill="#8C9592"/>
<path d="M150.713 60.9199H17.4084C14.1542 60.9199 11.5273 63.5468 11.5273 66.801V106.008C11.5273 109.263 14.1542 111.889 17.4084 111.889H150.713C153.968 111.889 156.594 109.263 156.594 106.008V66.801C156.594 63.5468 153.968 60.9199 150.713 60.9199ZM152.674 106.008C152.674 107.106 151.811 107.969 150.713 107.969H17.4084C16.3106 107.969 15.4481 107.106 15.4481 106.008V66.801C15.4481 65.7032 16.3106 64.8407 17.4084 64.8407H150.713C151.811 64.8407 152.674 65.7032 152.674 66.801V106.008Z" fill="#8C9592"/>
<path d="M106.761 70.2151C105.976 69.4309 104.761 69.4309 103.977 70.2151C103.193 70.9992 103.193 72.2146 103.977 72.9988L123.384 92.4064C123.776 92.7985 124.286 92.9945 124.757 92.9945C125.227 92.9945 125.776 92.7985 126.129 92.4064C126.913 91.6223 126.913 90.4068 126.129 89.6227L106.761 70.2151Z" fill="#8C9592"/>
<path d="M95.6648 70.2151C94.8806 69.4309 93.6652 69.4309 92.8811 70.2151C92.0969 70.9992 92.0969 72.2146 92.8811 72.9988L123.384 103.502C123.776 103.894 124.286 104.09 124.757 104.09C125.227 104.09 125.776 103.894 126.129 103.502C126.913 102.718 126.913 101.503 126.129 100.718L95.6648 70.2151Z" fill="#8C9592"/>
<path d="M95.6648 81.3108C94.8806 80.5266 93.6652 80.5266 92.8811 81.3108C92.0969 82.0949 92.0969 83.3103 92.8811 84.0945L112.289 103.502C112.681 103.894 113.19 104.09 113.661 104.09C114.131 104.09 114.68 103.894 115.033 103.502C115.817 102.718 115.817 101.503 115.033 100.718L95.6648 81.3108Z" fill="#8C9592"/>
<path d="M55.7898 70.2151C55.0057 69.4309 53.7902 69.4309 53.0061 70.2151C52.2219 70.9992 52.2219 72.2146 53.0061 72.9988L72.4137 92.4064C72.8058 92.7985 73.3155 92.9945 73.786 92.9945C74.2564 92.9945 74.8053 92.7985 75.1582 92.4064C75.9424 91.6223 75.9424 90.4068 75.1582 89.6227L55.7898 70.2151Z" fill="#8C9592"/>
<path d="M44.6941 70.2151C43.9099 69.4309 42.6945 69.4309 41.9104 70.2151C41.1262 70.9992 41.1262 72.2146 41.9104 72.9988L72.4137 103.502C72.8057 103.894 73.3154 104.09 73.7859 104.09C74.2564 104.09 74.8053 103.894 75.1582 103.502C75.9423 102.718 75.9423 101.503 75.1582 100.718L44.6941 70.2151Z" fill="#8C9592"/>
<path d="M44.6941 81.3108C43.9099 80.5266 42.6945 80.5266 41.9104 81.3108C41.1262 82.0949 41.1262 83.3103 41.9104 84.0945L61.318 103.502C61.7101 103.894 62.2198 104.09 62.6903 104.09C63.1607 104.09 63.7096 103.894 64.0625 103.502C64.8467 102.718 64.8467 101.503 64.0625 100.718L44.6941 81.3108Z" fill="#8C9592"/>
<path d="M103.663 119.73H95.8217C94.7239 119.73 93.8613 120.593 93.8613 121.691C93.8613 122.789 94.7239 123.651 95.8217 123.651H103.663C104.761 123.651 105.624 122.789 105.624 121.691C105.624 120.593 104.761 119.73 103.663 119.73Z" fill="#8C9592"/>
<path d="M72.2979 119.73H64.4565C63.3587 119.73 62.4961 120.593 62.4961 121.691C62.4961 122.789 63.3587 123.651 64.4565 123.651H72.2979C73.3957 123.651 74.2583 122.789 74.2583 121.691C74.2583 120.593 73.3957 119.73 72.2979 119.73Z" fill="#8C9592"/>
<path d="M84.0608 115.811C80.8066 115.811 78.1797 118.437 78.1797 121.692C78.1797 124.946 80.8066 127.573 84.0608 127.573C87.315 127.573 89.9419 124.946 89.9419 121.692C89.9419 118.437 87.315 115.811 84.0608 115.811ZM84.0608 123.652C82.963 123.652 82.1004 122.789 82.1004 121.692C82.1004 120.594 82.963 119.731 84.0608 119.731C85.1586 119.731 86.0212 120.594 86.0212 121.692C86.0212 122.789 85.1586 123.652 84.0608 123.652Z" fill="#8C9592"/>
</g>
</svg>
