<svg width="166" height="166" viewBox="0 0 166 166" fill="none" xmlns="http://www.w3.org/2000/svg">
<g opacity="0.2">
<path d="M94.8271 17.1934H71.1738V31.3854H94.8271V17.1934ZM90.0965 26.6547H75.9045V21.924H90.0965V26.6547Z" fill="#8C9592"/>
<path d="M92.462 130.729H73.5393C68.3569 130.729 63.4039 133.205 60.2911 137.354L57.4551 141.136L61.2396 143.972L64.0756 140.19C66.2991 137.228 69.8376 135.459 73.5393 135.459H92.462C96.1637 135.459 99.7023 137.228 101.926 140.19L104.762 143.974L108.546 141.138L105.71 137.351C102.597 133.205 97.6444 130.729 92.462 130.729Z" fill="#8C9592"/>
<path d="M123.211 116.538H119.663L121.555 112.212C124.223 105.988 125.576 99.3985 125.576 92.6242C125.576 89.5067 125.28 86.375 124.698 83.3213L118.269 49.5751C116.898 42.3751 110.951 37.0602 103.803 36.2749C104.103 35.4896 104.288 34.6428 104.288 33.7511V14.8284C104.288 10.9162 101.104 7.73242 97.192 7.73242H68.808C64.8958 7.73242 61.712 10.9162 61.712 14.8284V33.7511C61.712 34.6428 61.8965 35.4872 62.1969 36.2749C55.0489 37.0602 49.1001 42.3774 47.7305 49.5751L41.3016 83.319C40.7197 86.375 40.424 89.5043 40.424 92.6242C40.424 99.3985 41.777 105.988 44.4451 112.212L46.3019 116.538H42.7894C38.8771 116.538 35.6934 119.721 35.6934 123.634V142.556C35.6934 149.078 40.9988 154.383 47.52 154.383H118.48C125.001 154.383 130.307 149.078 130.307 142.556V123.634C130.307 119.721 127.123 116.538 123.211 116.538ZM113.622 50.4598L120.051 84.206C120.578 86.9711 120.845 89.8024 120.845 92.6242C120.845 98.7551 119.62 104.716 117.207 110.35L114.002 117.843L113.719 118.411C112.295 119.71 111.384 121.559 111.384 123.634V129.433C109.967 127.936 108.366 126.645 106.653 125.531V41.8405C110.173 43.3567 112.869 46.5073 113.622 50.4598ZM64.0773 55.0391H101.923V64.5004H64.0773V55.0391ZM101.923 103.732L96.9886 98.7977L101.923 93.8636V103.732ZM83 70.2103L90.2994 77.5097L83 84.8091L75.7006 77.5097L83 70.2103ZM72.356 74.1651L67.4219 69.2311H77.2901L72.356 74.1651ZM88.7099 69.2311H98.5781L93.644 74.1651L88.7099 69.2311ZM79.6554 88.1537L72.356 95.4531L65.0566 88.1537L72.356 80.8543L79.6554 88.1537ZM83 91.4983L90.2994 98.7977L83 106.097L75.7006 98.7977L83 91.4983ZM86.3446 88.1537L93.644 80.8543L100.943 88.1537L93.644 95.4531L86.3446 88.1537ZM101.923 82.4438L96.9886 77.5097L101.923 72.5756V82.4438ZM64.0773 72.5756L69.0114 77.5097L64.0773 82.4438V72.5756ZM64.0773 93.8636L69.0114 98.7977L64.0773 103.732V93.8636ZM72.356 102.142L77.2901 107.076H67.4219L72.356 102.142ZM93.644 102.142L98.5781 107.076H88.7099L93.644 102.142ZM101.923 40.8471V50.3084H64.0773V40.8471H68.808H97.192H101.923ZM64.0773 111.807H101.923V123.097C98.9329 121.924 95.7326 121.268 92.4613 121.268H73.5387C70.2674 121.268 67.0671 121.924 64.0773 123.097V111.807ZM66.4427 14.8284C66.4427 13.5251 67.5023 12.4631 68.808 12.4631H97.192C98.4977 12.4631 99.5573 13.5251 99.5573 14.8284V33.7511C99.5573 35.0544 98.4977 36.1164 97.192 36.1164H68.808C67.5023 36.1164 66.4427 35.0544 66.4427 33.7511V14.8284ZM45.9494 84.206L52.3784 50.4598C53.1306 46.5073 55.8271 43.3543 59.3467 41.8405V125.531C57.6342 126.645 56.0329 127.936 54.616 129.433V123.634C54.616 121.578 53.7243 119.743 52.3264 118.444L48.7949 110.348C46.3799 104.716 45.1547 98.7528 45.1547 92.6242C45.1547 89.8024 45.422 86.9711 45.9494 84.206ZM125.576 142.556C125.576 146.469 122.392 149.652 118.48 149.652H47.52C43.6078 149.652 40.424 146.469 40.424 142.556V123.634C40.424 122.328 41.4837 121.268 42.7894 121.268H47.52C48.8257 121.268 49.8854 122.328 49.8854 123.634V135.46H55.7987L56.5083 134.517C60.5081 129.183 66.8755 125.999 73.5387 125.999H92.4613C99.1245 125.999 105.492 129.183 109.492 134.517L110.201 135.46H116.115V123.634C116.115 122.328 117.174 121.268 118.48 121.268H123.211C124.516 121.268 125.576 122.328 125.576 123.634V142.556Z" fill="#8C9592"/>
</g>
</svg>
