<svg width="166" height="166" viewBox="0 0 166 166" fill="none" xmlns="http://www.w3.org/2000/svg">
<g opacity="0.2">
<path d="M163.586 83.479V83.0961C163.539 79.8516 162.258 76.8224 159.959 74.5238L153.207 67.7716L158.846 62.1327C161.192 59.7862 162.485 56.6733 162.485 53.369C162.485 50.0646 161.192 46.9398 158.858 44.6052L122.091 7.83861C119.744 5.49205 116.631 4.21099 113.327 4.21099C110.023 4.21099 106.898 5.50402 104.564 7.83861L98.9245 13.4775L92.1722 6.72527C89.8257 4.37872 86.7129 3.09766 83.4086 3.09766C80.0923 3.09766 76.9796 4.39069 74.645 6.72527L67.8927 13.4775L62.2537 7.83861C59.9071 5.49205 56.7944 4.21099 53.4901 4.21099C50.1857 4.21099 47.061 5.50402 44.7265 7.83861L7.9597 44.6052C5.61315 46.9518 4.33208 50.0646 4.33208 53.369C4.33208 56.6733 5.62512 59.7981 7.9597 62.1327L13.5987 67.7716L6.84637 74.5238C4.52376 76.8464 3.23072 79.9352 3.21875 83.2276V83.3594C3.24269 86.6518 4.52376 89.7406 6.84637 92.0632L13.5987 98.8274L7.97168 104.454C5.62513 106.801 4.34407 109.914 4.34407 113.218C4.34407 116.522 5.6371 119.647 7.97168 121.982L44.7383 158.748C47.0849 161.095 50.1977 162.376 53.502 162.376C56.8183 162.376 59.9311 161.083 62.2656 158.736L67.8927 153.11L74.645 159.862C77.0395 162.256 80.1762 163.465 83.3249 163.489H83.5043C86.653 163.465 89.7897 162.256 92.1842 159.862L98.9485 153.11L104.576 158.748C106.994 161.167 110.167 162.376 113.339 162.376C116.512 162.376 119.696 161.167 122.103 158.748L158.87 121.982C161.216 119.635 162.497 116.522 162.497 113.218C162.497 109.914 161.204 106.789 158.87 104.454L153.242 98.8154L159.995 92.0632C162.293 89.7646 163.575 86.7235 163.622 83.491M108.467 11.7056C109.771 10.4006 111.507 9.68237 113.351 9.68237C115.195 9.68237 116.943 10.4006 118.248 11.7056L155.014 48.4722C156.319 49.7772 157.038 51.5133 157.038 53.369C157.038 55.2247 156.319 56.9488 155.014 58.2657L149.375 63.9046L102.827 17.3565L108.467 11.7176V11.7056ZM145.484 67.7716L133.848 79.4085L87.2996 32.8604L98.9365 21.2235L145.484 67.7716ZM129.969 83.2875L83.4206 129.835L36.8726 83.2875L83.4206 36.7397L129.969 83.2875ZM78.524 10.5923C79.829 9.2873 81.5649 8.56904 83.4086 8.56904C85.2523 8.56904 86.9882 9.2873 88.2932 10.5923L95.0456 17.3445L83.4086 28.9814L71.7597 17.3325L78.512 10.5803L78.524 10.5923ZM67.8927 21.2235L79.5416 32.8724L32.9936 79.4205L21.3447 67.7716L67.8927 21.2235ZM11.8267 58.2537C10.5217 56.9488 9.80347 55.2127 9.80347 53.357C9.80347 51.5013 10.5217 49.7772 11.8267 48.4602L48.5935 11.6936C49.8984 10.3887 51.6344 9.67039 53.4781 9.67039C55.3218 9.67039 57.0577 10.3887 58.3627 11.6936L64.0017 17.3325L17.4537 63.8806L11.8147 58.2417L11.8267 58.2537ZM10.7014 88.1843C9.39641 86.8793 8.678 85.1432 8.678 83.2995C8.678 81.4558 9.39641 79.7197 10.7014 78.4028L17.4537 71.6506L29.1027 83.2995L17.4537 94.9484L10.7014 88.1962V88.1843ZM58.3747 154.869C57.0697 156.174 55.3338 156.893 53.4781 156.893C51.6224 156.893 49.8984 156.174 48.5935 154.869L11.8267 118.103C10.5217 116.798 9.80347 115.062 9.80347 113.206C9.80347 111.35 10.5217 109.626 11.8267 108.321L17.4537 102.694L64.0017 149.243L58.3747 154.869ZM67.8807 145.364L21.3327 98.8154L32.9817 87.1665L79.5296 133.715L67.8807 145.364ZM88.2932 155.995C85.5995 158.689 81.2058 158.689 78.512 155.995L71.7597 149.243L83.4086 137.594L95.0575 149.243L88.2932 156.007V155.995ZM87.2876 133.715L133.836 87.1665L145.484 98.8154L98.9365 145.364L87.2876 133.715ZM154.991 108.321C156.295 109.626 157.014 111.362 157.014 113.218C157.014 115.074 156.295 116.798 154.991 118.103L118.224 154.869C115.53 157.563 111.136 157.563 108.443 154.869L102.804 149.231L149.352 102.682L154.991 108.321ZM156.104 88.1843L149.352 94.9365L137.703 83.2875L149.34 71.6506L156.092 78.4028C157.397 79.7077 158.115 81.4438 158.115 83.2995C158.115 85.1552 157.397 86.8793 156.092 88.1843" fill="#8C9592"/>
</g>
</svg>
