<svg width="166" height="167" viewBox="0 0 166 167" fill="none" xmlns="http://www.w3.org/2000/svg">
<g opacity="0.2">
<path d="M83.001 9.32812C42.3354 9.32812 9.30078 42.3628 9.30078 83.0283C9.30078 123.694 42.3354 156.729 83.001 156.729C123.667 156.729 156.701 123.694 156.701 83.0283C156.701 42.3628 123.667 9.32812 83.001 9.32812ZM83.001 15.7368C120.203 15.7368 150.292 45.8263 150.292 83.0283C150.292 120.23 120.203 150.32 83.001 150.32C45.799 150.32 15.7095 120.23 15.7095 83.0283C15.7095 45.8263 45.799 15.7368 83.001 15.7368ZM83.001 22.1455C49.4143 22.1455 22.1182 49.4416 22.1182 83.0283C22.1182 116.615 49.4143 143.911 83.001 143.911C116.588 143.911 143.884 116.615 143.884 83.0283C143.884 49.4416 116.588 22.1455 83.001 22.1455ZM83.001 28.5543C109.571 28.5543 131.634 47.5228 136.474 72.6642C122.139 65.11 103.457 60.5978 83.001 60.5978C62.5446 60.5978 43.863 65.11 29.5283 72.6642C34.3677 47.5228 56.4309 28.5543 83.001 28.5543ZM83.001 67.0065C104.537 67.0065 123.906 72.3364 137.425 80.575C137.461 81.3897 137.475 82.2046 137.475 83.0283C137.475 85.2868 137.34 87.5016 137.074 89.6874C135.628 89.5264 134.171 89.437 132.668 89.437C109.7 89.437 91.0119 108.125 91.0119 131.094C91.0119 133.069 91.1538 134.995 91.4124 136.902C88.6738 137.324 85.8593 137.502 83.001 137.502C80.1426 137.502 77.3281 137.324 74.5895 136.902C74.8482 134.995 74.9901 133.069 74.9901 131.094C74.9901 108.125 56.3018 89.437 33.3335 89.437C31.8305 89.437 30.3741 89.5264 28.9275 89.6874C28.6615 87.5016 28.5269 85.2868 28.5269 83.0283C28.5269 82.2046 28.5409 81.3897 28.577 80.575C42.0955 72.3364 61.4647 67.0065 83.001 67.0065ZM83.001 75.0174C75.9601 75.0174 70.1835 80.7939 70.1835 87.8349C70.1835 94.8758 75.9601 100.652 83.001 100.652C90.0419 100.652 95.8184 94.8758 95.8184 87.8349C95.8184 80.7939 90.0419 75.0174 83.001 75.0174ZM83.001 81.4261C86.5784 81.4261 89.4097 84.2575 89.4097 87.8349C89.4097 91.4122 86.5784 94.2436 83.001 94.2436C79.4236 94.2436 76.5923 91.4122 76.5923 87.8349C76.5923 84.2575 79.4236 81.4261 83.001 81.4261ZM33.3335 95.8457C52.8383 95.8457 68.5814 111.589 68.5814 131.094C68.5814 132.583 68.4578 134.063 68.281 135.5C49.4494 130.24 34.7474 115.119 30.079 96.046C31.1557 95.9398 32.2447 95.8457 33.3335 95.8457ZM132.668 95.8457C133.757 95.8457 134.846 95.9398 135.923 96.046C131.255 115.119 116.553 130.24 97.721 135.5C97.5441 134.063 97.4206 132.583 97.4206 131.094C97.4206 111.589 113.164 95.8457 132.668 95.8457Z" fill="#8C9592"/>
</g>
</svg>
