<svg width="167" height="166" viewBox="0 0 167 166" fill="none" xmlns="http://www.w3.org/2000/svg">
<g opacity="0.2">
<path d="M84.296 79.5859C83.3304 79.5859 59.1386 84.3464 44.8055 87.1816C44.1062 87.3207 43.6055 87.9327 43.6055 88.644C43.6055 89.3552 44.1081 89.9672 44.8055 90.1063C59.1386 92.9435 83.3304 97.704 84.296 97.704C89.2909 97.704 93.356 93.6409 93.356 88.644C93.354 83.649 89.2909 79.5859 84.296 79.5859Z" fill="#8C9592"/>
<path d="M135.661 139.079C135.744 139.011 135.844 138.979 135.919 138.902C149.251 125.208 156.594 107.142 156.594 88.0286C156.594 47.815 123.879 15.0996 83.6654 15.0996C83.6236 15.0996 83.5839 15.1016 83.5422 15.1016C83.5005 15.1016 83.4607 15.0996 83.421 15.0996C55.8834 15.0996 31.8843 30.5294 19.6076 53.1953C13.955 63.5527 10.7363 75.4221 10.7363 88.0286C10.7363 107.277 18.1691 125.437 31.6637 139.16C32.0651 139.567 32.5618 139.782 33.0784 139.911C33.4102 140.032 33.7559 140.106 34.1056 140.106C34.8268 140.106 35.55 139.845 36.1222 139.319L43.9683 132.109C45.1802 130.994 45.2597 129.111 44.1451 127.897C43.0305 126.687 41.1469 126.607 39.933 127.72L34.1175 133.064C23.4462 121.346 17.3545 106.445 16.7584 90.5996H25.1429C26.79 90.5996 28.1232 89.2664 28.1232 87.6194C28.1232 85.9723 26.79 84.6391 25.1429 84.6391H16.9373C17.3942 74.3294 20.2016 64.6197 24.8449 56.0385C27.7715 50.678 31.4213 45.7705 35.6434 41.4213L41.5503 47.3282C42.1324 47.9103 42.8954 48.2004 43.6583 48.2004C44.4213 48.2004 45.1842 47.9103 45.7663 47.3282C46.9306 46.1659 46.9306 44.2764 45.7663 43.1141L39.9846 37.3324C50.96 27.8611 65.0208 21.8767 80.4427 21.1416V29.3413C80.4427 30.9884 81.7759 32.3216 83.423 32.3216C85.0701 32.3216 86.4032 30.9884 86.4032 29.3413V21.1356C102.177 21.835 116.536 28.0498 127.604 37.8947L121.701 43.7976C120.537 44.9599 120.537 46.8493 121.701 48.0117C122.284 48.5938 123.047 48.8839 123.81 48.8839C124.572 48.8839 125.335 48.5938 125.918 48.0117L131.876 42.0531C142.456 53.2947 149.18 68.196 149.909 84.6391H141.703C140.056 84.6391 138.723 85.9723 138.723 87.6194C138.723 89.2664 140.056 90.5996 141.703 90.5996H150.574C149.984 106.286 143.998 121.068 133.511 132.739L127.696 127.666C126.458 126.587 124.574 126.712 123.492 127.954C122.411 129.194 122.538 131.078 123.78 132.158L131.743 139.104C132.307 139.597 133.005 139.84 133.7 139.84C134.121 139.84 134.542 139.748 134.934 139.571C134.956 139.563 134.974 139.547 134.993 139.538C135.23 139.42 135.452 139.263 135.661 139.079Z" fill="#8C9592"/>
</g>
</svg>
