<svg width="166" height="166" viewBox="0 0 166 166" fill="none" xmlns="http://www.w3.org/2000/svg">
<g opacity="0.2">
<path d="M81.9253 70.0909C81.9295 70.1247 81.9591 70.1416 81.9696 70.1712C81.9781 70.1987 81.9612 70.2219 81.9739 70.2472L82.7407 71.7535C82.7618 71.7957 82.7978 71.8148 82.8273 71.8486C82.84 71.8633 82.8358 71.8887 82.8527 71.9014L83.8815 72.852C83.9005 72.8689 83.9259 72.8626 83.9428 72.8774C83.9618 72.89 83.9618 72.9175 83.9829 72.9259L85.3561 73.6907C85.3983 73.7139 85.4406 73.7139 85.4849 73.7245C85.5018 73.7287 85.5103 73.7498 85.5272 73.752L87.1116 74.016C87.1411 74.0203 87.1686 74.0224 87.1982 74.0224C87.1982 74.0224 87.2003 74.0224 87.2024 74.0224C87.2257 74.0224 87.2489 74.0203 87.2721 74.016L88.9347 73.7794C88.9495 73.7773 88.9558 73.7625 88.9685 73.7583C89.0129 73.7498 89.0593 73.7498 89.1016 73.7266L90.4494 73.04C90.479 73.0252 90.4832 72.9914 90.5064 72.9724C90.5318 72.9555 90.5635 72.9619 90.5846 72.9386L91.6937 71.8042C91.7064 71.7894 91.7021 71.7683 91.7127 71.7556C91.7338 71.7303 91.7634 71.7155 91.7803 71.6859L92.3887 70.5493C92.4014 70.5261 92.3866 70.5029 92.3951 70.4796C92.4077 70.45 92.4373 70.4331 92.4415 70.4015L92.7838 68.6333C92.7901 68.5973 92.7648 68.572 92.7648 68.5382C92.7648 68.5044 92.7922 68.479 92.7859 68.4431L92.4943 66.751C92.488 66.7193 92.4563 66.7066 92.4479 66.677C92.4394 66.6475 92.4542 66.6179 92.4394 66.5904L91.6472 65.1138C91.6303 65.0842 91.5965 65.08 91.5775 65.0567C91.5564 65.0314 91.5606 64.9976 91.5352 64.9743L90.3755 63.9181C90.3522 63.8969 90.3226 63.9054 90.2973 63.8885C90.2719 63.8716 90.2656 63.8399 90.2403 63.8272L88.8417 63.1913C88.827 63.185 88.8122 63.1956 88.7974 63.1892C88.7826 63.185 88.7784 63.166 88.7615 63.1618L88.5756 63.1111C88.5587 63.1068 88.5439 63.1195 88.5291 63.1174C88.5122 63.1132 88.5037 63.0963 88.4847 63.0942L87.1454 62.9611C87.1158 62.959 87.101 62.9822 87.0714 62.9843C87.0461 62.9843 87.0271 62.9611 86.9975 62.9674L85.4131 63.2589C85.3793 63.2653 85.3687 63.2991 85.337 63.3075C85.3053 63.3202 85.2716 63.3033 85.2399 63.3223L83.7632 64.1927C83.74 64.2075 83.7378 64.237 83.7188 64.2539C83.6998 64.2687 83.6745 64.2624 83.6555 64.2814L82.783 65.1792C82.7597 65.2025 82.7661 65.2363 82.7492 65.2616C82.7302 65.2891 82.6964 65.2933 82.6837 65.3229L81.9443 66.9073C81.9316 66.9327 81.9485 66.9559 81.9401 66.9834C81.9316 67.0087 81.902 67.0214 81.8978 67.0467L81.6866 68.3945C81.6802 68.4262 81.7056 68.4474 81.7056 68.4769C81.7056 68.5065 81.6802 68.5276 81.6866 68.5593L81.9253 70.0909Z" fill="#8C9592"/>
<path d="M102.821 82.7358L102.506 81.2042C102.5 81.1747 102.468 81.162 102.46 81.1366C102.449 81.1071 102.464 81.0775 102.447 81.0479L101.655 79.6747C101.64 79.6473 101.606 79.6431 101.587 79.6219C101.568 79.6008 101.572 79.567 101.549 79.5459L100.279 78.4114C100.26 78.3945 100.235 78.4009 100.214 78.3882C100.193 78.3734 100.191 78.346 100.17 78.3354L99.0859 77.7798C99.0563 77.765 99.0267 77.7819 98.995 77.7713C98.9633 77.7629 98.9486 77.7291 98.9148 77.727L97.1487 77.4904C97.1191 77.4883 97.098 77.5115 97.0705 77.5136C97.0409 77.5136 97.0177 77.4883 96.986 77.4946L95.6382 77.7312C95.6107 77.7354 95.5981 77.765 95.5748 77.7735C95.5474 77.7819 95.5241 77.765 95.4988 77.7777L94.151 78.4368C94.1214 78.4516 94.115 78.4854 94.0918 78.5023C94.0665 78.5213 94.0348 78.515 94.0094 78.5382L92.7968 79.7529C92.7715 79.7761 92.7778 79.8099 92.7588 79.8374C92.7398 79.8649 92.706 79.8712 92.6891 79.9008L92.0828 81.1937C92.0743 81.2169 92.087 81.238 92.0807 81.2613C92.0743 81.2845 92.0469 81.2951 92.0426 81.3183L91.7511 82.8499C91.7448 82.8837 91.7722 82.9091 91.7722 82.9429C91.7701 82.9767 91.7427 83.002 91.749 83.0358L92.0131 84.6202C92.0194 84.6498 92.0448 84.6646 92.0532 84.6899C92.0617 84.7132 92.0469 84.7364 92.0574 84.7596L92.7715 86.2659C92.7926 86.3081 92.8285 86.3272 92.8581 86.361C92.8708 86.3779 92.8665 86.4032 92.8813 86.4159L93.9651 87.4722C93.9862 87.4933 94.0158 87.4869 94.039 87.5038C94.0643 87.5207 94.0665 87.5524 94.0918 87.5651L95.4903 88.2791C95.5283 88.2982 95.5685 88.2982 95.6065 88.3087C95.6234 88.3129 95.6297 88.3298 95.6445 88.332L96.9121 88.5432C96.9416 88.5474 96.9691 88.5495 96.9987 88.5495C97.0198 88.5495 97.043 88.5474 97.0599 88.5453L98.8302 88.3341C98.8471 88.332 98.8514 88.3172 98.8683 88.3151C98.9169 88.3045 98.9676 88.3024 99.0162 88.277L100.571 87.4574C100.601 87.4426 100.605 87.4088 100.628 87.3876C100.653 87.3707 100.685 87.3771 100.706 87.3538L101.845 86.1666C101.862 86.1497 101.853 86.1243 101.868 86.1074C101.893 86.0736 101.927 86.0567 101.944 86.0166L102.58 84.5906C102.588 84.5674 102.574 84.5442 102.58 84.5188C102.588 84.4914 102.616 84.4766 102.62 84.4491L102.831 82.9154C102.836 82.8816 102.808 82.8583 102.808 82.8267C102.806 82.795 102.829 82.7696 102.821 82.7358Z" fill="#8C9592"/>
<path d="M75.4627 91.034L75.1986 89.6355C75.1944 89.6101 75.167 89.5996 75.1585 89.5763C75.1522 89.551 75.1648 89.5277 75.1543 89.5045L74.4719 88.0764C74.4571 88.0468 74.4255 88.0405 74.4043 88.0173C74.3874 87.9898 74.3938 87.956 74.3705 87.9328L73.2614 86.8237C73.2403 86.8026 73.2086 86.8089 73.1875 86.792C73.1622 86.773 73.1579 86.7434 73.1347 86.7286L71.6284 85.9364C71.5989 85.9216 71.5693 85.9385 71.5397 85.928C71.5101 85.9174 71.4954 85.8857 71.4658 85.8836L69.9891 85.647C69.9574 85.6428 69.9363 85.666 69.9046 85.6681C69.875 85.666 69.856 85.6428 69.8264 85.647L68.2674 85.8836C68.2378 85.8878 68.223 85.9195 68.1956 85.928C68.166 85.9364 68.1385 85.9216 68.1111 85.9343L66.9492 86.5153C66.9259 86.5279 66.9217 86.5575 66.9027 86.5702C66.8794 86.585 66.8541 86.5765 66.833 86.5955L65.5126 87.7828C65.4831 87.8081 65.4873 87.8483 65.4683 87.8778C65.4493 87.9074 65.4091 87.9138 65.3922 87.9454L64.6275 89.5298C64.6148 89.5594 64.6317 89.5869 64.6233 89.6165C64.6127 89.646 64.581 89.6608 64.5789 89.6904L64.3676 91.3255C64.3634 91.3593 64.3909 91.3804 64.393 91.4142C64.393 91.4459 64.3697 91.4692 64.3761 91.5009L64.6908 93.0346C64.6972 93.0663 64.7268 93.0789 64.7352 93.1064C64.7437 93.1317 64.731 93.155 64.7437 93.1782L65.4852 94.5493C65.5084 94.5894 65.5443 94.6084 65.5739 94.6401C65.5866 94.6528 65.5823 94.676 65.595 94.6866L66.759 95.7428C66.7802 95.764 66.8118 95.7576 66.8351 95.7745C66.8583 95.7893 66.8625 95.8189 66.8858 95.8295L68.3392 96.516C68.3899 96.5414 68.4448 96.5456 68.4977 96.5541C68.5082 96.5541 68.5124 96.5667 68.5251 96.5667L70.213 96.6977C70.2278 96.6998 70.2405 96.6998 70.2553 96.6998H70.2574C70.2849 96.6998 70.3081 96.6977 70.3335 96.6935L71.5503 96.5097C71.5672 96.5076 71.5756 96.4886 71.5925 96.4843C71.6369 96.4738 71.6834 96.4738 71.7277 96.4484L73.2593 95.6034C73.2847 95.5886 73.2868 95.5591 73.3079 95.5422C73.3291 95.5253 73.3586 95.5316 73.3797 95.5105L74.3579 94.507C74.3726 94.4922 74.3663 94.4711 74.3769 94.4584C74.4001 94.431 74.4297 94.4162 74.4466 94.3866L75.1585 93.0388C75.1733 93.0113 75.1564 92.986 75.1648 92.9585C75.1775 92.9247 75.2092 92.9078 75.2134 92.874L75.4775 91.2093C75.4817 91.1755 75.4564 91.1523 75.4543 91.1185C75.4437 91.091 75.4691 91.0657 75.4627 91.034Z" fill="#8C9592"/>
<path d="M75.6254 71.8768C75.6212 71.8472 75.5916 71.8324 75.5832 71.8071C75.5726 71.7775 75.5895 71.7522 75.5747 71.7247L74.8903 70.3515C74.8755 70.322 74.8417 70.3177 74.8248 70.2966C74.8079 70.2691 74.8121 70.2375 74.791 70.2142L73.8657 69.2889C73.8467 69.2699 73.8213 69.2762 73.8002 69.2615C73.7791 69.2446 73.7791 69.2171 73.7558 69.2044L72.201 68.3066C72.163 68.2855 72.1249 68.3024 72.0848 68.2918C72.0468 68.2791 72.0278 68.2432 71.9855 68.239L71.168 68.1608L70.2976 67.9834C70.2574 67.977 70.2279 68.0045 70.1898 68.0066C70.1497 68.0045 70.118 67.977 70.0779 67.9855L68.4935 68.3277C68.4681 68.334 68.4554 68.3615 68.4322 68.3721C68.4069 68.3805 68.3815 68.3679 68.3562 68.3805L66.9851 69.122C66.9576 69.1368 66.9555 69.1685 66.9323 69.1854C66.9091 69.2044 66.8774 69.1981 66.8541 69.2213L65.7725 70.3558C65.7472 70.3811 65.7556 70.4149 65.7366 70.4424C65.7176 70.4698 65.6838 70.4762 65.669 70.5057L65.0374 71.9317C65.0247 71.9592 65.0416 71.9845 65.0331 72.0141C65.0247 72.0416 64.9951 72.0585 64.993 72.0859L64.8071 73.6978C64.8029 73.7316 64.8303 73.7527 64.8324 73.7865C64.8345 73.8182 64.8092 73.8415 64.8176 73.8731L65.1873 75.5104C65.1916 75.5273 65.2085 75.5357 65.2148 75.5526C65.219 75.5674 65.2085 75.5801 65.2148 75.5949L65.3225 75.8589C65.3247 75.8674 65.3331 75.8695 65.3373 75.878C65.3394 75.8843 65.3352 75.8906 65.3394 75.897L65.7598 76.7399C65.781 76.7821 65.8169 76.8032 65.8465 76.837C65.8612 76.8539 65.857 76.8793 65.8739 76.892L67.1943 78.1067C67.2133 78.1257 67.2407 78.1194 67.2619 78.1342C67.283 78.1489 67.283 78.1764 67.3062 78.187L67.809 78.451C67.809 78.451 67.8111 78.451 67.8132 78.451L68.523 78.8207C68.5653 78.844 68.6097 78.844 68.654 78.8545C68.6709 78.8566 68.6752 78.8735 68.6921 78.8756L70.1983 79.089C70.2236 79.0932 70.2448 79.0954 70.268 79.0954H70.2722C70.3018 79.0954 70.325 79.0932 70.3546 79.089L72.0172 78.825C72.0341 78.8228 72.0425 78.8038 72.0594 78.7975C72.1038 78.7869 72.1503 78.7869 72.1904 78.7637L73.4326 78.0771C73.4537 78.0644 73.4558 78.037 73.4749 78.0243C73.496 78.0095 73.5234 78.0158 73.5403 77.9968L74.6748 76.9131C74.6917 76.8983 74.6875 76.8751 74.7001 76.8624C74.7255 76.8328 74.7572 76.8159 74.7783 76.78L75.5177 75.3815C75.5325 75.3562 75.5177 75.3308 75.5261 75.3055C75.5388 75.2738 75.5684 75.259 75.5705 75.2252L75.8599 73.5605C75.8663 73.5288 75.8409 73.5056 75.8409 73.476C75.843 73.4422 75.8684 73.4211 75.8641 73.3873L75.6254 71.8768Z" fill="#8C9592"/>
<path d="M137.979 76.8597C137.979 76.8534 137.97 76.8491 137.97 76.8428C137.97 76.8344 137.974 76.8301 137.974 76.8238L137.155 71.0417C137.115 70.7735 136.884 70.596 136.62 70.6087L135.266 65.4625C135.262 65.4498 135.249 65.4477 135.245 65.4351C135.241 65.4245 135.249 65.4118 135.245 65.4013L133.132 60.0396C133.13 60.0312 133.12 60.029 133.116 60.0206C133.111 60.0121 133.118 60.0037 133.113 59.9952L130.5 54.8216C130.496 54.8111 130.483 54.8111 130.477 54.8026C130.471 54.792 130.479 54.7815 130.471 54.7709L127.355 49.9374C127.35 49.929 127.338 49.929 127.329 49.9205C127.323 49.91 127.329 49.8973 127.321 49.8888L123.675 45.4271C123.675 45.4229 123.662 45.425 123.653 45.4166C123.647 45.4102 123.649 45.3976 123.643 45.3891L119.874 41.6415C120.003 41.4218 119.982 41.1408 119.775 40.9739L115.26 37.2769C115.062 37.1122 114.791 37.146 114.601 37.3086L110.112 34.4673C110.104 34.463 110.095 34.4673 110.087 34.463C110.078 34.4567 110.076 34.444 110.066 34.4398L105.3 32.0378C105.312 31.8181 105.226 31.6069 105.014 31.5181L99.6549 29.3C99.638 29.2936 99.6254 29.3042 99.6106 29.3C99.5979 29.2957 99.5937 29.281 99.581 29.2767L93.9532 27.8782C93.9468 27.8761 93.9405 27.8824 93.932 27.8803C93.9236 27.8803 93.9215 27.8719 93.9151 27.8698L88.1838 26.8917C87.9388 26.841 87.7022 27.0142 87.6177 27.255L82.2877 26.9614C82.2793 26.9614 82.2708 26.9719 82.2581 26.9719C82.2476 26.9719 82.2412 26.9614 82.2285 26.9614L76.4719 27.2783C76.4634 27.2783 76.455 27.2909 76.4465 27.2909C76.4359 27.293 76.4275 27.2825 76.4169 27.2846L70.7152 28.1824C70.7046 28.1845 70.7004 28.1951 70.6898 28.1972C70.6814 28.1993 70.6729 28.1909 70.6624 28.193L65.0641 29.6464C65.0514 29.6506 65.0472 29.6633 65.0367 29.6676C65.024 29.6718 65.0134 29.6633 65.0028 29.6676L59.6433 31.7801C59.6328 31.7843 59.6307 31.7949 59.6222 31.7991C59.6138 31.8033 59.6032 31.797 59.5926 31.8012L54.4422 34.4419C54.4338 34.4461 54.4338 34.4588 54.4253 34.463C54.4169 34.4673 54.4084 34.463 54.4 34.4673L49.5158 37.5579C49.5052 37.5642 49.5073 37.579 49.4947 37.5875C49.4862 37.5938 49.4714 37.5896 49.4609 37.598L45.0245 41.2675C45.0161 41.2739 45.0182 41.2844 45.0118 41.2908C45.0034 41.2992 44.9907 41.295 44.9823 41.3034L41.2346 45.1124C41.0255 45.0194 40.7825 45.0342 40.6262 45.2159L36.8511 49.6522C36.8426 49.6649 36.8468 49.6797 36.8384 49.6924C36.8299 49.705 36.813 49.705 36.8046 49.7177L33.7668 54.6294C33.7625 54.6357 33.7668 54.6421 33.7625 54.6484C33.7604 54.6547 33.752 54.6547 33.7499 54.6611L31.0014 59.8115C30.8705 60.0544 30.9634 60.3502 31.1979 60.4959L29.2607 65.4097C29.2565 65.4203 29.2649 65.4329 29.2628 65.4435C29.2586 65.4562 29.2438 65.4583 29.2417 65.471L27.7883 71.0439C27.7861 71.0544 27.7946 71.0629 27.7925 71.0713C27.7904 71.0819 27.7777 71.0861 27.7777 71.0967L26.8777 76.8259C26.8735 76.8365 26.8862 76.8449 26.8841 76.8555C26.882 76.866 26.8714 76.8703 26.8714 76.8808L26.5566 82.6629C26.5566 82.6734 26.5672 82.6819 26.5672 82.6924C26.5672 82.703 26.5566 82.7114 26.5566 82.722L26.8714 88.4533C26.8714 88.4639 26.882 88.4702 26.8841 88.4787C26.8841 88.4893 26.8735 88.4977 26.8777 88.5083L27.7777 94.2122C27.7777 94.2227 27.7883 94.2269 27.7904 94.2375C27.7925 94.2459 27.7861 94.2544 27.7861 94.2628L29.2396 99.8864C29.2438 99.8991 29.2565 99.9054 29.2628 99.9181C29.2649 99.9287 29.2565 99.9393 29.2607 99.9498L31.3732 105.284C31.3775 105.295 31.3901 105.299 31.3944 105.307C31.3986 105.316 31.3901 105.324 31.3944 105.333L33.8492 110.124C33.7013 110.295 33.6421 110.527 33.7668 110.73L36.8046 115.642C36.8152 115.659 36.8342 115.665 36.8447 115.68C36.8511 115.688 36.8468 115.701 36.8553 115.709L40.6304 120.093C40.6325 120.097 40.6389 120.095 40.6431 120.099C40.6452 120.104 40.6431 120.108 40.6473 120.112L44.6612 124.337C44.7647 124.447 44.9041 124.502 45.0456 124.502C45.1618 124.502 45.2717 124.451 45.3667 124.373L49.4609 127.759C49.4735 127.768 49.4862 127.764 49.4989 127.772C49.5073 127.778 49.5073 127.793 49.5158 127.799L54.4 130.89C54.4106 130.896 54.4211 130.894 54.4317 130.899C54.438 130.903 54.438 130.911 54.4465 130.916L59.5969 133.529C59.6053 133.535 59.618 133.533 59.6285 133.537C59.6349 133.539 59.6349 133.548 59.6433 133.55L65.0028 135.662C65.0155 135.669 65.0324 135.667 65.0451 135.671C65.0536 135.673 65.0536 135.681 65.062 135.684L70.6602 137.162C70.675 137.167 70.6898 137.164 70.7046 137.169C70.7067 137.169 70.7088 137.173 70.7131 137.173L76.4148 138.071C76.4317 138.073 76.4486 138.073 76.4613 138.075C76.4634 138.075 76.4634 138.077 76.4676 138.077L82.2243 138.419C82.2328 138.419 82.2454 138.419 82.2539 138.419C82.2666 138.419 82.275 138.419 82.2877 138.419L88.0444 138.077C88.0465 138.077 88.0486 138.073 88.0507 138.073C88.0676 138.073 88.0866 138.073 88.1014 138.069L93.368 137.171C93.4631 137.327 93.6109 137.443 93.7947 137.443C93.837 137.443 93.8771 137.439 93.9194 137.428L99.5704 136.081C99.5768 136.079 99.581 136.07 99.5894 136.068C99.6106 136.062 99.6317 136.064 99.6507 136.055L105.01 133.837C105.014 133.835 105.014 133.831 105.019 133.829C105.023 133.827 105.031 133.827 105.036 133.824L110.292 131.289C110.543 131.165 110.642 130.871 110.539 130.618L114.99 127.799C115.003 127.793 115 127.778 115.011 127.772C115.022 127.764 115.036 127.768 115.045 127.759L119.135 124.377C119.23 124.443 119.329 124.502 119.437 124.502C119.572 124.502 119.709 124.451 119.813 124.348L123.93 120.228C123.939 120.222 123.934 120.209 123.943 120.201C123.949 120.194 123.96 120.196 123.966 120.19L127.663 115.701C127.834 115.492 127.8 115.198 127.619 115.006L130.477 110.527C130.481 110.521 130.477 110.513 130.481 110.504C130.485 110.496 130.498 110.491 130.502 110.481L133.116 105.33C133.12 105.322 133.113 105.314 133.118 105.307C133.122 105.297 133.13 105.295 133.135 105.284L135.247 99.9498C135.251 99.9393 135.243 99.9308 135.247 99.9202C135.251 99.9076 135.264 99.9012 135.268 99.8885L136.747 94.265C136.749 94.2544 136.741 94.2459 136.743 94.2354C136.745 94.2248 136.758 94.2185 136.758 94.2079L137.537 88.9477C137.767 88.9033 137.96 88.7343 137.979 88.4914L138.401 82.7326C138.403 82.7178 138.388 82.7072 138.386 82.6924C138.388 82.6776 138.403 82.6671 138.401 82.6523L137.979 76.8597ZM111.992 41.726L116.082 45.1314L119.821 48.8685L123.155 52.9351L126.009 57.4116L128.417 62.1205L130.378 67.0343L131.681 72.1403L131.725 72.4677L131.535 72.7487L130.931 73.3064L130.384 73.5367L129.252 73.7036L124.144 73.9676L120.174 74.0754L115.896 74.0225L111.593 73.8641C111.589 73.8641 111.587 73.8683 111.582 73.8683C111.58 73.8683 111.576 73.8641 111.572 73.8641H111.464L108.192 73.2198L108.185 73.2177L108.162 73.2134C108.16 73.2134 108.158 73.2156 108.156 73.2156L105.452 72.2818L104.083 71.3037L102.845 69.9601L101.814 68.4666C101.814 68.4644 101.81 68.4644 101.81 68.4623C101.806 68.4602 101.81 68.456 101.806 68.4539L100.758 67.0089L99.7796 65.4055L99.2937 63.8485L99.2683 60.8994L99.6803 57.5869L99.7521 57.2996L100.853 53.3724C100.853 53.3703 100.855 53.3703 100.855 53.3703L102.122 49.329L103.464 45.5433L105.257 40.8577L105.302 40.7394L105.813 39.719L106.185 39.2839L106.924 38.8592L107.237 38.7705L107.533 38.8973L111.992 41.726ZM56.6879 53.4907L53.5106 51.0254L49.6277 47.9009L49.5496 47.8228C49.5475 47.8206 49.5454 47.8228 49.5454 47.8206C49.5432 47.8206 49.5432 47.8185 49.5411 47.8164L48.7194 47.02L48.4067 46.4982L48.2546 45.6997L48.2694 45.3384L48.4616 45.1166L52.5473 41.7344L56.9921 38.8846L61.7242 36.5059L66.6739 34.5919L71.7461 33.2399L77.0021 32.3991L82.2623 32.0611L87.5289 32.397L87.8437 32.4793L88.0761 32.7286L88.4204 33.4849L88.4648 34.0933L88.2704 35.213L88.2662 35.2278L86.9353 40.1099L86.9311 40.1225V40.1268L85.8241 43.9695L84.4594 47.9854L82.9912 51.9908L82.9257 52.1239L82.8053 52.3436C82.8032 52.3457 82.8011 52.3457 82.8011 52.3457L81.2864 55.0899L79.5836 57.4032L78.2189 58.4024L76.5521 59.1354L74.8177 59.7291L73.1002 60.2572L71.2771 60.6839L69.5955 60.6586L66.9654 59.8178L66.676 59.6953L63.9719 58.4468L63.8536 58.3792C63.8536 58.3792 63.8536 58.377 63.8515 58.3749C63.8452 58.3686 63.8367 58.3728 63.8325 58.3665L63.8008 58.3496C63.7881 58.3411 63.7881 58.3242 63.7755 58.3158L63.767 58.3094C63.7649 58.3094 63.7649 58.3073 63.7649 58.3073L63.7205 58.2799L60.1968 55.9476L56.6879 53.4907ZM57.4125 77.4343L57.9469 79.0145L58.1265 80.863V82.6713L58.0969 84.4332L57.9469 86.3218L57.4125 87.902L55.7415 90.2427C55.7372 90.249 55.7415 90.2575 55.7372 90.2638C55.7351 90.2659 55.7351 90.2659 55.733 90.2659L53.4346 92.6974L53.3353 92.7756L50.0059 95.4163L46.6533 97.9302L43.2817 100.22L38.9932 103.011L38.989 103.013L38.9826 103.017L37.9961 103.571L37.3919 103.716L36.5553 103.605L36.2786 103.488L36.1011 103.197L34.1491 98.2788L32.8457 93.1685L32.007 87.9442L31.6944 82.6755L32.007 77.3773L32.8436 72.1361L34.1449 67.0279L36.1053 62.1226L36.2786 61.8226L36.5426 61.7233L37.3834 61.6135L37.9961 61.7804L39.008 62.2979L39.0312 62.3127L43.2563 65.0802L46.5561 67.3068L49.9594 69.8946L53.3353 72.5564C53.3458 72.5649 53.3606 72.5607 53.3691 72.5691C53.3796 72.5755 53.3796 72.5881 53.3902 72.5945L53.4515 72.6325L53.5507 72.7508C53.555 72.755 53.5592 72.7529 53.5613 72.755C53.5655 72.7614 53.5634 72.7677 53.5676 72.7719L55.7309 75.0683C55.733 75.0725 55.733 75.0809 55.7351 75.0852C55.7372 75.0873 55.7393 75.0873 55.7415 75.0894C55.7415 75.0915 55.7415 75.0936 55.7415 75.0936L57.4125 77.4343ZM82.9933 113.343L84.434 117.271L85.8009 121.293L86.9268 125.148L88.2683 130.083L88.4648 131.243L88.4204 131.845L88.0718 132.591L87.8479 132.846L87.5395 132.912L82.2623 133.275L76.9979 132.91L71.7609 132.099L66.6654 130.763L61.7052 128.771L57.0217 126.405L52.5431 123.549L48.4595 120.22L48.2673 119.998L48.2525 119.637L48.4067 118.834L48.7215 118.285L49.5221 117.514L49.5982 117.454C49.6003 117.452 49.6003 117.45 49.6024 117.448C49.6045 117.446 49.6087 117.446 49.613 117.444L49.8686 117.233L53.4493 114.313C53.4493 114.313 53.4515 114.313 53.4536 114.313L56.6477 111.884L60.144 109.412L63.7353 106.991L63.8663 106.951C63.8769 106.949 63.879 106.936 63.8874 106.934C63.9086 106.928 63.9276 106.93 63.9445 106.921L66.6929 105.628L66.9696 105.51L69.5871 104.648H71.275L73.0559 105.024L74.7966 105.622L76.4845 106.203L78.1957 106.894L78.2274 106.909L79.5815 107.901L81.2885 110.242L82.7884 112.961L82.7926 112.969L82.8011 112.984C82.8032 112.986 82.8053 112.986 82.8053 112.986L82.9257 113.204L82.9933 113.343ZM107.214 126.54L106.912 126.471L106.183 126.052L105.813 125.621L105.3 124.548L105.279 124.491L103.46 119.814L102.144 116.079L100.857 111.945L99.75 107.999L99.6845 107.726L99.2704 104.384L99.2958 101.511L99.7817 99.9076L100.741 98.3126L101.808 96.8296L102.855 95.4438L104.091 93.9819L105.454 93.0101L108.202 92.1102C108.215 92.1059 108.217 92.0912 108.23 92.0869L111.263 91.4975L111.479 91.4722C111.481 91.4722 111.483 91.4701 111.483 91.4701C111.492 91.4701 111.5 91.4701 111.508 91.4679L111.623 91.4489L111.633 91.4468L115.852 91.2905L120.102 91.2398L124.122 91.3454L129.235 91.6074L129.262 91.6095L130.39 91.7531L130.929 92.0003L131.533 92.5813L131.732 92.8707L131.687 93.1664L130.384 98.2851L128.428 103.214L126.013 107.935L123.17 112.365L119.819 116.476L116.084 120.209L112.003 123.56L107.514 126.399L107.214 126.54ZM136.238 86.8774L135.853 89.0111L135.412 90.7687L129.4 90.1075C129.395 90.1075 129.393 90.1117 129.389 90.1096C129.387 90.1096 129.383 90.1054 129.378 90.1054L124.494 89.7631C124.494 89.7631 124.492 89.7652 124.49 89.7652C124.488 89.7652 124.486 89.761 124.484 89.761L120.736 89.5751C120.732 89.5751 120.728 89.5793 120.723 89.5814C120.717 89.5793 120.715 89.5751 120.711 89.5751C120.706 89.5751 120.706 89.5751 120.702 89.5751L116.027 89.6279C116.023 89.6279 116.019 89.6343 116.014 89.6343C116.008 89.6343 116.004 89.63 116 89.63L111.511 89.9216C111.5 89.9216 111.494 89.9342 111.483 89.9342C111.473 89.9364 111.462 89.9258 111.451 89.9279L108.76 90.4032C108.752 90.4053 108.749 90.4138 108.741 90.4159C108.733 90.4159 108.726 90.4096 108.718 90.4117L106.789 90.9124C106.778 90.9145 106.774 90.9271 106.766 90.9314C106.755 90.9335 106.747 90.925 106.736 90.9293L104.888 91.6158C104.869 91.6243 104.864 91.6454 104.845 91.656C104.826 91.6644 104.803 91.6539 104.788 91.6665L102.887 92.8812C102.864 92.8981 102.862 92.9277 102.843 92.9467C102.822 92.9636 102.794 92.9594 102.777 92.9805L101.506 94.434C101.501 94.4403 101.506 94.4466 101.501 94.453C101.495 94.4593 101.487 94.4572 101.482 94.4635L100.426 95.862C100.424 95.8642 100.426 95.8642 100.424 95.8663C100.424 95.8663 100.422 95.8663 100.42 95.8684L99.3634 97.3218C99.3571 97.3324 99.3634 97.3451 99.3571 97.3535C99.3507 97.3641 99.3359 97.3641 99.3296 97.3746L98.4043 99.0118C98.3916 99.0351 98.4064 99.0583 98.3959 99.0816C98.3874 99.1048 98.3599 99.1133 98.3536 99.1365L97.7748 101.327C97.7684 101.348 97.7853 101.365 97.7832 101.382C97.779 101.405 97.7579 101.416 97.7558 101.437L97.6776 103.366C97.6776 103.376 97.686 103.385 97.686 103.395C97.686 103.406 97.6776 103.414 97.6776 103.425L97.8086 105.457C97.8086 105.466 97.817 105.47 97.817 105.476C97.817 105.483 97.8128 105.489 97.8128 105.495L98.1825 108.189C98.1846 108.201 98.1973 108.208 98.1994 108.22C98.2015 108.231 98.1931 108.242 98.1952 108.252L99.3381 112.604C99.3381 112.608 99.3444 112.61 99.3465 112.615C99.3465 112.619 99.3423 112.623 99.3444 112.627L100.715 117.064C100.718 117.07 100.724 117.072 100.726 117.078C100.728 117.083 100.724 117.089 100.726 117.093L102.074 120.659C102.074 120.661 102.078 120.661 102.078 120.665C102.078 120.668 102.078 120.67 102.078 120.672L103.899 125.188C103.901 125.193 103.905 125.195 103.907 125.199C103.91 125.201 103.905 125.205 103.907 125.207L106.388 130.73L104.854 131.695L102.936 132.692L98.9916 134.154L94.9693 135.297L92.7828 135.584L90.9766 135.728L89.7513 129.794C89.7513 129.79 89.7471 129.79 89.745 129.785C89.7429 129.781 89.7471 129.777 89.7471 129.773L88.5598 125.019C88.5598 125.017 88.5556 125.017 88.5556 125.013C88.5556 125.013 88.5577 125.011 88.5556 125.009L87.5817 121.39C87.5796 121.384 87.5733 121.382 87.5691 121.375C87.5691 121.369 87.5733 121.365 87.5712 121.358L86.0649 116.922C86.0628 116.918 86.0565 116.916 86.0544 116.911C86.0544 116.907 86.0586 116.901 86.0544 116.897L84.4171 112.75C84.4129 112.739 84.4002 112.737 84.396 112.726C84.3918 112.716 84.3981 112.705 84.3918 112.695L83.101 110.267C83.0968 110.261 83.0884 110.261 83.0841 110.255C83.0799 110.248 83.0841 110.24 83.0799 110.234L82.0236 108.542C82.0194 108.531 82.0025 108.531 81.9962 108.523C81.9898 108.512 81.9941 108.499 81.9856 108.489L80.7477 106.957C80.735 106.942 80.7138 106.944 80.7012 106.932C80.6864 106.917 80.6906 106.894 80.6737 106.883L78.933 105.43C78.9076 105.409 78.8759 105.419 78.8485 105.402C78.8252 105.388 78.8168 105.358 78.7914 105.347L77.0211 104.633C77.019 104.631 77.0148 104.635 77.0148 104.633C77.0106 104.631 77.0084 104.627 77.0042 104.625L75.3416 104.019C75.3395 104.016 75.3353 104.021 75.3311 104.019C75.3269 104.019 75.3269 104.014 75.3226 104.012L73.6073 103.457C73.5988 103.455 73.5882 103.461 73.5777 103.459C73.5692 103.457 73.565 103.446 73.5565 103.444L71.7355 103.047C71.7102 103.043 71.6891 103.062 71.6637 103.059C71.6384 103.057 71.6193 103.032 71.594 103.034L69.3209 103.165C69.2998 103.167 69.2871 103.188 69.2681 103.193C69.2491 103.195 69.2322 103.18 69.2132 103.184L67.3119 103.712C67.3013 103.714 67.2971 103.729 67.2865 103.731C67.276 103.735 67.2675 103.727 67.2548 103.731L65.4063 104.473C65.3979 104.477 65.3979 104.485 65.3895 104.49C65.381 104.494 65.3725 104.488 65.3641 104.492L62.9093 105.732C62.9009 105.736 62.9009 105.749 62.8924 105.753C62.884 105.757 62.8734 105.753 62.865 105.757L59.0877 108.134C59.0835 108.136 59.0835 108.142 59.0793 108.146C59.0751 108.149 59.0708 108.146 59.0666 108.149L55.2133 110.842C55.207 110.846 55.2091 110.857 55.2006 110.861C55.1964 110.865 55.188 110.863 55.1795 110.867L52.2748 113.244C52.2748 113.244 52.2748 113.246 52.2727 113.246L48.4954 116.388C48.4912 116.39 48.4933 116.396 48.4891 116.4C48.4849 116.402 48.4785 116.4 48.4743 116.404L44.0337 120.477L42.6416 119.311L41.091 117.759L38.4693 114.488L36.137 110.979L35.1336 109.021L34.4893 107.361L39.7453 104.34C39.7495 104.338 39.7495 104.333 39.7516 104.331C39.7558 104.329 39.7622 104.329 39.7664 104.327L43.8837 101.714L47.0821 99.6794C47.0885 99.6752 47.0864 99.6667 47.0948 99.6625C47.099 99.6583 47.1075 99.6604 47.1159 99.6562L50.8615 96.8571C50.8657 96.8549 50.8657 96.8486 50.8699 96.8465C50.8742 96.8423 50.8805 96.8444 50.8847 96.8402L54.3176 93.9882C54.3282 93.9798 54.3239 93.9671 54.3324 93.9586C54.3408 93.9502 54.3535 93.9544 54.362 93.946L56.2633 91.9644C56.2675 91.9602 56.2654 91.9517 56.2717 91.9475C56.2759 91.9412 56.2823 91.9433 56.2865 91.939L57.5794 90.4053C57.5836 90.399 57.5815 90.3884 57.5878 90.3821C57.5963 90.3715 57.6089 90.3673 57.6174 90.3546L58.7011 88.7195C58.7117 88.7047 58.7032 88.6878 58.7117 88.6752C58.7223 88.654 58.7455 88.6435 58.7539 88.6224L59.5736 86.5098C59.5842 86.4866 59.5673 86.4654 59.5715 86.4401C59.5799 86.4126 59.6053 86.3978 59.6095 86.3704L59.7912 84.4691C59.7933 84.4606 59.7849 84.4543 59.7849 84.4459C59.787 84.4374 59.7954 84.4332 59.7954 84.4247L59.8208 82.6819C59.8208 82.6798 59.8208 82.6798 59.8208 82.6776C59.8208 82.6755 59.8208 82.6755 59.8208 82.6734V80.8524C59.8208 80.8418 59.8102 80.8334 59.8081 80.8228C59.8081 80.8102 59.8208 80.8038 59.8187 80.7911L59.6074 78.9427C59.6053 78.9173 59.5799 78.9046 59.5715 78.8835C59.5673 78.8582 59.5842 78.837 59.5736 78.8117L58.7539 76.6991C58.7455 76.6801 58.7244 76.6759 58.7138 76.6569C58.7032 76.64 58.7159 76.6168 58.7032 76.602L57.6195 74.9394C57.6132 74.9288 57.5963 74.9288 57.5878 74.9183C57.5794 74.9077 57.5836 74.8929 57.5751 74.8824L56.2844 73.3761C56.2802 73.3719 56.2717 73.3719 56.2675 73.3677C56.2654 73.3656 56.2675 73.3592 56.2633 73.355L54.362 71.3734C54.3535 71.365 54.3408 71.3692 54.3345 71.3607C54.326 71.3544 54.3282 71.3396 54.3197 71.3333L50.8868 68.456C50.8826 68.4518 50.8742 68.4539 50.8699 68.4518C50.8657 68.4475 50.8657 68.4391 50.8615 68.4349L47.1117 65.6632C47.1075 65.659 47.099 65.6632 47.0948 65.659C47.0906 65.6548 47.0906 65.6484 47.0842 65.6442L43.888 63.5845C43.8859 63.595 43.8837 63.5929 43.8837 63.5929L39.7622 61.0029C39.7601 61.0008 39.7579 61.0029 39.7537 61.0008C39.7495 60.9987 39.7495 60.9945 39.7474 60.9924L34.4893 57.9461L35.1336 56.2793L36.1328 54.3632L38.4672 50.8458L41.0888 47.5756L42.6395 46.0229L44.0316 44.8567L48.4722 48.9297C48.4764 48.934 48.4828 48.9318 48.487 48.9361C48.4912 48.9382 48.4891 48.9445 48.4933 48.9466L52.2705 52.088C52.2727 52.088 52.2727 52.088 52.2727 52.088L55.1774 54.4667C55.1859 54.4731 55.1943 54.4688 55.2028 54.4752C55.207 54.4794 55.207 54.4878 55.2133 54.4921L59.0666 57.1602C59.0687 57.1623 59.0729 57.1602 59.0729 57.1623C59.0772 57.1644 59.0772 57.1687 59.0793 57.1708L62.8565 59.6256C62.8692 59.634 62.8861 59.6319 62.9009 59.6382C62.9093 59.6425 62.9114 59.6551 62.9199 59.6594L65.3747 60.8234C65.381 60.8255 65.3873 60.8255 65.3958 60.8276C65.4 60.8297 65.4 60.836 65.4042 60.8382L67.2527 61.5775C67.2675 61.5818 67.2823 61.5818 67.295 61.586C67.3013 61.5881 67.3034 61.5944 67.3098 61.5966L69.211 62.1247C69.2448 62.1331 69.2765 62.1353 69.3103 62.1374C69.3146 62.1395 69.3167 62.1437 69.3209 62.1437L71.594 62.2747C71.6024 62.2747 71.6151 62.2747 71.6236 62.2747C71.6637 62.2747 71.7017 62.2705 71.744 62.262L73.5925 61.8395C73.5967 61.8395 73.5967 61.8332 73.6009 61.8332C73.6094 61.831 73.6178 61.8311 73.6263 61.8289L75.3142 61.3283C75.3184 61.3262 75.3226 61.3283 75.3269 61.3262L77.0422 60.7706C77.0507 60.7684 77.0549 60.7579 77.0634 60.7537C77.076 60.7494 77.0887 60.7515 77.1035 60.7452L78.8189 59.953C78.8379 59.9445 78.8421 59.9192 78.8611 59.9086C78.8844 59.896 78.9119 59.9002 78.933 59.8833L80.6737 58.4573C80.6927 58.4425 80.6906 58.4151 80.7054 58.4003C80.7202 58.3876 80.7434 58.3939 80.754 58.377L81.9941 56.8201C81.9983 56.8138 81.9941 56.8053 82.0004 56.799C82.0088 56.7884 82.0215 56.7821 82.0279 56.7715L83.0841 55.0815C83.0884 55.0772 83.0841 55.0709 83.0884 55.0646C83.0926 55.0582 83.101 55.0561 83.1053 55.0477L84.396 52.6182C84.4002 52.6098 84.396 52.6013 84.4002 52.5929C84.4045 52.5823 84.4171 52.5781 84.4214 52.5654L86.0586 48.446C86.0628 48.4417 86.0586 48.4375 86.0586 48.4312C86.0628 48.427 86.067 48.4248 86.0692 48.4185L87.5754 43.9822C87.5775 43.9758 87.5733 43.9716 87.5733 43.9653C87.5775 43.9589 87.5839 43.9547 87.586 43.9484L88.562 40.3021C88.562 40.3 88.5598 40.3 88.562 40.2979C88.562 40.2958 88.5641 40.2958 88.5641 40.2936L89.7513 35.5679C89.7513 35.5637 89.7492 35.5616 89.7492 35.5573C89.7513 35.5531 89.7556 35.551 89.7556 35.5468L90.9829 29.5809L92.8039 29.7077L94.9545 30.0161L99.0085 31.1928L102.942 32.6526L104.869 33.6539L106.392 34.594L103.914 40.1394C103.912 40.1415 103.916 40.1458 103.914 40.1479C103.912 40.1521 103.907 40.1521 103.905 40.1563L102.084 44.673C102.084 44.6751 102.084 44.6772 102.084 44.6793C102.084 44.6814 102.082 44.6814 102.08 44.6835L100.734 48.222C100.73 48.2284 100.737 48.2347 100.734 48.241C100.73 48.2474 100.724 48.2495 100.722 48.2558L99.3507 52.7175C99.3486 52.7218 99.3528 52.726 99.3528 52.7281C99.3507 52.7323 99.3444 52.7344 99.3444 52.7387L98.2078 57.044C98.2057 57.0567 98.2142 57.0673 98.2142 57.0799C98.2099 57.0926 98.1973 57.0968 98.1952 57.1095L97.8255 59.8558C97.8255 59.8622 97.8297 59.8664 97.8297 59.8727C97.8297 59.8791 97.8212 59.8833 97.8212 59.8917L97.6903 61.8733C97.6903 61.8839 97.6987 61.8902 97.6987 61.9008C97.6987 61.9134 97.6903 61.9198 97.6903 61.9303L97.7684 63.9119C97.7705 63.9351 97.7917 63.9478 97.7959 63.9668C97.798 63.988 97.7811 64.0049 97.7874 64.0239L98.3663 66.2146C98.3747 66.2442 98.4022 66.2589 98.4128 66.2843C98.4233 66.3075 98.4106 66.3287 98.4233 66.3498L99.4014 67.987C99.4057 67.9955 99.4141 67.9976 99.4183 68.0039C99.4204 68.0081 99.4183 68.0124 99.4204 68.0166L100.424 69.47C100.426 69.4721 100.428 69.4721 100.43 69.4742C100.43 69.4764 100.43 69.4806 100.43 69.4827L101.487 70.9361C101.495 70.9446 101.508 70.9403 101.512 70.9488C101.52 70.9594 101.516 70.972 101.525 70.9805L102.794 72.379C102.811 72.398 102.839 72.3917 102.855 72.4065C102.877 72.4255 102.877 72.455 102.9 72.4698L104.801 73.6845C104.822 73.6993 104.845 73.6951 104.869 73.7057C104.883 73.712 104.888 73.7289 104.9 73.7352L106.749 74.4218C106.766 74.4282 106.778 74.426 106.793 74.4303C106.797 74.4324 106.802 74.4387 106.806 74.4408L108.737 74.9162C108.745 74.9183 108.756 74.9183 108.766 74.9204C108.768 74.9204 108.768 74.9225 108.771 74.9225L111.462 75.3999C111.481 75.4042 111.498 75.4042 111.513 75.4042C111.513 75.4042 111.515 75.4063 111.517 75.4063L116.006 75.721C116.017 75.7231 116.027 75.7231 116.04 75.7231L120.715 75.7506C120.715 75.7506 120.717 75.7506 120.719 75.7506C120.728 75.7506 120.736 75.7506 120.744 75.7506L124.492 75.5647C124.494 75.5647 124.494 75.5626 124.494 75.5626C124.498 75.5626 124.501 75.5626 124.503 75.5626L129.37 75.2225C129.383 75.2225 129.397 75.2225 129.41 75.2204L135.425 74.5803L135.862 76.3062L136.248 78.4695L136.379 82.6924L136.238 86.8774Z" fill="#8C9592"/>
<path d="M88.2951 77.9469L88.9543 78.9228L89.4655 80.0721C89.5521 80.2685 89.7465 80.3847 89.9493 80.3847C90.019 80.3847 90.0929 80.3699 90.1647 80.3404C90.4288 80.2221 90.5513 79.9094 90.433 79.6432L89.9049 78.456C89.8965 78.4391 89.8753 78.437 89.8669 78.4201C89.8584 78.4053 89.8669 78.3884 89.8584 78.3757L89.1444 77.3194C89.1359 77.3068 89.119 77.3089 89.1106 77.2962C89.1 77.2856 89.1064 77.2687 89.0937 77.2561L88.2233 76.3054C88.2128 76.2927 88.1937 76.297 88.1811 76.2864C88.1705 76.2737 88.1726 76.2568 88.1599 76.2463L87.1544 75.4541C86.9283 75.2766 86.5945 75.3125 86.4129 75.5407C86.2312 75.7709 86.2713 76.1026 86.4995 76.2843L87.4691 77.0469L88.2951 77.9469Z" fill="#8C9592"/>
<path d="M77.5226 76.6731L78.5366 75.9633L79.6372 75.4753L80.8054 75.1753L82.0392 75.0211C82.3286 74.9831 82.5314 74.719 82.4976 74.4317C82.4596 74.1402 82.1913 73.9458 81.9082 73.9733L80.6407 74.1317C80.628 74.1338 80.6195 74.1465 80.6069 74.1486C80.5963 74.1507 80.5857 74.1423 80.5731 74.1444L79.3309 74.4613C79.314 74.4655 79.3098 74.4845 79.2929 74.4887C79.276 74.4951 79.2612 74.4845 79.2485 74.4909L78.0613 75.019C78.0422 75.0274 78.0401 75.0486 78.0232 75.0591C78.0063 75.0676 77.9852 75.0591 77.9725 75.0697L76.9163 75.8091C76.6775 75.976 76.6163 76.3055 76.7853 76.5464C76.8888 76.6921 77.0515 76.7703 77.2183 76.7703C77.324 76.7682 77.4317 76.7365 77.5226 76.6731Z" fill="#8C9592"/>
<path d="M73.5764 82.9545C73.5743 82.9693 73.5891 82.9777 73.5891 82.9925C73.5891 83.0073 73.5764 83.0158 73.5785 83.0306L73.7095 84.3234C73.7116 84.3403 73.7285 84.3509 73.7327 84.3678C73.7348 84.3847 73.7221 84.3974 73.7264 84.4122L74.0686 85.6269C74.1341 85.8593 74.3475 86.0135 74.5777 86.0135C74.6221 86.0135 74.6728 86.0071 74.7193 85.9923C75.0002 85.9142 75.1629 85.6227 75.0847 85.3417L74.7552 84.1671L74.6305 82.9651L74.6791 81.7419L74.9326 80.523C74.9918 80.2378 74.808 79.9568 74.5228 79.8977C74.2418 79.8533 73.9587 80.0223 73.8996 80.3075L73.6355 81.575C73.6313 81.5919 73.6461 81.6046 73.644 81.6194C73.6419 81.6342 73.625 81.6447 73.6229 81.6616L73.5764 82.9545Z" fill="#8C9592"/>
<path d="M81.2443 91.3135C81.2485 91.3135 81.2528 91.3177 81.2528 91.3177L82.5245 91.3958C82.5351 91.3958 82.5456 91.3958 82.5583 91.3958C82.8351 91.3958 83.0653 91.1804 83.0843 90.9015C83.1034 90.61 82.8794 90.3586 82.5921 90.3396L81.3584 90.2635L80.1627 90.0142L79.0325 89.6192L77.972 88.9875C77.7206 88.8397 77.3974 88.9221 77.2453 89.1713C77.0974 89.4206 77.1798 89.7459 77.4312 89.8959L78.536 90.555C78.5572 90.5677 78.5804 90.5635 78.6036 90.5741C78.6163 90.5804 78.6205 90.5973 78.6353 90.6015L79.8479 91.024C79.8648 91.0304 79.8838 91.0283 79.9007 91.0325C79.905 91.0346 79.9092 91.0409 79.9134 91.0431L81.1809 91.3071C81.2 91.3113 81.2232 91.3113 81.2443 91.3135Z" fill="#8C9592"/>
<path d="M87.3101 89.6291C87.4348 89.6291 87.5594 89.5847 87.6608 89.496L88.6093 88.651C88.6262 88.6362 88.622 88.6151 88.6347 88.6003C88.6474 88.5876 88.6685 88.5939 88.6791 88.5791L89.4713 87.5503C89.4755 87.5419 89.4713 87.5313 89.4776 87.5229C89.4882 87.5102 89.503 87.5039 89.5114 87.4891L90.1452 86.38C90.1536 86.3673 90.1452 86.3525 90.1494 86.3398C90.1578 86.3251 90.1748 86.3166 90.1832 86.2997L90.6289 85.0871C90.7325 84.8125 90.5909 84.5104 90.3184 84.409C90.048 84.3097 89.7438 84.4491 89.6403 84.7195L89.2093 85.8899L88.6136 86.9356L87.8721 87.8968L86.9616 88.708C86.7419 88.9024 86.7228 89.234 86.9172 89.4537C87.0186 89.5699 87.1623 89.6291 87.3101 89.6291Z" fill="#8C9592"/>
<path d="M143.262 76.2591C143.262 76.2485 143.252 76.2443 143.249 76.2337C143.249 76.2253 143.258 76.2189 143.258 76.2084L142.254 69.9489C142.252 69.9384 142.242 69.9362 142.24 69.9257C142.237 69.9172 142.246 69.9088 142.242 69.9003L140.683 63.7211C140.681 63.7085 140.666 63.7042 140.662 63.6916C140.657 63.6789 140.668 63.6662 140.662 63.6535L138.314 57.7384C138.31 57.73 138.298 57.7278 138.293 57.7194C138.289 57.7109 138.298 57.7004 138.293 57.6919L135.389 52.0134C135.384 52.005 135.372 52.005 135.368 51.9965C135.363 51.9881 135.368 51.9796 135.363 51.9712L131.958 46.5842C131.952 46.5736 131.935 46.5736 131.926 46.563C131.92 46.5525 131.926 46.5398 131.918 46.5292L127.849 41.6176C127.845 41.6112 127.832 41.6112 127.828 41.6049C127.819 41.5986 127.824 41.5859 127.815 41.5795L123.326 37.0904C123.32 37.0841 123.309 37.0862 123.301 37.0798C123.294 37.0735 123.296 37.0629 123.288 37.0566L118.378 32.9899C118.368 32.9815 118.353 32.9878 118.343 32.9794C118.332 32.9709 118.332 32.954 118.319 32.9477L112.934 29.5655C112.926 29.5613 112.917 29.5655 112.909 29.5613C112.901 29.5571 112.901 29.5486 112.894 29.5444L112.13 29.1472L107.245 26.6354C107.235 26.6312 107.224 26.6375 107.216 26.6333C107.207 26.6291 107.205 26.6185 107.195 26.6143L101.254 24.2651C101.244 24.2609 101.233 24.2694 101.22 24.2651C101.208 24.2609 101.203 24.2482 101.191 24.244L95.039 22.6596C95.0285 22.6575 95.02 22.6659 95.0094 22.6638C95.001 22.6617 94.9968 22.6511 94.9862 22.649L88.7014 21.6709C88.6908 21.6688 88.6845 21.6773 88.6739 21.6773C88.6655 21.6773 88.6612 21.6667 88.6528 21.6667L82.2898 21.2463C82.275 21.2442 82.2666 21.259 82.2518 21.2569C82.2391 21.259 82.2307 21.2442 82.218 21.2463L75.8508 21.6667C75.8423 21.6667 75.8381 21.6773 75.8296 21.6773C75.8212 21.6773 75.8127 21.6688 75.8043 21.6709L69.5195 22.649C69.5089 22.6511 69.5047 22.6617 69.4941 22.6638C69.4857 22.6659 69.4772 22.6575 69.4688 22.6596L63.3128 24.244C63.3001 24.2482 63.2959 24.2609 63.2853 24.2651C63.2727 24.2694 63.2621 24.2609 63.2494 24.2651L57.3343 26.6143C57.3237 26.6185 57.3237 26.6291 57.3153 26.6333C57.3068 26.6375 57.2963 26.6312 57.2878 26.6354L51.6093 29.5402C51.6009 29.5444 51.6009 29.5549 51.5924 29.5592C51.5861 29.5634 51.5755 29.5592 51.5692 29.5634L46.2012 32.9604C46.1906 32.9667 46.1906 32.9836 46.1801 32.9921C46.1695 33.0005 46.1547 32.9942 46.1463 33.0026L41.2325 37.0693C41.2261 37.0756 41.2283 37.0862 41.2198 37.0925C41.2135 37.0988 41.2029 37.0967 41.1945 37.1031L36.7053 41.5922C36.699 41.5986 36.7011 41.6112 36.6968 41.6176C36.6884 41.6239 36.6799 41.6239 36.6715 41.6303L32.607 46.5419C32.5985 46.5525 32.6027 46.5652 32.5943 46.5757C32.5879 46.5863 32.5732 46.5863 32.5647 46.5968L29.1593 51.9838C29.153 51.9923 29.1593 52.0028 29.1551 52.0092C29.1508 52.0176 29.1403 52.0176 29.1361 52.0261L26.2313 57.6771C26.2271 57.6856 26.2334 57.6962 26.2292 57.7067C26.225 57.7152 26.2123 57.7173 26.2081 57.7278L23.8821 63.6683C23.8779 63.6789 23.8864 63.6916 23.8821 63.7021C23.8779 63.7148 23.8653 63.7169 23.861 63.7296L22.2766 69.9088C22.2766 69.9193 22.283 69.9257 22.2808 69.9362C22.2808 69.9447 22.2682 69.9489 22.2682 69.9595L21.2647 76.219C21.2626 76.2295 21.271 76.2359 21.2689 76.2464C21.2689 76.257 21.2605 76.2612 21.2584 76.2718L20.8887 82.6601C20.8887 82.6728 20.8992 82.6791 20.8992 82.6918C20.8992 82.7045 20.8887 82.7108 20.8887 82.7235L21.2584 89.0611C21.2584 89.0717 21.2689 89.0759 21.2689 89.0865C21.271 89.097 21.2626 89.1034 21.2647 89.1139L22.2682 95.4009C22.2682 95.4114 22.2787 95.4156 22.2808 95.4262C22.283 95.4347 22.2766 95.4431 22.2766 95.4516L23.861 101.603C23.8653 101.616 23.8779 101.622 23.8821 101.635C23.8864 101.643 23.8779 101.654 23.8821 101.665L26.2081 107.605C26.2123 107.616 26.2228 107.62 26.2292 107.63C26.2334 107.639 26.2271 107.649 26.2313 107.658L27.4186 109.956C27.4186 109.958 27.4207 109.958 27.4207 109.958L27.4312 109.977L29.1361 113.332C29.1403 113.343 29.1508 113.347 29.1572 113.355C29.1614 113.362 29.1572 113.37 29.1614 113.377L32.5647 118.738C32.5732 118.751 32.5879 118.755 32.5964 118.768C32.6027 118.774 32.5985 118.785 32.6049 118.793L36.6715 123.73C36.6778 123.739 36.6884 123.734 36.6968 123.743C36.7053 123.749 36.7011 123.762 36.7095 123.77L39.4495 126.485L41.1923 128.255C41.1987 128.264 41.2114 128.259 41.2198 128.268C41.2283 128.274 41.2261 128.287 41.2346 128.293L46.1463 132.334C46.1568 132.343 46.1716 132.339 46.1822 132.347C46.1927 132.354 46.1906 132.366 46.2012 132.373L51.5861 135.778C51.5966 135.784 51.6072 135.782 51.6156 135.786C51.6241 135.791 51.6241 135.799 51.6304 135.803L57.309 138.708C57.3195 138.714 57.3322 138.712 57.3406 138.716C57.3491 138.719 57.3491 138.727 57.3554 138.729L63.2706 141.078C63.2875 141.085 63.3044 141.083 63.3191 141.089C63.3276 141.091 63.3276 141.097 63.336 141.099L69.4878 142.656C69.5005 142.661 69.5131 142.659 69.5258 142.661C69.53 142.663 69.53 142.667 69.5343 142.667L75.8191 143.696C75.836 143.698 75.8529 143.698 75.8677 143.7C75.8698 143.7 75.8719 143.702 75.8719 143.702L82.2391 144.074C82.2476 144.074 82.2602 144.074 82.2687 144.074C82.2813 144.074 82.2898 144.074 82.3025 144.074L88.6655 143.702C88.6697 143.702 88.6697 143.7 88.6718 143.7C88.6887 143.698 88.7056 143.698 88.7204 143.696L95.0052 142.667C95.0094 142.667 95.0116 142.663 95.0158 142.661C95.0263 142.659 95.039 142.661 95.0496 142.656L101.206 141.099C101.21 141.097 101.214 141.091 101.22 141.089C101.235 141.083 101.254 141.085 101.267 141.078L107.207 138.729C107.216 138.727 107.216 138.719 107.22 138.716C107.233 138.712 107.245 138.714 107.258 138.708L112.907 135.803C112.915 135.799 112.915 135.791 112.924 135.786C112.932 135.78 112.941 135.784 112.949 135.778L118.338 132.373C118.347 132.366 118.347 132.354 118.355 132.347C118.366 132.339 118.381 132.343 118.391 132.334L123.303 128.293C123.311 128.287 123.307 128.276 123.315 128.27C123.324 128.264 123.332 128.266 123.341 128.259L126.641 124.985C126.641 124.983 126.641 124.981 126.643 124.981C126.645 124.979 126.645 124.979 126.645 124.979L127.832 123.764C127.84 123.758 127.836 123.747 127.843 123.741C127.849 123.734 127.857 123.736 127.864 123.73L131.93 118.793C131.937 118.785 131.933 118.774 131.939 118.768C131.947 118.755 131.96 118.751 131.968 118.738L135.376 113.377C135.38 113.368 135.376 113.36 135.38 113.351C135.387 113.338 135.401 113.332 135.408 113.319L135.906 112.267L136.206 111.744C136.208 111.741 136.206 111.737 136.208 111.735C136.21 111.729 136.217 111.729 136.219 111.722L138.306 107.656C138.308 107.647 138.304 107.641 138.306 107.632C138.31 107.624 138.323 107.62 138.327 107.609L140.674 101.694C140.678 101.684 140.67 101.671 140.674 101.66C140.678 101.646 140.693 101.639 140.695 101.627L142.254 95.4473C142.259 95.4389 142.25 95.4326 142.252 95.4241C142.254 95.4135 142.265 95.4093 142.267 95.3988L143.271 89.1118C143.271 89.1034 143.262 89.0949 143.262 89.0865C143.264 89.0759 143.275 89.0717 143.275 89.0611L143.672 82.7235C143.672 82.7108 143.659 82.7024 143.659 82.6897C143.659 82.677 143.672 82.6686 143.672 82.6559L143.262 76.2591ZM142.024 88.9597L141.054 95.1727L139.432 101.21L137.184 107.094L134.324 112.734L130.897 118.018L126.947 122.885L122.498 127.334L117.607 131.285L112.305 134.722L106.717 137.569L100.846 139.823L94.7517 141.469L88.5577 142.409L82.2623 142.777L75.9691 142.409L69.7751 141.469L63.7036 139.821L57.8096 137.569L52.2198 134.722L46.9258 131.287L42.05 127.33L37.7151 122.997L37.6074 122.887L33.621 118.009L30.1944 112.726L27.37 107.106L25.0884 101.202L23.4681 95.1706L22.4984 88.9576L22.1309 82.677L22.4984 76.3964L23.466 70.1665L25.0926 64.0908L27.37 58.1694L28.8234 55.2942L28.8361 55.2688L30.1944 52.6049L33.6294 47.3341L37.5736 42.4499L42.0627 37.9882L46.9258 34.0145L52.2114 30.6133L57.8202 27.7551L63.6888 25.4608L69.7793 23.8595L75.9733 22.8899L82.2623 22.5244L88.5788 22.8899L94.7454 23.8595L100.859 25.4608L106.713 27.7593L112.332 30.6091L117.601 34.0166L122.494 37.9671L126.926 42.4499L130.891 47.332L134.326 52.5986L137.18 58.2327L139.432 64.0908L141.057 70.1665L142.024 76.3964L142.392 82.677L142.024 88.9597Z" fill="#8C9592"/>
<path d="M160.083 74.5197C160.083 74.5091 160.071 74.5028 160.071 74.4922C160.069 74.4816 160.079 74.4732 160.077 74.4626L158.866 66.9948L158.814 66.4413C158.814 66.4223 158.793 66.4117 158.788 66.3948C158.784 66.3779 158.799 66.3589 158.793 66.342L158.64 65.8308L156.686 58.515C156.684 58.5045 156.672 58.5002 156.667 58.4897C156.663 58.4791 156.672 58.4707 156.667 58.4601L153.82 51.0218L153.771 50.8782C153.767 50.8655 153.75 50.8613 153.746 50.8486C153.741 50.8359 153.75 50.8232 153.741 50.8106L153.638 50.5993C153.638 50.5993 153.636 50.5993 153.634 50.5972V50.5951L150.044 43.5434C150.038 43.535 150.028 43.5329 150.021 43.5244C150.015 43.5138 150.021 43.5033 150.015 43.4927L149.814 43.1864L145.606 36.7072C145.6 36.6988 145.587 36.6988 145.581 36.6903C145.574 36.6819 145.579 36.6692 145.572 36.6608L145.555 36.6396L145.553 36.6375L140.654 30.6083L140.426 30.3231C140.418 30.3147 140.405 30.3168 140.399 30.3083C140.392 30.2999 140.394 30.2893 140.388 30.2809L134.644 24.539C134.625 24.5178 134.608 24.5052 134.589 24.4883C134.572 24.4735 134.574 24.4481 134.553 24.4376L134.156 24.1629L128.251 19.3653C128.243 19.359 128.232 19.3632 128.222 19.3569C128.213 19.3506 128.216 19.3379 128.205 19.3315L121.419 14.9205C121.411 14.9142 121.398 14.9205 121.39 14.9142C121.379 14.91 121.379 14.8973 121.369 14.8931L114.106 11.1961C114.097 11.1919 114.089 11.1982 114.078 11.194C114.068 11.1898 114.068 11.1771 114.055 11.1729L106.995 8.46038L106.492 8.24702C106.48 8.24279 106.467 8.25124 106.454 8.24702C106.444 8.24279 106.442 8.23012 106.429 8.22589L105.873 8.06956C105.869 8.06956 105.867 8.06534 105.865 8.06534L98.5512 6.13659C98.5406 6.13447 98.5343 6.14292 98.5216 6.14081C98.5132 6.1387 98.5089 6.12813 98.5005 6.12602L90.8679 4.88596C90.8636 4.88596 90.8636 4.88807 90.8594 4.88807C90.8573 4.88807 90.8552 4.88385 90.8531 4.88385L90.4559 4.83103C90.4411 4.82892 90.4327 4.84159 90.4179 4.84159C90.4031 4.83948 90.3968 4.82681 90.382 4.82681H90.044L82.2783 4.4043C82.2677 4.4043 82.2614 4.41486 82.2487 4.41486C82.2381 4.41486 82.2318 4.4043 82.2191 4.4043L74.4576 4.82681H74.1407C74.1238 4.82681 74.1112 4.84582 74.0964 4.84793C74.0752 4.85004 74.0626 4.83314 74.0436 4.83737L73.5112 4.93877C73.5091 4.93877 73.5091 4.93877 73.507 4.93877L66.0053 6.12602C65.999 6.12813 65.9948 6.13659 65.9884 6.13659C65.98 6.1387 65.9757 6.13236 65.9673 6.13447L58.0452 7.98295C58.0305 7.98717 58.0241 8.00407 58.0072 8.01041C57.9903 8.01464 57.9755 8.00407 57.9607 8.01041L50.4359 11.1792C50.4295 11.1813 50.4274 11.1919 50.4211 11.194C50.4126 11.1982 50.4063 11.1919 50.3999 11.1961L43.1645 14.8931C43.1539 14.8973 43.1539 14.91 43.1455 14.9163C43.137 14.9205 43.1243 14.9142 43.1159 14.9205L36.3029 19.3315C36.2945 19.3379 36.2945 19.3506 36.286 19.3569C36.2776 19.3632 36.2649 19.359 36.2565 19.3653L30.3519 24.1629L29.9526 24.4376C29.9273 24.4545 29.9294 24.4862 29.9083 24.5052C29.8977 24.5157 29.8829 24.52 29.8723 24.5305L24.1199 30.283C24.1114 30.2914 24.1157 30.302 24.1072 30.3104C24.0988 30.3189 24.0861 30.3168 24.0797 30.3252L23.8051 30.6653L19.0033 36.6058C19.0033 36.6079 18.9991 36.6058 18.9991 36.6079C18.9948 36.6101 18.997 36.6143 18.9948 36.6185L18.9568 36.6629C18.9526 36.6713 18.9568 36.6819 18.9484 36.6903C18.9441 36.6988 18.9315 36.6988 18.9251 36.7072L14.4888 43.4948C14.4824 43.5054 14.4888 43.516 14.4824 43.5265C14.4782 43.535 14.4655 43.5371 14.4613 43.5455L10.8679 50.5972C10.8679 50.5993 10.8679 50.6014 10.8679 50.6014L10.7601 50.8127C10.7559 50.8254 10.7644 50.838 10.758 50.8507C10.7517 50.8634 10.7369 50.8676 10.7327 50.8803L10.6862 51.0239L7.83427 58.4622C7.83005 58.4728 7.83849 58.4833 7.83638 58.4918C7.83216 58.5024 7.82159 58.5066 7.81737 58.5171L5.86326 65.8329L5.70905 66.3441C5.70482 66.3631 5.71961 66.38 5.71539 66.3991C5.71116 66.416 5.69215 66.4265 5.68792 66.4434L5.63511 66.9969L4.42674 74.4647C4.42462 74.4753 4.43518 74.4838 4.43307 74.4922C4.43096 74.5049 4.42251 74.5112 4.4204 74.5239L4 82.6572C4 82.6678 4.01056 82.6741 4.01056 82.6847C4.01056 82.6952 4 82.7016 4 82.7121L4.4204 90.8201C4.4204 90.8306 4.43096 90.837 4.43519 90.8496C4.43519 90.8602 4.42462 90.8687 4.42674 90.8792L5.63511 98.3471L5.68792 98.9006C5.69215 98.9217 5.71116 98.9323 5.71539 98.9513C5.7175 98.9682 5.70482 98.9851 5.70905 98.9998L5.86326 99.5111L7.81737 106.799C7.82159 106.81 7.83216 106.816 7.83638 106.827C7.83849 106.835 7.83216 106.846 7.83427 106.854L10.6778 114.28L10.7263 114.443C10.7327 114.468 10.758 114.481 10.7686 114.502C10.777 114.521 10.7644 114.54 10.7749 114.555L10.8721 114.726L14.4613 121.769C14.4655 121.779 14.4782 121.784 14.4824 121.794C14.4867 121.801 14.4825 121.811 14.4867 121.817L14.4888 121.82L14.5268 121.877L18.923 128.656C18.9315 128.666 18.9441 128.671 18.9526 128.681C18.9568 128.687 18.9526 128.698 18.9589 128.704L24.0819 134.991C24.0882 135 24.1009 134.995 24.1072 135.004C24.1157 135.01 24.1114 135.023 24.1199 135.031L29.8639 140.773C29.8766 140.788 29.885 140.803 29.8998 140.818C29.9104 140.826 29.9083 140.843 29.9188 140.854L30.3434 141.196L36.2586 145.951C36.267 145.958 36.2797 145.955 36.2903 145.962C36.2945 145.966 36.2945 145.977 36.3029 145.981L43.0863 150.419C43.099 150.426 43.1117 150.423 43.1201 150.43C43.1286 150.434 43.1286 150.445 43.137 150.449L50.3999 154.146C50.4126 154.152 50.4253 154.15 50.4359 154.154C50.4422 154.156 50.4443 154.167 50.4506 154.169L57.5234 156.886L57.9967 157.108C58.0368 157.127 58.0769 157.127 58.1171 157.135C58.1319 157.139 58.1361 157.154 58.153 157.156L58.7107 157.232L65.9567 159.176C65.9715 159.18 65.9863 159.178 65.999 159.182C66.0032 159.182 66.0074 159.188 66.0117 159.188L73.6696 160.431C73.6696 160.431 73.6717 160.431 73.6739 160.431L74.0478 160.504C74.0837 160.511 74.1154 160.515 74.1492 160.515H74.4661L82.2275 160.938C82.2402 160.938 82.2487 160.938 82.2571 160.938C82.2677 160.938 82.2783 160.938 82.2867 160.938L90.0524 160.515H90.3904C90.4263 160.515 90.4601 160.511 90.4939 160.504L90.8679 160.431C90.87 160.431 90.87 160.431 90.8742 160.431L98.5068 159.188C98.511 159.188 98.5111 159.182 98.5174 159.182C98.5322 159.178 98.5448 159.18 98.5575 159.176L105.844 157.23L106.365 157.154C106.378 157.152 106.385 157.139 106.397 157.135C106.437 157.127 106.477 157.127 106.518 157.108L106.989 156.886L114.062 154.169C114.07 154.167 114.07 154.156 114.078 154.154C114.089 154.15 114.102 154.152 114.112 154.146L121.375 150.449C121.384 150.445 121.384 150.434 121.392 150.43C121.405 150.423 121.417 150.426 121.426 150.419L128.213 145.981C128.22 145.977 128.218 145.966 128.226 145.962C128.235 145.955 128.247 145.958 128.256 145.951L134.171 141.198C134.173 141.198 134.171 141.196 134.173 141.196L134.593 140.854C134.61 140.839 134.608 140.816 134.623 140.803C134.629 140.797 134.636 140.792 134.64 140.786L140.396 135.034C140.403 135.025 140.401 135.012 140.407 135.004C140.413 134.998 140.426 135.002 140.43 134.993L140.432 134.991L140.464 134.953L145.581 128.706C145.587 128.7 145.585 128.692 145.589 128.685C145.598 128.675 145.61 128.671 145.619 128.658L150.004 121.853L150.025 121.82C150.032 121.813 150.025 121.801 150.03 121.794C150.038 121.784 150.049 121.779 150.055 121.769L153.642 114.726L153.739 114.555C153.748 114.538 153.739 114.519 153.746 114.502C153.756 114.478 153.782 114.466 153.79 114.443L153.834 114.28L156.678 106.854C156.682 106.846 156.674 106.835 156.678 106.827C156.682 106.816 156.695 106.81 156.697 106.799L158.651 99.5111L158.803 98.9998C158.809 98.9829 158.795 98.966 158.799 98.9513C158.803 98.9301 158.824 98.9196 158.824 98.9006L158.877 98.3471L160.088 90.8792C160.09 90.8687 160.081 90.8602 160.081 90.8496C160.081 90.8391 160.094 90.8327 160.094 90.8222L160.542 82.7142C160.544 82.7037 160.531 82.6952 160.531 82.6847C160.531 82.6741 160.544 82.6656 160.542 82.6551L160.083 74.5197ZM156.756 82.71L156.334 90.4208C156.334 90.4314 156.323 90.4356 156.321 90.4462C156.321 90.4546 156.329 90.4631 156.329 90.4715L155.165 98.1295C155.165 98.1422 155.153 98.1485 155.148 98.1591C155.148 98.1696 155.157 98.1802 155.153 98.1907L153.118 105.637C153.116 105.648 153.106 105.652 153.101 105.663C153.099 105.673 153.106 105.682 153.101 105.69L150.33 112.926C150.325 112.936 150.315 112.941 150.311 112.951C150.306 112.96 150.313 112.968 150.309 112.976L146.798 119.893C146.791 119.903 146.781 119.908 146.772 119.918C146.768 119.927 146.772 119.935 146.768 119.942L142.572 126.438C142.564 126.448 142.551 126.452 142.543 126.463C142.539 126.469 142.543 126.48 142.536 126.486L137.652 132.482C137.646 132.49 137.633 132.486 137.627 132.494C137.621 132.501 137.623 132.513 137.616 132.522L132.12 138.014C132.113 138.023 132.103 138.019 132.094 138.025C132.086 138.033 132.088 138.046 132.079 138.052L126.059 142.937C126.048 142.945 126.035 142.941 126.027 142.947C126.018 142.953 126.019 142.964 126.01 142.97L119.541 147.145C119.533 147.151 119.52 147.149 119.508 147.155C119.501 147.16 119.501 147.168 119.495 147.172L112.576 150.683C112.564 150.69 112.551 150.688 112.543 150.692C112.534 150.694 112.534 150.704 112.526 150.706L105.318 153.506C105.305 153.51 105.29 153.51 105.275 153.514C105.271 153.514 105.269 153.52 105.263 153.523L97.7907 155.555C97.7738 155.559 97.7569 155.559 97.7421 155.561C97.7379 155.561 97.7357 155.567 97.7315 155.567L90.0735 156.731C90.0588 156.734 90.044 156.734 90.0292 156.736C90.0271 156.736 90.025 156.738 90.025 156.738L82.2888 157.186C82.2761 157.186 82.2656 157.186 82.255 157.186C82.2466 157.186 82.2339 157.186 82.2254 157.186L74.4893 156.738C74.4851 156.738 74.4851 156.736 74.4808 156.736C74.4682 156.734 74.4534 156.734 74.4386 156.731L66.806 155.567C66.8017 155.567 66.8018 155.561 66.7975 155.561C66.7806 155.559 66.7637 155.559 66.7489 155.555L59.2473 153.523C59.2431 153.52 59.2431 153.514 59.2367 153.514C59.2219 153.51 59.2093 153.51 59.1945 153.506L51.9865 150.706C51.9801 150.704 51.978 150.694 51.9717 150.692C51.959 150.688 51.9463 150.69 51.9379 150.683L45.0193 147.172C45.0108 147.168 45.0108 147.16 45.0024 147.155C44.9939 147.149 44.9813 147.151 44.9686 147.145L38.5 142.97C38.4915 142.964 38.4936 142.953 38.4852 142.947C38.4746 142.941 38.462 142.945 38.4535 142.937L32.4327 138.052C32.4243 138.046 32.4264 138.033 32.418 138.025C32.4116 138.019 32.3989 138.023 32.3905 138.014L26.8979 132.522C26.8894 132.513 26.8937 132.501 26.8852 132.494C26.8789 132.486 26.8662 132.49 26.8599 132.482L21.9756 126.486C21.9714 126.48 21.9735 126.471 21.9693 126.463C21.9609 126.452 21.9482 126.448 21.9418 126.438L17.7421 119.942C17.7379 119.933 17.7421 119.925 17.7379 119.916C17.7337 119.906 17.721 119.901 17.7146 119.891L14.2311 112.974C14.2268 112.966 14.2332 112.96 14.2289 112.951C14.2247 112.941 14.2142 112.936 14.2099 112.926L11.4108 105.69C11.4087 105.682 11.4129 105.673 11.4108 105.665C11.4087 105.654 11.396 105.648 11.3918 105.637L9.38699 98.1907C9.38277 98.1802 9.39122 98.1717 9.39122 98.1612C9.38699 98.1485 9.37432 98.1443 9.37432 98.1316L8.18707 90.4736C8.18495 90.4631 8.1934 90.4567 8.19129 90.4462C8.19129 90.4356 8.18073 90.4314 8.18073 90.4208L7.75822 82.71C7.75822 82.6994 7.76878 82.691 7.76878 82.6804C7.76878 82.6699 7.75822 82.6614 7.75822 82.6509L8.18073 74.9147C8.18073 74.9042 8.19129 74.8999 8.19129 74.8894C8.1934 74.8788 8.18495 74.8725 8.18707 74.8619L9.37432 67.2039C9.37432 67.1934 9.38699 67.1891 9.3891 67.1786C9.39122 67.168 9.38276 67.1575 9.38488 67.1469L11.3918 59.6474C11.396 59.6368 11.4087 59.6326 11.4129 59.622C11.415 59.6114 11.4066 59.6009 11.4108 59.5903L14.2099 52.4077C14.2142 52.3992 14.2247 52.3971 14.2268 52.3887C14.2311 52.3802 14.2268 52.3696 14.2311 52.3612L17.7125 45.4172C17.7189 45.4067 17.7315 45.4067 17.7379 45.3961C17.7421 45.3877 17.7379 45.375 17.7421 45.3665L21.9418 38.8979C21.9482 38.8895 21.9587 38.8895 21.9672 38.881C21.9714 38.8726 21.9672 38.8578 21.9756 38.8493L26.8599 32.8539C26.8662 32.8455 26.8768 32.8476 26.8852 32.8413C26.8915 32.8328 26.8894 32.8223 26.8958 32.8138L32.3905 27.2958C32.3989 27.2874 32.4116 27.2916 32.418 27.2853C32.4264 27.2768 32.4243 27.2641 32.4327 27.2578L38.4535 22.3736C38.462 22.3673 38.4746 22.3715 38.4831 22.3652C38.4915 22.3588 38.4915 22.3461 38.5 22.3398L44.9686 18.1422C44.977 18.1358 44.9897 18.1422 45.0003 18.1358C45.0108 18.1316 45.0108 18.1168 45.0193 18.1126L51.9379 14.6269C51.9484 14.6227 51.959 14.629 51.9675 14.6248C51.9759 14.6206 51.978 14.61 51.9886 14.6058L59.1966 11.8341C59.205 11.8299 59.2156 11.8383 59.2262 11.8341C59.2367 11.832 59.2388 11.8193 59.2494 11.8172L66.7236 9.8103C66.7341 9.80819 66.7426 9.81664 66.7532 9.81453C66.7637 9.81241 66.7679 9.79974 66.7785 9.79763L74.4365 8.58502C74.4492 8.58291 74.4555 8.59347 74.4661 8.59136C74.4766 8.59136 74.483 8.57869 74.4914 8.57869L82.2275 8.15618C82.2402 8.15618 82.2466 8.16674 82.2571 8.16674C82.2698 8.16674 82.2761 8.15618 82.2867 8.15618L90.0228 8.57869C90.0355 8.57869 90.0397 8.59136 90.0503 8.59136C90.0609 8.59347 90.0693 8.58291 90.0778 8.58502L97.7357 9.79763C97.7484 9.79974 97.7526 9.81241 97.7632 9.81453C97.7738 9.81664 97.7822 9.80819 97.7928 9.8103L105.267 11.8172C105.278 11.8193 105.28 11.832 105.29 11.8341C105.301 11.8383 105.309 11.8299 105.322 11.8341L112.53 14.6058C112.538 14.61 112.538 14.6206 112.549 14.6248C112.559 14.629 112.568 14.6227 112.576 14.6269L119.495 18.1126C119.508 18.1168 119.508 18.1316 119.516 18.1358C119.527 18.1422 119.537 18.1358 119.548 18.1422L126.016 22.3398C126.027 22.3461 126.025 22.3588 126.033 22.3652C126.044 22.3715 126.054 22.3673 126.063 22.3736L132.084 27.2578C132.092 27.2641 132.09 27.2768 132.098 27.2853C132.107 27.2916 132.12 27.2874 132.126 27.2958L137.621 32.8138C137.629 32.8223 137.625 32.8328 137.631 32.8413C137.637 32.8476 137.65 32.8455 137.657 32.8539L142.541 38.8493C142.547 38.8578 142.543 38.8726 142.551 38.881C142.556 38.8895 142.568 38.8895 142.575 38.8979L146.772 45.3665C146.778 45.375 146.772 45.3856 146.778 45.3961C146.785 45.4046 146.798 45.4046 146.802 45.4151L150.313 52.3591C150.317 52.3696 150.311 52.3781 150.315 52.3887C150.319 52.3992 150.33 52.3992 150.334 52.4098L153.106 59.5924C153.11 59.603 153.101 59.6114 153.106 59.622C153.11 59.6326 153.12 59.6347 153.122 59.6452L155.157 67.1448C155.161 67.1553 155.153 67.1659 155.153 67.1786C155.157 67.1891 155.17 67.1934 155.17 67.206L156.334 74.864C156.334 74.8725 156.325 74.8809 156.325 74.8894C156.327 74.8999 156.338 74.9042 156.338 74.9147L156.76 82.6509C156.762 82.6614 156.75 82.6699 156.75 82.6804C156.75 82.691 156.758 82.7016 156.756 82.71Z" fill="#8C9592"/>
<path d="M92.1083 97.0384C92.1083 97.0025 92.1357 96.9771 92.1273 96.9412L91.9963 96.3138L91.9942 96.3074L91.7851 95.2068C91.7787 95.1772 91.7491 95.1646 91.7407 95.1392C91.7322 95.1139 91.7449 95.0885 91.7322 95.0632L91.1006 93.8484C91.0858 93.821 91.0562 93.8189 91.0372 93.7956C91.0203 93.7724 91.0267 93.7407 91.0055 93.7196L89.9493 92.6633C89.926 92.6422 89.8964 92.6485 89.8711 92.6295C89.8457 92.6126 89.8436 92.583 89.8183 92.5682L88.2846 91.776C88.2529 91.7591 88.2212 91.776 88.1874 91.7676C88.1536 91.757 88.1388 91.7232 88.1008 91.7211L86.7023 91.5627C86.6811 91.5606 86.6642 91.5796 86.6431 91.5817C86.6199 91.5796 86.603 91.5606 86.5819 91.5627L85.0249 91.7486C84.989 91.7528 84.9721 91.7866 84.9383 91.795C84.9045 91.8035 84.8728 91.7887 84.8411 91.8056L83.4405 92.545C83.4194 92.5556 83.4151 92.5851 83.3961 92.5957C83.375 92.6105 83.3497 92.6041 83.3285 92.621L82.0906 93.7576C82.0631 93.783 82.0673 93.8189 82.0483 93.8463C82.0251 93.8738 81.9892 93.8801 81.9744 93.9097L81.2857 95.2807C81.273 95.3103 81.2899 95.3378 81.2815 95.3674C81.2709 95.3948 81.2392 95.4096 81.2371 95.4371L81.0026 96.9708C80.9984 97.0004 81.0195 97.0194 81.0216 97.0489C81.0195 97.0785 80.9963 97.0975 81.0005 97.1271L81.1843 98.3946C81.1885 98.4242 81.216 98.439 81.2244 98.4643C81.2308 98.4897 81.216 98.5108 81.2266 98.5341L81.9681 100.171C81.9871 100.216 82.0251 100.235 82.0547 100.271C82.0695 100.29 82.0631 100.315 82.0821 100.332L83.3497 101.572C83.3729 101.595 83.4067 101.589 83.4342 101.608C83.4616 101.627 83.4659 101.659 83.4933 101.673L84.9742 102.36C85.0165 102.379 85.0608 102.381 85.1052 102.389C85.1157 102.392 85.1221 102.404 85.1348 102.406L86.6917 102.592C86.7128 102.594 86.734 102.596 86.753 102.596C86.753 102.596 86.7551 102.596 86.7572 102.596C86.7889 102.596 86.8185 102.594 86.8523 102.586L88.3839 102.297C88.4008 102.294 88.4092 102.275 88.424 102.271C88.4578 102.261 88.4916 102.263 88.5254 102.246L88.6838 102.166C88.6859 102.163 88.686 102.159 88.6902 102.157C88.6965 102.155 88.7028 102.157 88.7113 102.153L89.8985 101.468C89.9218 101.454 89.9239 101.424 89.9429 101.409C89.9619 101.394 89.9915 101.399 90.0084 101.38L91.1175 100.243C91.1365 100.224 91.1302 100.199 91.145 100.178C91.1724 100.142 91.2126 100.121 91.2295 100.076L91.8886 98.4918C91.897 98.4728 91.8843 98.4559 91.8886 98.439C91.8949 98.4158 91.9181 98.4052 91.9224 98.3841L91.9393 98.2911C92.1083 98.1369 92.1907 97.9024 92.085 97.689C92.0766 97.6721 92.0555 97.67 92.0449 97.6531L92.1315 97.1377C92.1378 97.0996 92.1104 97.0722 92.1083 97.0384Z" fill="#8C9592"/>
</g>
</svg>
